<?xml version="1.0" encoding="UTF-8"?><!DOCTYPE svg PUBLIC "-//W3C//DTD SVG 1.1//EN" "http://www.w3.org/Graphics/SVG/1.1/DTD/svg11.dtd"><svg xmlns="http://www.w3.org/2000/svg" xmlns:xlink="http://www.w3.org/1999/xlink"><symbol id="icon-arrow-left" viewBox="0 0 22 22">
    <path d="M11,2 C16,2 20,6 20,11 C20,16 16,20 11,20 C6,20 2,16 2,11 C2,6 6,2 11,2 L11,2 Z M11,0 C4.9,0 0,4.9 0,11 C0,17.1 4.9,22 11,22 C17.1,22 22,17.1 22,11 C22,4.9 17.1,0 11,0 L11,0 L11,0 Z"/>
    <path d="M10.4,11 L7.6,13.8 L9,15.2 L11.8,12.4 L13.2,11 L11.8,9.6 L9,6.8 L7.6,8.2 L10.4,11 Z" transform="translate(10.400000, 11.000000) rotate(-180.000000) translate(-10.400000, -11.000000) "/>
</symbol><symbol id="icon-arrow-right" viewBox="0 0 22 22">
    <path d="M11,2c5,0,9,4,9,9s-4,9-9,9s-9-4-9-9S6,2,11,2 M11,0C4.9,0,0,4.9,0,11s4.9,11,11,11s11-4.9,11-11 S17.1,0,11,0L11,0z"/>
	<polygon points="11.4,11 8.6,13.8 10,15.2 12.8,12.4 14.2,11 12.8,9.6 10,6.8 8.6,8.2"/>
</symbol><symbol id="icon-close" viewBox="0 0 18 18">
    <path d="M0 0h18v18H0zm0 0h18v18H0z" fill="none"/>
    <path d="M14.53 4.53l-1.06-1.06L9 7.94 4.53 3.47 3.47 4.53 7.94 9l-4.47 4.47 1.06 1.06L9 10.06l4.47 4.47 1.06-1.06L10.06 9z"/>
</symbol><symbol id="icon-comment" viewBox="0 0 33.9995 32.7612">
<g id="XMLID_15_">
	<path id="XMLID_33_" d="M32.9995,0H14.4053l-1,1v3H1L0,5v20.9653l1,1h2.9995L4,32.0024l1.6509,0.7588l6.7563-5.7959h18.5923l1-1
		V14.3379h1l1-1V1L32.9995,0z M29.9995,24.9653H12.0371l-0.6509,0.2412L6,29.8271l-0.0005-3.8618l-1-1H2V6h11.4053v7.3379l1,1h3
		v2.9419l1.6514,0.7588l4.3135-3.7007h6.6294V24.9653z M31.9995,12.3379H23l-0.6514,0.2412l-2.9434,2.5254v-1.7666l-1-1h-3V2
		h16.5942V12.3379z"/>
</g>
</symbol><symbol id="icon-facebook" viewBox="0 0 12.56 24" preserveAspectRatio="xMidYMid">
  <path d="M3.242,13.597 L3.242,23.956 L8.453,23.996 L8.432,13.566 L11.651,13.546 L12.549,9.050 L8.429,9.050 L8.429,5.730 C8.429,5.283 8.607,4.483 9.334,4.483 L11.734,4.523 L11.653,0.026 L6.903,0.006 C5.277,0.006 3.244,2.083 3.244,4.206 L3.204,9.026 L0.014,9.086 L0.014,13.578 L3.242,13.597 Z"/>
</symbol><symbol id="icon-menu" viewBox="0 0 18 18">
    <path d="M0 0h18v18H0z" fill="none"/>
    <path d="M2 13.5h14V12H2v1.5zm0-4h14V8H2v1.5zM2 4v1.5h14V4H2z"/>
</symbol><symbol id="icon-pin" viewBox="0 0 22 32.543">
<g id="XMLID_69_">
	<path id="XMLID_87_" d="M11,6.5c-2.2056,0-4,1.7939-4,4s1.7944,4,4,4s4-1.7939,4-4S13.2056,6.5,11,6.5z M11,12.5
		c-1.103,0-2-0.8975-2-2s0.897-2,2-2s2,0.8975,2,2S12.103,12.5,11,12.5z"/>
	<path id="XMLID_90_" d="M11,0C4.9346,0,0,4.9346,0,11c0,5.751,9.7451,20.9004,10.1602,21.543h1.6797
		C12.2549,31.9004,22,16.751,22,11C22,4.9346,17.0654,0,11,0z M11,30.1328C7.8779,25.127,2,14.8994,2,11c0-4.9629,4.0376-9,9-9
		s9,4.0371,9,9C20,14.8994,14.1221,25.127,11,30.1328z"/>
</g>
</symbol><symbol id="icon-rss" viewBox="0 0 24 24">
<path d="M3.194 17.6c-1.763 0-3.194 1.438-3.194 3.189 0 1.762 1.432 3.183 3.194 3.183 1.769 0 3.199-1.421 3.199-3.183 0-1.752-1.43-3.189-3.199-3.189zM0.004 8.155v4.6c2.995 0 5.812 1.172 7.933 3.293 2.119 2.116 3.288 4.946 3.288 7.952h4.62c0-8.738-7.108-15.845-15.841-15.845zM0.009 0v4.602c10.682 0 19.377 8.703 19.377 19.398h4.614c0-13.23-10.764-24-23.991-24z"/>
</symbol><symbol id="icon-search" viewBox="0 0 18.5 18.5">
<g id="XMLID_27_">
	<path id="XMLID_35_" d="M18.5,17.1l-5.9-5.9C13.5,10,14,8.6,14,7c0-3.9-3.1-7-7-7S0,3.1,0,7c0,3.9,3.1,7,7,7
		c1.6,0,3-0.5,4.2-1.4l5.9,5.9L18.5,17.1z M2,7c0-2.8,2.2-5,5-5s5,2.2,5,5c0,2.8-2.2,5-5,5S2,9.8,2,7z"/>
</g>
</symbol><symbol id="icon-star-filled" viewBox="0 0 31.3965 29.9223">
<g id="XMLID_253_">
	<path id="XMLID_254_" d="M24.5029,29.9223l-8.8047-4.6294l-8.8047,4.6294l-1.4512-1.0542l1.6816-9.8052L0,12.1196l0.5547-1.7061
		l9.8447-1.4616L14.8018,0h1.793l4.4033,8.9519l9.8438,1.4459l0.5547,1.7139l-7.124,6.9473l1.6816,9.8071L24.5029,29.9223z"/>
</g>
</symbol><symbol id="icon-star" viewBox="0 0 31.3965 29.9223">
<g id="XMLID_253_">
	<path id="XMLID_254_" d="M24.5029,29.9223l-8.8047-4.6294l-8.8047,4.6294l-1.4512-1.0542l1.6816-9.8052L0,12.1196l0.5547-1.7061
		l9.8447-1.4616L14.8018,0h1.793l4.4033,8.9519l9.8438,1.4459l0.5547,1.7139l-7.124,6.9473l1.6816,9.8071L24.5029,29.9223z
		 M15.2324,23h0.9316l7.4766,4.07l-1.4277-8.2567L22.5,17.9628l6.0488-5.8786l-8.3584-1.2057l-0.7529-0.543l-3.7393-7.5725
		L11.96,10.3387l-0.7529,0.5479l-8.3594,1.2146l6.0488,5.8961l0.2871,0.8853L7.7559,27.07L15.2324,23z"/>
</g>
</symbol><symbol id="icon-thumb-down" viewBox="-560.3701 263.4485 31.9707 28">
<g id="XMLID_315_">
	<path id="XMLID_343_" d="M-528.3994,280.2058l-4-16l-0.9697-0.7573h-16.5518l0,0h-10.4492v20h10.4492v-1h2.2793l1.7207,5.1621
		v2.8379l1,1h6l1-1l-0.0381-3.2749l-1.6357-5.7251h10.2256L-528.3994,280.2058z M-558.3701,281.4485v-16h6.4492v16
		 M-534.1504,265.4485l0.5084,2.0337h-1.3834v2h1.8834l0.5,2h-1.3082v2h1.8082l0.5,2h-1.274v2h1.774l0.4916,1.9663h-10.2705
		l-0.9619,1.2749l1.9619,6.8652v1.8599h-4v-2l-0.0518-0.3164l-2-6l-0.9482-0.6836h-3v-15H-534.1504z"/>
</g>
<path d="M-549.9209,283.4485"/>
</symbol><symbol id="icon-thumb-up" viewBox="-560.3701 262.4485 31.9707 29">
<g id="XMLID_315_">
	<path id="XMLID_343_" d="M-529.3691,272.4485h-10.2256l1.6357-5.7251l0.0381-3.2749l-1-1h-6l-1,1v2.8379l-1.7207,5.1621h-2.2793h-1
		h-9.4492v20h10.4492v-1h16.5518l0.9697-0.7573l4-16L-529.3691,272.4485z M-558.3701,289.4485v-16h6.4492v16H-558.3701z
		 M-549.9209,288.4485v-15h3l0.9482-0.6836l2-6l0.0518-0.3164v-2h4v1.8599l-1.9619,6.8652l0.9619,1.2749h10.2705l-0.4916,1.9663
		h-1.774v2h1.274l-0.5,2h-1.8082v2h1.3082l-0.5,2h-1.8834v2h1.3834l-0.5084,2.0337H-549.9209z"/>
</g>
</symbol><symbol id="icon-tickets" viewBox="0 0 26.5967 34.1455">
<g id="XMLID_51_">
	<path id="XMLID_55_" d="M24.0332,5.3447l-5.3654-0.564l-0.1176-1.1181L15.1514,0L2.5635,1.3232L0,5.6123L2.5762,30.125
		l3.1461-0.3306l-0.2525,2.4019l18.5508,1.9492l2.5762-24.5122L24.0332,5.3447z M7.668,30.417l0.0879-0.8364l13.3711-1.4053
		L18.8816,6.8144l3.9485,0.4151l1.708,2.8579l-2.2974,21.8608L7.668,30.417z M14.3662,2.0938l2.2651,2.4409l2.2974,21.8604
		L4.3564,27.9268L2.0586,6.0664L3.7671,3.208L14.3662,2.0938z"/>
	<path id="XMLID_63_" d="M7.6094,8.9404C8.145,9.374,8.7988,9.6045,9.4785,9.6045c0.105,0,0.2109-0.0054,0.3169-0.0166
		c0.7915-0.0835,1.5034-0.4697,2.0039-1.0879c0.501-0.6187,0.731-1.395,0.6479-2.1865c-0.0835-0.7915-0.4697-1.5029-1.0884-2.0039
		c-0.6187-0.5005-1.394-0.7334-2.186-0.6475C8.3813,3.7456,7.6694,4.1318,7.1689,4.75C6.668,5.3687,6.438,6.145,6.521,6.9365
		C6.6045,7.728,6.9907,8.4395,7.6094,8.9404z M8.7231,6.0088c0.1646-0.2031,0.3984-0.3301,0.6587-0.3574
		C9.4165,5.6475,9.4517,5.646,9.4858,5.646c0.2236,0,0.4385,0.0757,0.6147,0.2183c0.2031,0.1646,0.3301,0.3984,0.3574,0.6582
		c0.0273,0.2603-0.0483,0.5156-0.2129,0.7188S9.8467,7.5713,9.5864,7.5986c-0.543,0.061-1.0195-0.3345-1.0762-0.8711
		C8.4829,6.4673,8.5586,6.2119,8.7231,6.0088z"/>
</g>
</symbol><symbol id="icon-twitter" viewBox="0 0 27.06 22" preserveAspectRatio="xMidYMid">
  <path d="M27.069,2.604 C26.072,3.046 25.003,3.345 23.879,3.479 C25.026,2.792 25.906,1.703 26.321,0.407 C25.248,1.042 24.058,1.505 22.793,1.755 C21.779,0.675 20.336,0.000 18.738,0.000 C15.671,0.000 13.183,2.488 13.183,5.554 C13.183,5.989 13.232,6.413 13.327,6.819 C8.711,6.588 4.618,4.376 1.878,1.015 C1.399,1.836 1.127,2.791 1.127,3.808 C1.127,5.735 2.107,7.435 3.597,8.431 C2.687,8.402 1.831,8.151 1.081,7.735 C1.081,7.759 1.081,7.781 1.081,7.805 C1.081,10.495 2.997,12.740 5.536,13.252 C5.071,13.378 4.580,13.446 4.073,13.446 C3.714,13.446 3.367,13.411 3.027,13.346 C3.734,15.553 5.785,17.159 8.215,17.205 C6.315,18.694 3.919,19.582 1.316,19.582 C0.868,19.582 0.426,19.555 -0.009,19.504 C2.450,21.080 5.369,22.000 8.506,22.000 C18.723,22.000 24.311,13.536 24.311,6.195 C24.311,5.955 24.305,5.715 24.294,5.476 C25.380,4.692 26.321,3.715 27.065,2.601 L27.069,2.604 Z"/>
</symbol><symbol id="tripee_logo" viewBox="0 0 150 72.2">
<g id="XMLID_52_">
	<g id="XMLID_1951_">
		<path id="XMLID_1969_" fill="#ffffff" d="M49.2,38.7c-0.8,0-1.4-0.4-1.4-1.5v-2.8h3.3v-2.7h-3.3v-2.8h-3.1v2.8H43v2.7h1.8v3.2
			c0,2.4,1.2,4,3.8,4c1.6,0,2.5-0.4,3.4-1.1l-1.1-2.4C50.4,38.4,49.8,38.7,49.2,38.7z"/>
		<path id="XMLID_1966_" fill="#ffffff" d="M56.2,32.8v-1.1h-3v9.7h3.1v-5.2c0-1.2,0.7-1.7,1.8-1.7c0.6,0,1.1,0.1,1.5,0.3l0.3-3.1
			c-0.2-0.1-0.6-0.1-1.1-0.1C57.6,31.4,56.7,31.9,56.2,32.8z"/>
		<rect id="XMLID_1963_" x="61.1" y="31.7" fill="#ffffff" width="3.1" height="9.7"/>
		<path id="XMLID_1956_" fill="#ffffff" d="M62.6,26.9c-1,0-1.8,0.8-1.8,1.9c0,1,0.8,1.8,1.8,1.8c1,0,1.8-0.8,1.8-1.8
			C64.5,27.7,63.7,26.9,62.6,26.9z"/>
		<path id="XMLID_1952_" fill="#ffffff" d="M72.1,31.4c-1.3,0-2.2,0.6-2.8,1.3v-1h-3v13.6h3.1v-4.9c0.6,0.7,1.4,1.2,2.7,1.2
			c2.6,0,4.5-2.2,4.5-5.1C76.6,33.7,74.6,31.4,72.1,31.4z M69.4,36.5c0-1.1,1-2.1,2.1-2.1c1.1,0,2.1,1,2.1,2.1c0,1.1-1,2.1-2.1,2.1
			C70.4,38.6,69.4,37.7,69.4,36.5z"/>
	</g>
	<g id="XMLID_1204_">
		<path id="XMLID_1948_" fill="#ffffff" d="M96.1,36.5c0,0.3,0,0.8-0.1,1h-6.6c0.3,1.1,1,1.6,2.1,1.6c0.7,0,1.5-0.3,2.1-0.8l2,1.9
			c-1,1-2.5,1.6-4.3,1.6c-3,0-5.1-2-5.1-5c0-3.1,2-5.2,5-5.2C94.1,31.4,96.1,33.5,96.1,36.5z M89.5,35.5H93c-0.2-1-0.9-1.5-1.7-1.5
			C90.3,34.1,89.7,34.6,89.5,35.5z"/>
		<path id="XMLID_1205_" fill="#ffffff" d="M107,36.5c0,0.3,0,0.8-0.1,1h-6.6c0.3,1.1,1,1.6,2.1,1.6c0.7,0,1.5-0.3,2.1-0.8l2,1.9
			c-1,1-2.5,1.6-4.3,1.6c-3,0-5.1-2-5.1-5c0-3.1,2-5.2,5-5.2C105.1,31.4,107,33.5,107,36.5z M100.4,35.5h3.5c-0.2-1-0.9-1.5-1.7-1.5
			C101.2,34.1,100.7,34.6,100.4,35.5z"/>
	</g>
	<g id="XMLID_675_">
		<path id="XMLID_679_" fill="#ffffff" d="M83.6,36.5c0,1.1-1,2.1-2.1,2.1c-1.1,0-2.1-1-2.1-2.1c0-1.1,1-2.1,2.1-2.1
			C82.6,34.4,83.6,35.4,83.6,36.5z"/>
	</g>
</g>
<g id="XMLID_2152_">
	<path id="XMLID_2153_" fill="#4AC9E3" d="M110.5,57.3c0,1.1-1,2.1-2.1,2.1c-1.1,0-2.1-1-2.1-2.1c0-1.1,1-2.1,2.1-2.1
		C109.5,55.2,110.5,56.2,110.5,57.3z"/>
</g>
<g id="XMLID_2149_">
	<path id="XMLID_2150_" fill="#FFCE33" d="M41,7.1c0,1.1-1,2.1-2.1,2.1c-1.1,0-2.1-1-2.1-2.1c0-1.1,1-2.1,2.1-2.1C40,5,41,6,41,7.1z
		"/>
</g>
<g id="XMLID_61_">
	<path id="XMLID_62_" fill="#8EDD65" d="M58.1,8.8c0,1.1-1,2.1-2.1,2.1c-1.1,0-2.1-1-2.1-2.1c0-1.1,1-2.1,2.1-2.1
		C57.2,6.7,58.1,7.7,58.1,8.8z"/>
</g>
<g id="XMLID_2146_">
	<path id="XMLID_2147_" fill="#FF5050" d="M40.7,2.1c0,1.1-1,2.1-2.1,2.1c-1.1,0-2.1-1-2.1-2.1c0-1.1,1-2.1,2.1-2.1
		C39.7,0,40.7,1,40.7,2.1z"/>
</g>
<g id="XMLID_2143_">
	<path id="XMLID_2144_" fill="#FF9A3E" d="M30.6,6.8c0,1.1-1,2.1-2.1,2.1c-1.1,0-2.1-1-2.1-2.1c0-1.1,1-2.1,2.1-2.1
		C29.6,4.7,30.6,5.7,30.6,6.8z"/>
</g>
<g id="XMLID_2140_">
	<path id="XMLID_2141_" fill="#8B84D7" d="M20.8,14.2c0,1.1-1,2.1-2.1,2.1c-1.1,0-2.1-1-2.1-2.1c0-1.1,1-2.1,2.1-2.1
		C19.8,12.1,20.8,13,20.8,14.2z"/>
</g>
<g id="XMLID_2137_">
	<path id="XMLID_2138_" fill="#FF5050" d="M15.1,21.8c0,1.1-1,2.1-2.1,2.1c-1.1,0-2.1-1-2.1-2.1c0-1.1,1-2.1,2.1-2.1
		C14.1,19.7,15.1,20.7,15.1,21.8z"/>
</g>
<g id="XMLID_2134_">
	<path id="XMLID_2135_" fill="#FF9A3E" d="M12.4,30.3c0,1.1-1,2.1-2.1,2.1c-1.1,0-2.1-1-2.1-2.1c0-1.1,1-2.1,2.1-2.1
		C11.4,28.2,12.4,29.2,12.4,30.3z"/>
</g>
<g id="XMLID_2131_">
	<path id="XMLID_2132_" fill="#8EDD65" d="M4.2,33.4c0,1.1-1,2.1-2.1,2.1c-1.1,0-2.1-1-2.1-2.1c0-1.1,1-2.1,2.1-2.1
		C3.3,31.3,4.2,32.2,4.2,33.4z"/>
</g>
<g id="XMLID_2128_">
	<path id="XMLID_2129_" fill="#FFCE33" d="M29.4,28.7c0,1.1-1,2.1-2.1,2.1c-1.1,0-2.1-1-2.1-2.1c0-1.1,1-2.1,2.1-2.1
		C28.5,26.6,29.4,27.6,29.4,28.7z"/>
</g>
<g id="XMLID_2125_">
	<path id="XMLID_2126_" fill="#8B84D7" d="M39.8,34.9c0,1.1-1,2.1-2.1,2.1c-1.1,0-2.1-1-2.1-2.1c0-1.1,1-2.1,2.1-2.1
		C38.8,32.8,39.8,33.8,39.8,34.9z"/>
</g>
<g id="XMLID_2122_">
	<path id="XMLID_2123_" fill="#4AC9E3" d="M25.5,16.4c0,1.1-1,2.1-2.1,2.1c-1.1,0-2.1-1-2.1-2.1c0-1.1,1-2.1,2.1-2.1
		C24.6,14.3,25.5,15.3,25.5,16.4z"/>
</g>
<g id="XMLID_2119_">
	<path id="XMLID_2120_" fill="#8EDD65" d="M12.7,14.1c0,1.1-1,2.1-2.1,2.1c-1.1,0-2.1-1-2.1-2.1c0-1.1,1-2.1,2.1-2.1
		C11.7,12,12.7,13,12.7,14.1z"/>
</g>
<g id="XMLID_2116_">
	<path id="XMLID_2117_" fill="#FF5050" d="M150,70c0,1.1-1,2.1-2.1,2.1c-1.1,0-2.1-1-2.1-2.1c0-1.1,1-2.1,2.1-2.1
		C149,67.9,150,68.9,150,70z"/>
</g>
</symbol><symbol id="tripee_logo_dark" viewBox="0 0 150 72.2">
<g id="XMLID_52_">
	<g id="XMLID_1951_">
		<path id="XMLID_1969_" fill="#444444" d="M49.2,38.7c-0.8,0-1.4-0.4-1.4-1.5v-2.8h3.3v-2.7h-3.3v-2.8h-3.1v2.8H43v2.7h1.8v3.2
			c0,2.4,1.2,4,3.8,4c1.6,0,2.5-0.4,3.4-1.1l-1.1-2.4C50.4,38.4,49.8,38.7,49.2,38.7z"/>
		<path id="XMLID_1966_" fill="#444444" d="M56.2,32.8v-1.1h-3v9.7h3.1v-5.2c0-1.2,0.7-1.7,1.8-1.7c0.6,0,1.1,0.1,1.5,0.3l0.3-3.1
			c-0.2-0.1-0.6-0.1-1.1-0.1C57.6,31.4,56.7,31.9,56.2,32.8z"/>
		<rect id="XMLID_1963_" x="61.1" y="31.7" fill="#444444" width="3.1" height="9.7"/>
		<path id="XMLID_1956_" fill="#444444" d="M62.6,26.9c-1,0-1.8,0.8-1.8,1.9c0,1,0.8,1.8,1.8,1.8c1,0,1.8-0.8,1.8-1.8
			C64.5,27.7,63.7,26.9,62.6,26.9z"/>
		<path id="XMLID_1952_" fill="#444444" d="M72.1,31.4c-1.3,0-2.2,0.6-2.8,1.3v-1h-3v13.6h3.1v-4.9c0.6,0.7,1.4,1.2,2.7,1.2
			c2.6,0,4.5-2.2,4.5-5.1C76.6,33.7,74.6,31.4,72.1,31.4z M69.4,36.5c0-1.1,1-2.1,2.1-2.1c1.1,0,2.1,1,2.1,2.1c0,1.1-1,2.1-2.1,2.1
			C70.4,38.6,69.4,37.7,69.4,36.5z"/>
	</g>
	<g id="XMLID_1204_">
		<path id="XMLID_1948_" fill="#444444" d="M96.1,36.5c0,0.3,0,0.8-0.1,1h-6.6c0.3,1.1,1,1.6,2.1,1.6c0.7,0,1.5-0.3,2.1-0.8l2,1.9
			c-1,1-2.5,1.6-4.3,1.6c-3,0-5.1-2-5.1-5c0-3.1,2-5.2,5-5.2C94.1,31.4,96.1,33.5,96.1,36.5z M89.5,35.5H93c-0.2-1-0.9-1.5-1.7-1.5
			C90.3,34.1,89.7,34.6,89.5,35.5z"/>
		<path id="XMLID_1205_" fill="#444444" d="M107,36.5c0,0.3,0,0.8-0.1,1h-6.6c0.3,1.1,1,1.6,2.1,1.6c0.7,0,1.5-0.3,2.1-0.8l2,1.9
			c-1,1-2.5,1.6-4.3,1.6c-3,0-5.1-2-5.1-5c0-3.1,2-5.2,5-5.2C105.1,31.4,107,33.5,107,36.5z M100.4,35.5h3.5c-0.2-1-0.9-1.5-1.7-1.5
			C101.2,34.1,100.7,34.6,100.4,35.5z"/>
	</g>
	<g id="XMLID_675_">
		<path id="XMLID_679_" fill="#444444" d="M83.6,36.5c0,1.1-1,2.1-2.1,2.1c-1.1,0-2.1-1-2.1-2.1c0-1.1,1-2.1,2.1-2.1
			C82.6,34.4,83.6,35.4,83.6,36.5z"/>
	</g>
</g>
<g id="XMLID_2152_">
	<path id="XMLID_2153_" fill="#4AC9E3" d="M110.5,57.3c0,1.1-1,2.1-2.1,2.1c-1.1,0-2.1-1-2.1-2.1c0-1.1,1-2.1,2.1-2.1
		C109.5,55.2,110.5,56.2,110.5,57.3z"/>
</g>
<g id="XMLID_2149_">
	<path id="XMLID_2150_" fill="#FFCE33" d="M41,7.1c0,1.1-1,2.1-2.1,2.1c-1.1,0-2.1-1-2.1-2.1c0-1.1,1-2.1,2.1-2.1C40,5,41,6,41,7.1z
		"/>
</g>
<g id="XMLID_61_">
	<path id="XMLID_62_" fill="#8EDD65" d="M58.1,8.8c0,1.1-1,2.1-2.1,2.1c-1.1,0-2.1-1-2.1-2.1c0-1.1,1-2.1,2.1-2.1
		C57.2,6.7,58.1,7.7,58.1,8.8z"/>
</g>
<g id="XMLID_2146_">
	<path id="XMLID_2147_" fill="#FF5050" d="M40.7,2.1c0,1.1-1,2.1-2.1,2.1c-1.1,0-2.1-1-2.1-2.1c0-1.1,1-2.1,2.1-2.1
		C39.7,0,40.7,1,40.7,2.1z"/>
</g>
<g id="XMLID_2143_">
	<path id="XMLID_2144_" fill="#FF9A3E" d="M30.6,6.8c0,1.1-1,2.1-2.1,2.1c-1.1,0-2.1-1-2.1-2.1c0-1.1,1-2.1,2.1-2.1
		C29.6,4.7,30.6,5.7,30.6,6.8z"/>
</g>
<g id="XMLID_2140_">
	<path id="XMLID_2141_" fill="#8B84D7" d="M20.8,14.2c0,1.1-1,2.1-2.1,2.1c-1.1,0-2.1-1-2.1-2.1c0-1.1,1-2.1,2.1-2.1
		C19.8,12.1,20.8,13,20.8,14.2z"/>
</g>
<g id="XMLID_2137_">
	<path id="XMLID_2138_" fill="#FF5050" d="M15.1,21.8c0,1.1-1,2.1-2.1,2.1c-1.1,0-2.1-1-2.1-2.1c0-1.1,1-2.1,2.1-2.1
		C14.1,19.7,15.1,20.7,15.1,21.8z"/>
</g>
<g id="XMLID_2134_">
	<path id="XMLID_2135_" fill="#FF9A3E" d="M12.4,30.3c0,1.1-1,2.1-2.1,2.1c-1.1,0-2.1-1-2.1-2.1c0-1.1,1-2.1,2.1-2.1
		C11.4,28.2,12.4,29.2,12.4,30.3z"/>
</g>
<g id="XMLID_2131_">
	<path id="XMLID_2132_" fill="#8EDD65" d="M4.2,33.4c0,1.1-1,2.1-2.1,2.1c-1.1,0-2.1-1-2.1-2.1c0-1.1,1-2.1,2.1-2.1
		C3.3,31.3,4.2,32.2,4.2,33.4z"/>
</g>
<g id="XMLID_2128_">
	<path id="XMLID_2129_" fill="#FFCE33" d="M29.4,28.7c0,1.1-1,2.1-2.1,2.1c-1.1,0-2.1-1-2.1-2.1c0-1.1,1-2.1,2.1-2.1
		C28.5,26.6,29.4,27.6,29.4,28.7z"/>
</g>
<g id="XMLID_2125_">
	<path id="XMLID_2126_" fill="#8B84D7" d="M39.8,34.9c0,1.1-1,2.1-2.1,2.1c-1.1,0-2.1-1-2.1-2.1c0-1.1,1-2.1,2.1-2.1
		C38.8,32.8,39.8,33.8,39.8,34.9z"/>
</g>
<g id="XMLID_2122_">
	<path id="XMLID_2123_" fill="#4AC9E3" d="M25.5,16.4c0,1.1-1,2.1-2.1,2.1c-1.1,0-2.1-1-2.1-2.1c0-1.1,1-2.1,2.1-2.1
		C24.6,14.3,25.5,15.3,25.5,16.4z"/>
</g>
<g id="XMLID_2119_">
	<path id="XMLID_2120_" fill="#8EDD65" d="M12.7,14.1c0,1.1-1,2.1-2.1,2.1c-1.1,0-2.1-1-2.1-2.1c0-1.1,1-2.1,2.1-2.1
		C11.7,12,12.7,13,12.7,14.1z"/>
</g>
<g id="XMLID_2116_">
	<path id="XMLID_2117_" fill="#FF5050" d="M150,70c0,1.1-1,2.1-2.1,2.1c-1.1,0-2.1-1-2.1-2.1c0-1.1,1-2.1,2.1-2.1
		C149,67.9,150,68.9,150,70z"/>
</g>
</symbol><symbol id="tripee_logo_plain" viewBox="0 0 235.6465 67.8503">
<g id="XMLID_523_">
	<g id="XMLID_569_">
		<path id="XMLID_1989_" d="M23.0277,43.699c-2.8658,0-5.0405-1.379-5.0405-5.4746V27.8157h12.148V17.7701h-12.148V7.3998H6.6365
			v10.3703H0v10.0456h6.6365v11.8586c0,8.9205,4.3141,14.6136,13.8517,14.6136c5.73,0,9.2838-1.63,12.6205-3.9509l-3.917-8.8497
			C27.4156,42.5385,25.1301,43.699,23.0277,43.699z"/>
		<path id="XMLID_1986_" d="M48.5771,21.8687v-4.0986H37.6974v35.5758h11.3507v-19.22c0-4.4234,2.4656-6.4195,6.4918-6.4195
			c2.0301,0,4.1694,0.437,5.6931,0.942l1.0512-11.3123c-0.8696-0.254-2.321-0.5463-3.9893-0.5463
			C53.9439,16.7898,50.6441,18.4227,48.5771,21.8687z"/>
		<rect id="XMLID_631_" x="66.6883" y="17.7701" width="11.3507" height="35.5758"/>
		<path id="XMLID_624_" d="M72.3091,0c-3.8446,0-6.7812,2.9735-6.7812,6.8181c0,3.8091,2.9366,6.7442,6.7812,6.7442
			c3.80759,0,6.7811-2.9351,6.7811-6.7442C79.0902,2.9735,76.1167,0,72.3091,0z"/>
		<path id="XMLID_570_" d="M107.0241,16.7898c-4.82349,0-8.0509,2.0315-10.1903,4.8249v-3.8446h-10.952v50.0801h11.3138V49.9738
			c2.1408,2.5394,5.259,4.3141,9.8285,4.3141c9.5007,0,16.5728-8.268,16.5728-18.783
			C123.5969,25.0607,116.5248,16.7898,107.0241,16.7898z M97.2472,35.496c0-4.1369,3.6261-7.6892,7.797-7.6892
			c4.134,0,7.7246,3.5523,7.7246,7.6892c0,4.2048-3.5906,7.8309-7.7246,7.8309C100.8733,43.3269,97.2472,39.7008,97.2472,35.496z"/>
	</g>
	<g id="XMLID_528_">
		<path id="XMLID_564_" d="M195.3714,35.5683c0,1.163-0.07249,2.761-0.2189,3.5245h-24.168
			c0.9454,3.8884,3.7079,5.7054,7.63181,5.7054c2.65439,0,5.5249-1.089,7.77831-3.125l7.34039,6.8329
			c-3.70639,3.7079-9.1218,5.8504-15.7002,5.8504c-11.19321,0-18.7881-7.4484-18.7881-18.5692
			c0-11.2302,7.44991-19.01,18.28059-19.01C188.1021,16.7773,195.3345,24.4121,195.3714,35.5683z M171.0215,31.8989h12.9747
			c-0.90851-3.5629-3.1264-5.4538-6.4334-5.4538C174.03839,26.4451,171.89301,28.3715,171.0215,31.8989z"/>
		<path id="XMLID_533_" d="M235.6465,35.5683c0,1.163-0.07251,2.761-0.21901,3.5245h-24.168
			c0.94551,3.8884,3.7079,5.7054,7.63191,5.7054c2.65439,0,5.5248-1.089,7.77829-3.125l7.3403,6.8329
			c-3.70639,3.7079-9.1218,5.8504-15.7001,5.8504c-11.19328,0-18.78809-7.4484-18.78809-18.5692
			c0-11.2302,7.4498-19.01,18.28059-19.01C228.3772,16.7773,235.6095,24.4121,235.6465,35.5683z M211.29649,31.8989h12.9747
			c-0.9084-3.5629-3.1264-5.4538-6.4333-5.4538C214.3134,26.4451,212.168,28.3715,211.29649,31.8989z"/>
	</g>
	<g id="XMLID_524_">
		<path id="XMLID_525_" d="M149.31999,35.524c0,4.2139-3.59839,7.8478-7.74139,7.8478c-4.1799,0-7.8138-3.6339-7.8138-7.8478
			c0-4.1459,3.6339-7.7059,7.8138-7.7059C145.7216,27.8181,149.31999,31.3781,149.31999,35.524z"/>
	</g>
</g>
</symbol><symbol id="tripee_logo_plain_dark" viewBox="0 0 235.6465 67.8503" preserveAspectRatio="xMinYMin meet">
		<path id="XMLID_1989_" d="M23.0277,43.699c-2.8658,0-5.0405-1.379-5.0405-5.4746V27.8157h12.148V17.7701h-12.148V7.3998H6.6365
			v10.3703H0v10.0456h6.6365v11.8586c0,8.9205,4.3141,14.6136,13.8517,14.6136c5.73,0,9.2838-1.63,12.6205-3.9509l-3.917-8.8497
			C27.4156,42.5385,25.1301,43.699,23.0277,43.699z"/>
		<path id="XMLID_1986_" d="M48.5771,21.8687v-4.0986H37.6974v35.5758h11.3507v-19.22c0-4.4234,2.4656-6.4195,6.4918-6.4195
			c2.0301,0,4.1694,0.437,5.6931,0.942l1.0512-11.3123c-0.8696-0.254-2.321-0.5463-3.9893-0.5463
			C53.9439,16.7898,50.6441,18.4227,48.5771,21.8687z"/>
		<rect id="XMLID_631_" x="66.6883" y="17.7701" width="11.3507" height="35.5758"/>
		<path id="XMLID_624_" d="M72.3091,0c-3.8446,0-6.7812,2.9735-6.7812,6.8181c0,3.8091,2.9366,6.7442,6.7812,6.7442
			c3.80759,0,6.7811-2.9351,6.7811-6.7442C79.0902,2.9735,76.1167,0,72.3091,0z"/>
		<path id="XMLID_570_" d="M107.0241,16.7898c-4.82349,0-8.0509,2.0315-10.1903,4.8249v-3.8446h-10.952v50.0801h11.3138V49.9738
			c2.1408,2.5394,5.259,4.3141,9.8285,4.3141c9.5007,0,16.5728-8.268,16.5728-18.783
			C123.5969,25.0607,116.5248,16.7898,107.0241,16.7898z M97.2472,35.496c0-4.1369,3.6261-7.6892,7.797-7.6892
			c4.134,0,7.7246,3.5523,7.7246,7.6892c0,4.2048-3.5906,7.8309-7.7246,7.8309C100.8733,43.3269,97.2472,39.7008,97.2472,35.496z"/>
		<path id="XMLID_564_" d="M195.3714,35.5683c0,1.163-0.07249,2.761-0.2189,3.5245h-24.168
			c0.9454,3.8884,3.7079,5.7054,7.63181,5.7054c2.65439,0,5.5249-1.089,7.77831-3.125l7.34039,6.8329
			c-3.70639,3.7079-9.1218,5.8504-15.7002,5.8504c-11.19321,0-18.7881-7.4484-18.7881-18.5692
			c0-11.2302,7.44991-19.01,18.28059-19.01C188.1021,16.7773,195.3345,24.4121,195.3714,35.5683z M171.0215,31.8989h12.9747
			c-0.90851-3.5629-3.1264-5.4538-6.4334-5.4538C174.03839,26.4451,171.89301,28.3715,171.0215,31.8989z"/>
		<path id="XMLID_533_" d="M235.6465,35.5683c0,1.163-0.07251,2.761-0.21901,3.5245h-24.168
			c0.94551,3.8884,3.7079,5.7054,7.63191,5.7054c2.65439,0,5.5248-1.089,7.77829-3.125l7.3403,6.8329
			c-3.70639,3.7079-9.1218,5.8504-15.7001,5.8504c-11.19328,0-18.78809-7.4484-18.78809-18.5692
			c0-11.2302,7.4498-19.01,18.28059-19.01C228.3772,16.7773,235.6095,24.4121,235.6465,35.5683z M211.29649,31.8989h12.9747
			c-0.9084-3.5629-3.1264-5.4538-6.4333-5.4538C214.3134,26.4451,212.168,28.3715,211.29649,31.8989z"/>
		<path id="XMLID_525_" d="M149.31999,35.524c0,4.2139-3.59839,7.8478-7.74139,7.8478c-4.1799,0-7.8138-3.6339-7.8138-7.8478
			c0-4.1459,3.6339-7.7059,7.8138-7.7059C145.7216,27.8181,149.31999,31.3781,149.31999,35.524z"/>
</symbol></svg>