<svg version="1.1" id="Layer_1" xmlns="http://www.w3.org/2000/svg" xmlns:xlink="http://www.w3.org/1999/xlink" x="0px" y="0px"
	 viewBox="0 0 22 32.543" enable-background="new 0 0 22 32.543" xml:space="preserve">
<g id="XMLID_69_">
	<path id="XMLID_87_" d="M11,6.5c-2.2056,0-4,1.7939-4,4s1.7944,4,4,4s4-1.7939,4-4S13.2056,6.5,11,6.5z M11,12.5
		c-1.103,0-2-0.8975-2-2s0.897-2,2-2s2,0.8975,2,2S12.103,12.5,11,12.5z"/>
	<path id="XMLID_90_" d="M11,0C4.9346,0,0,4.9346,0,11c0,5.751,9.7451,20.9004,10.1602,21.543h1.6797
		C12.2549,31.9004,22,16.751,22,11C22,4.9346,17.0654,0,11,0z M11,30.1328C7.8779,25.127,2,14.8994,2,11c0-4.9629,4.0376-9,9-9
		s9,4.0371,9,9C20,14.8994,14.1221,25.127,11,30.1328z"/>
</g>
</svg>
