<svg viewBox="0 0 22 22" version="1.1" xmlns="http://www.w3.org/2000/svg" xmlns:xlink="http://www.w3.org/1999/xlink">
    <path d="M11,2 C16,2 20,6 20,11 C20,16 16,20 11,20 C6,20 2,16 2,11 C2,6 6,2 11,2 L11,2 Z M11,0 C4.9,0 0,4.9 0,11 C0,17.1 4.9,22 11,22 C17.1,22 22,17.1 22,11 C22,4.9 17.1,0 11,0 L11,0 L11,0 Z"></path>
    <path d="M10.4,11 L7.6,13.8 L9,15.2 L11.8,12.4 L13.2,11 L11.8,9.6 L9,6.8 L7.6,8.2 L10.4,11 Z" transform="translate(10.400000, 11.000000) rotate(-180.000000) translate(-10.400000, -11.000000) "></path>
</svg>