<svg xmlns="http://www.w3.org/2000/svg" viewBox="0 0 489.3456 70.9814" preserveAspectRatio="xMinYMin meet" fill="#444"><path d="M316.667 36.748c0 10.886-7.32 19.443-17.154 19.443-4.993 0-8.333-2.026-10.548-4.917v3.942h-11.336V1.164h11.712V21.92c2.214-2.665 5.442-4.542 10.172-4.542 9.835 0 17.154 8.559 17.154 19.369zm-27.815.037c0 4.88 3.229 8.447 7.845 8.447 4.73 0 7.883-3.642 7.883-8.447 0-4.804-3.153-8.445-7.883-8.445-4.616 0-7.845 3.566-7.845 8.445zM334.724 55.216h-11.749V1.164h11.75v54.052zM380.97 36.785c0 11.149-8.483 19.406-20.006 19.406-11.487 0-19.97-8.257-19.97-19.406 0-11.148 8.483-19.406 19.97-19.406 11.523 0 20.007 8.258 20.007 19.406zm-27.964 0c0 4.955 3.379 8.447 7.958 8.447 4.617 0 7.995-3.492 7.995-8.447 0-4.954-3.378-8.445-7.995-8.445-4.58 0-7.958 3.491-7.958 8.445zM412.692 22.222v-3.829h11.374v33.294c0 12.087-7.92 19.294-19.97 19.294-6.156 0-12.424-1.577-16.816-4.692l4.167-9.347c3.604 2.553 7.47 3.754 11.823 3.754 4.768 0 9.273-2.628 9.273-8.483v-2.29c-2.178 2.778-5.405 4.655-10.136 4.655-9.872 0-17.079-8.145-17.079-18.581 0-10.435 7.207-18.618 17.08-18.618 4.842 0 8.107 1.99 10.284 4.843zm-15.239 13.775c0 4.467 3.152 7.883 7.732 7.883 4.43 0 7.507-3.34 7.507-7.883 0-4.541-3.078-7.882-7.507-7.882-4.58 0-7.732 3.378-7.732 7.882zM445.127 7.057c0 3.941-3.078 6.982-7.02 6.982-3.978 0-7.02-3.041-7.02-6.982 0-3.979 3.042-7.057 7.02-7.057 3.942 0 7.02 3.078 7.02 7.057zm-1.089 48.159h-11.749V18.393h11.749v36.823zM477.635 21.921V1.164h11.71v54.052H478.01v-3.979c-2.215 2.89-5.593 4.954-10.585 4.954-9.835 0-17.117-8.557-17.117-19.443 0-10.81 7.282-19.369 17.154-19.369 4.692 0 7.958 1.877 10.173 4.542zm-15.24 14.864c0 4.805 3.153 8.447 7.845 8.447 4.616 0 7.883-3.567 7.883-8.447 0-4.879-3.267-8.445-7.883-8.445-4.692 0-7.846 3.641-7.846 8.445zM23.785 45.252c-2.96 0-5.206-1.424-5.206-5.654V28.847h12.547V18.47H18.578V7.76H6.855v10.71H0v10.377h6.855v12.248c0 9.214 4.456 15.094 14.307 15.094 5.918 0 9.589-1.683 13.035-4.08l-4.046-9.141c-1.834 1.085-4.195 2.284-6.366 2.284zM50.174 22.704v-4.233H38.937v36.745H50.66V35.364c0-4.568 2.547-6.63 6.706-6.63 2.096 0 4.306.451 5.88.973l1.086-11.684c-.899-.263-2.398-.565-4.12-.565-4.495 0-7.903 1.687-10.038 5.246zM68.881 18.471h11.724v36.745H68.881zM74.686.117c-3.97 0-7.004 3.07-7.004 7.042 0 3.934 3.033 6.966 7.004 6.966 3.933 0 7.004-3.032 7.004-6.966 0-3.971-3.071-7.042-7.004-7.042zM110.542 17.458c-4.982 0-8.315 2.099-10.525 4.984V18.47H88.705v51.726h11.686V51.733c2.21 2.623 5.432 4.456 10.151 4.456 9.813 0 17.118-8.54 17.118-19.4 0-10.788-7.305-19.33-17.118-19.33zM100.444 36.78c0-4.273 3.745-7.942 8.053-7.942 4.27 0 7.979 3.67 7.979 7.942 0 4.343-3.709 8.089-7.979 8.089-4.308 0-8.053-3.745-8.053-8.089zM201.794 36.854c0 1.201-.075 2.852-.226 3.64h-24.963c.977 4.017 3.83 5.893 7.883 5.893 2.742 0 5.706-1.125 8.034-3.227l7.581 7.057c-3.828 3.83-9.421 6.043-16.216 6.043-11.561 0-19.405-7.693-19.405-19.18 0-11.6 7.694-19.635 18.881-19.635 10.923 0 18.393 7.886 18.43 19.41zm-25.15-3.79h13.4c-.938-3.68-3.229-5.633-6.644-5.633-3.64 0-5.856 1.99-6.757 5.633zM243.393 36.854c0 1.201-.075 2.852-.226 3.64h-24.963c.977 4.017 3.83 5.893 7.883 5.893 2.742 0 5.706-1.125 8.034-3.227l7.581 7.057c-3.828 3.83-9.421 6.043-16.216 6.043-11.561 0-19.405-7.693-19.405-19.18 0-11.6 7.694-19.635 18.881-19.635 10.923 0 18.393 7.886 18.43 19.41zm-25.15-3.79h13.4c-.938-3.68-3.229-5.633-6.644-5.633-3.64 0-5.856 1.99-6.756 5.633zM154.229 36.808c0 4.353-3.717 8.106-7.996 8.106-4.318 0-8.07-3.753-8.07-8.106 0-4.282 3.752-7.959 8.07-7.959 4.279 0 7.996 3.677 7.996 7.96z"/></svg>