<svg xmlns="http://www.w3.org/2000/svg" viewBox="0 0 235.6465 67.8503" fill="#fff"><path d="M23.028 43.699c-2.866 0-5.04-1.379-5.04-5.475V27.816h12.147V17.77H17.987V7.4H6.637v10.37H0v10.046h6.636v11.858c0 8.92 4.315 14.614 13.852 14.614 5.73 0 9.284-1.63 12.62-3.951l-3.916-8.85c-1.776 1.051-4.062 2.212-6.164 2.212zM48.577 21.869V17.77h-10.88v35.576h11.351v-19.22c0-4.423 2.466-6.42 6.492-6.42 2.03 0 4.17.437 5.693.942l1.051-11.312a14.783 14.783 0 0 0-3.99-.546c-4.35 0-7.65 1.633-9.717 5.079zM66.688 17.77h11.351v35.576H66.688zM72.31 0c-3.846 0-6.782 2.974-6.782 6.818 0 3.81 2.936 6.744 6.781 6.744 3.808 0 6.781-2.935 6.781-6.744C79.09 2.974 76.117 0 72.31 0zM107.024 16.79c-4.823 0-8.05 2.031-10.19 4.825V17.77H85.882v50.08h11.314V49.974c2.14 2.54 5.259 4.314 9.828 4.314 9.5 0 16.573-8.268 16.573-18.783 0-10.444-7.072-18.715-16.573-18.715zm-9.777 18.706c0-4.137 3.626-7.69 7.797-7.69 4.134 0 7.725 3.553 7.725 7.69 0 4.205-3.59 7.83-7.725 7.83-4.17 0-7.797-3.625-7.797-7.83z"/><g><path d="M195.371 35.568c0 1.163-.072 2.761-.219 3.525h-24.167c.945 3.888 3.707 5.705 7.631 5.705 2.655 0 5.525-1.089 7.779-3.125l7.34 6.833c-3.706 3.708-9.122 5.85-15.7 5.85-11.193 0-18.788-7.448-18.788-18.569 0-11.23 7.45-19.01 18.28-19.01 10.575 0 17.808 7.635 17.844 18.791zm-24.35-3.67h12.975c-.908-3.562-3.126-5.453-6.433-5.453-3.525 0-5.67 1.927-6.541 5.454zM235.647 35.568c0 1.163-.073 2.761-.22 3.525H211.26c.946 3.888 3.708 5.705 7.632 5.705 2.655 0 5.525-1.089 7.779-3.125l7.34 6.833c-3.706 3.708-9.122 5.85-15.7 5.85-11.193 0-18.788-7.448-18.788-18.569 0-11.23 7.45-19.01 18.28-19.01 10.575 0 17.808 7.635 17.845 18.791zm-24.35-3.67h12.974c-.908-3.562-3.126-5.453-6.433-5.453-3.525 0-5.67 1.927-6.542 5.454z"/></g><g><path d="M149.32 35.524c0 4.214-3.598 7.848-7.741 7.848-4.18 0-7.814-3.634-7.814-7.848 0-4.146 3.634-7.706 7.814-7.706 4.143 0 7.741 3.56 7.741 7.706z"/></g></svg>