<svg xmlns="http://www.w3.org/2000/svg" xmlns:xlink="http://www.w3.org/1999/xlink"><defs><style>
    .sprite-symbol-usage {display: none;}
    .sprite-symbol-usage:target {display: inline;}
  </style><symbol viewBox="0 0 22 22" id="icon-arrow-left"><path d="M11 2c5 0 9 4 9 9s-4 9-9 9-9-4-9-9 4-9 9-9zm0-2C4.9 0 0 4.9 0 11s4.9 11 11 11 11-4.9 11-11S17.1 0 11 0z" /><path d="M10.4 11l2.8-2.8-1.4-1.4L9 9.6 7.6 11 9 12.4l2.8 2.8 1.4-1.4-2.8-2.8z" /></symbol><symbol viewBox="0 0 22 22" id="icon-arrow-right"><path d="M11 2c5 0 9 4 9 9s-4 9-9 9-9-4-9-9 4-9 9-9m0-2C4.9 0 0 4.9 0 11s4.9 11 11 11 11-4.9 11-11S17.1 0 11 0z" /><path d="M11.4 11l-2.8 2.8 1.4 1.4 2.8-2.8 1.4-1.4-1.4-1.4L10 6.8 8.6 8.2z" /></symbol><symbol viewBox="0 0 18 18" id="icon-close"><path d="M0 0h18v18H0zm0 0h18v18H0z" fill="none" /><path d="M14.53 4.53l-1.06-1.06L9 7.94 4.53 3.47 3.47 4.53 7.94 9l-4.47 4.47 1.06 1.06L9 10.06l4.47 4.47 1.06-1.06L10.06 9z" /></symbol><symbol viewBox="0 0 33.9995 32.7612" id="icon-comment"><path d="M33 0H14.404l-1 1v3H1L0 5v20.965l1 1h3v5.037l1.65.76 6.757-5.797H31l1-1V14.338h1l1-1V1l-1-1zm-3 24.965H12.037l-.65.241L6 29.828v-3.862l-1-1H2V6h11.405v7.338l1 1h3v2.942l1.652.759 4.313-3.701H30v10.627zm2-12.627h-9l-.651.241-2.944 2.525v-1.766l-1-1h-3V2H32v10.338z" /></symbol><symbol preserveAspectRatio="xMidYMid" viewBox="0 0 12.56 24" id="icon-facebook"><path d="M3.242 13.597v10.359l5.211.04-.021-10.43 3.219-.02.898-4.496h-4.12V5.73c0-.447.178-1.247.905-1.247l2.4.04-.081-4.497-4.75-.02c-1.626 0-3.659 2.077-3.659 4.2l-.04 4.82-3.19.06v4.492l3.228.019z" /></symbol><symbol viewBox="0 0 18 18" id="icon-menu"><path d="M0 0h18v18H0z" fill="none" /><path d="M2 13.5h14V12H2v1.5zm0-4h14V8H2v1.5zM2 4v1.5h14V4H2z" /></symbol><symbol viewBox="0 0 22 32.543" id="icon-pin"><path d="M11 6.5c-2.206 0-4 1.794-4 4s1.794 4 4 4 4-1.794 4-4-1.794-4-4-4zm0 6c-1.103 0-2-.897-2-2s.897-2 2-2 2 .897 2 2-.897 2-2 2z" /><path d="M11 0C4.935 0 0 4.935 0 11c0 5.751 9.745 20.9 10.16 21.543h1.68C12.255 31.9 22 16.751 22 11c0-6.065-4.935-11-11-11zm0 30.133C7.878 25.127 2 14.899 2 11c0-4.963 4.038-9 9-9s9 4.037 9 9c0 3.9-5.878 14.127-9 19.133z" /></symbol><symbol viewBox="0 0 24 24" id="icon-rss"><path d="M3.194 17.6A3.199 3.199 0 0 0 0 20.789a3.187 3.187 0 0 0 3.194 3.183 3.187 3.187 0 0 0 3.199-3.183A3.199 3.199 0 0 0 3.194 17.6zM.004 8.155v4.6a11.15 11.15 0 0 1 7.933 3.293A11.17 11.17 0 0 1 11.225 24h4.62c0-8.738-7.108-15.845-15.841-15.845zM.009 0v4.602c10.682 0 19.377 8.703 19.377 19.398H24C24 10.77 13.236 0 .009 0z" /></symbol><symbol viewBox="0 0 18.5 18.5" id="icon-search"><path d="M18.5 17.1l-5.9-5.9C13.5 10 14 8.6 14 7c0-3.9-3.1-7-7-7S0 3.1 0 7s3.1 7 7 7c1.6 0 3-.5 4.2-1.4l5.9 5.9 1.4-1.4zM2 7c0-2.8 2.2-5 5-5s5 2.2 5 5-2.2 5-5 5-5-2.2-5-5z" /></symbol><symbol viewBox="0 0 31.3965 29.9223" id="icon-star-filled"><path d="M24.503 29.922l-8.805-4.63-8.805 4.63-1.45-1.054 1.68-9.805L0 12.12l.555-1.706 9.844-1.462L14.802 0h1.793l4.403 8.952 9.844 1.446.555 1.714-7.124 6.947 1.681 9.807-1.451 1.056z" /></symbol><symbol viewBox="0 0 31.3965 29.9223" id="icon-star"><path d="M24.503 29.922l-8.805-4.63-8.805 4.63-1.45-1.054 1.68-9.805L0 12.12l.555-1.706 9.844-1.462L14.802 0h1.793l4.403 8.952 9.844 1.446.555 1.714-7.124 6.947 1.681 9.807-1.451 1.056zM15.233 23h.931l7.477 4.07-1.428-8.257.287-.85 6.049-5.879-8.359-1.205-.753-.543-3.739-7.573-3.738 7.576-.753.548-8.36 1.214 6.05 5.896.287.886-1.428 8.187L15.232 23z" /></symbol><symbol viewBox="-560.3701 263.4485 31.9707 28" id="icon-thumb-down"><path d="M-528.4 280.206l-4-16-.97-.758h-27v20h10.45v-1h2.278l1.721 5.163v2.838l1 1h6l1-1-.038-3.275-1.636-5.725h10.226l.97-1.243zm-29.97 1.243v-16h6.45v16m17.77-16l.508 2.033h-1.383v2h1.883l.5 2h-1.308v2h1.808l.5 2h-1.274v2h1.774l.492 1.967h-10.27l-.963 1.274 1.962 6.866v1.86h-4v-2l-.052-.317-2-6-.948-.683h-3v-15h15.77z" /></symbol><symbol viewBox="-560.3701 262.4485 31.9707 29" id="icon-thumb-up"><path d="M-529.37 272.449h-10.225l1.636-5.726.038-3.274-1-1h-6l-1 1v2.837l-1.72 5.163H-560.372v20h10.45v-1h16.552l.97-.758 4-16-.97-1.242zm-29 17v-16h6.45v16h-6.45zm8.45-1v-15h3l.947-.684 2-6 .052-.316v-2h4v1.86l-1.962 6.865.962 1.275h10.27l-.491 1.966h-1.774v2h1.274l-.5 2h-1.808v2h1.308l-.5 2h-1.883v2h1.383l-.508 2.033h-15.77z" /></symbol><symbol viewBox="0 0 26.5967 34.1455" id="icon-tickets"><path d="M24.033 5.345l-5.365-.564-.118-1.118L15.151 0 2.563 1.323 0 5.613l2.576 24.512 3.146-.33-.252 2.401 18.55 1.95 2.577-24.513-2.564-4.288zM7.668 30.417l.088-.836 13.371-1.406-2.245-21.36 3.948.414 1.708 2.858-2.297 21.861-14.573-1.531zm6.698-28.323l2.265 2.44 2.298 21.861-14.573 1.532L2.06 6.067l1.708-2.859 10.6-1.114z" /><path d="M7.61 8.94a2.957 2.957 0 0 0 2.185.648A2.961 2.961 0 0 0 11.8 8.5a2.96 2.96 0 0 0 .648-2.187A2.96 2.96 0 0 0 11.36 4.31a2.948 2.948 0 0 0-2.186-.648A2.961 2.961 0 0 0 7.169 4.75c-.501.619-.731 1.395-.648 2.186A2.96 2.96 0 0 0 7.609 8.94zM8.722 6.01a.973.973 0 0 1 .763-.363c.223 0 .438.076.614.218.204.165.33.399.358.659.027.26-.048.515-.213.718s-.398.33-.659.358a.974.974 0 0 1-1.076-.871.973.973 0 0 1 .213-.72z" /></symbol><symbol preserveAspectRatio="xMidYMid" viewBox="0 0 27.06 22" id="icon-twitter"><path d="M27.069 2.604c-.997.442-2.066.741-3.19.875A5.57 5.57 0 0 0 26.321.407a11.184 11.184 0 0 1-3.528 1.348 5.556 5.556 0 0 0-9.466 5.064A15.768 15.768 0 0 1 1.878 1.015a5.525 5.525 0 0 0-.751 2.793c0 1.927.98 3.627 2.47 4.623a5.542 5.542 0 0 1-2.516-.696v.07a5.562 5.562 0 0 0 4.455 5.447 5.59 5.59 0 0 1-2.509.094 5.563 5.563 0 0 0 5.188 3.859 11.147 11.147 0 0 1-6.899 2.377c-.448 0-.89-.027-1.325-.078A15.725 15.725 0 0 0 8.506 22c10.217 0 15.805-8.464 15.805-15.805 0-.24-.006-.48-.017-.719a11.272 11.272 0 0 0 2.771-2.875l.004.003z" /></symbol><symbol viewBox="0 0 150 72.2" id="tripee_logo"><g fill="#fff"><path d="M49.2 38.7c-.8 0-1.4-.4-1.4-1.5v-2.8h3.3v-2.7h-3.3v-2.8h-3.1v2.8H43v2.7h1.8v3.2c0 2.4 1.2 4 3.8 4 1.6 0 2.5-.4 3.4-1.1l-1.1-2.4c-.5.3-1.1.6-1.7.6zM56.2 32.8v-1.1h-3v9.7h3.1v-5.2c0-1.2.7-1.7 1.8-1.7.6 0 1.1.1 1.5.3l.3-3.1c-.2-.1-.6-.1-1.1-.1-1.2-.2-2.1.3-2.6 1.2zM61.1 31.7h3.1v9.7h-3.1zM62.6 26.9c-1 0-1.8.8-1.8 1.9 0 1 .8 1.8 1.8 1.8s1.8-.8 1.8-1.8c.1-1.1-.7-1.9-1.8-1.9zM72.1 31.4c-1.3 0-2.2.6-2.8 1.3v-1h-3v13.6h3.1v-4.9c.6.7 1.4 1.2 2.7 1.2 2.6 0 4.5-2.2 4.5-5.1 0-2.8-2-5.1-4.5-5.1zm-2.7 5.1c0-1.1 1-2.1 2.1-2.1s2.1 1 2.1 2.1-1 2.1-2.1 2.1-2.1-.9-2.1-2.1z" /></g><g fill="#fff"><path d="M96.1 36.5c0 .3 0 .8-.1 1h-6.6c.3 1.1 1 1.6 2.1 1.6.7 0 1.5-.3 2.1-.8l2 1.9c-1 1-2.5 1.6-4.3 1.6-3 0-5.1-2-5.1-5 0-3.1 2-5.2 5-5.2 2.9-.2 4.9 1.9 4.9 4.9zm-6.6-1H93c-.2-1-.9-1.5-1.7-1.5-1 .1-1.6.6-1.8 1.5zM107 36.5c0 .3 0 .8-.1 1h-6.6c.3 1.1 1 1.6 2.1 1.6.7 0 1.5-.3 2.1-.8l2 1.9c-1 1-2.5 1.6-4.3 1.6-3 0-5.1-2-5.1-5 0-3.1 2-5.2 5-5.2 3-.2 4.9 1.9 4.9 4.9zm-6.6-1h3.5c-.2-1-.9-1.5-1.7-1.5-1 .1-1.5.6-1.8 1.5z" /></g><path fill="#fff" d="M83.6 36.5c0 1.1-1 2.1-2.1 2.1s-2.1-1-2.1-2.1 1-2.1 2.1-2.1 2.1 1 2.1 2.1z" /><path fill="#4AC9E3" d="M110.5 57.3c0 1.1-1 2.1-2.1 2.1s-2.1-1-2.1-2.1 1-2.1 2.1-2.1 2.1 1 2.1 2.1z" /><path fill="#FFCE33" d="M41 7.1c0 1.1-1 2.1-2.1 2.1s-2.1-1-2.1-2.1 1-2.1 2.1-2.1S41 6 41 7.1z" /><path fill="#8EDD65" d="M58.1 8.8c0 1.1-1 2.1-2.1 2.1s-2.1-1-2.1-2.1 1-2.1 2.1-2.1c1.2 0 2.1 1 2.1 2.1z" /><path fill="#FF5050" d="M40.7 2.1c0 1.1-1 2.1-2.1 2.1s-2.1-1-2.1-2.1 1-2.1 2.1-2.1 2.1 1 2.1 2.1z" /><path fill="#FF9A3E" d="M30.6 6.8c0 1.1-1 2.1-2.1 2.1s-2.1-1-2.1-2.1 1-2.1 2.1-2.1 2.1 1 2.1 2.1z" /><path fill="#8B84D7" d="M20.8 14.2c0 1.1-1 2.1-2.1 2.1s-2.1-1-2.1-2.1 1-2.1 2.1-2.1 2.1.9 2.1 2.1z" /><path fill="#FF5050" d="M15.1 21.8c0 1.1-1 2.1-2.1 2.1s-2.1-1-2.1-2.1 1-2.1 2.1-2.1 2.1 1 2.1 2.1z" /><path fill="#FF9A3E" d="M12.4 30.3c0 1.1-1 2.1-2.1 2.1s-2.1-1-2.1-2.1 1-2.1 2.1-2.1 2.1 1 2.1 2.1z" /><path fill="#8EDD65" d="M4.2 33.4c0 1.1-1 2.1-2.1 2.1S0 34.5 0 33.4s1-2.1 2.1-2.1c1.2 0 2.1.9 2.1 2.1z" /><path fill="#FFCE33" d="M29.4 28.7c0 1.1-1 2.1-2.1 2.1s-2.1-1-2.1-2.1 1-2.1 2.1-2.1c1.2 0 2.1 1 2.1 2.1z" /><path fill="#8B84D7" d="M39.8 34.9c0 1.1-1 2.1-2.1 2.1s-2.1-1-2.1-2.1 1-2.1 2.1-2.1 2.1 1 2.1 2.1z" /><path fill="#4AC9E3" d="M25.5 16.4c0 1.1-1 2.1-2.1 2.1s-2.1-1-2.1-2.1 1-2.1 2.1-2.1c1.2 0 2.1 1 2.1 2.1z" /><g><path fill="#8EDD65" d="M12.7 14.1c0 1.1-1 2.1-2.1 2.1s-2.1-1-2.1-2.1 1-2.1 2.1-2.1 2.1 1 2.1 2.1z" /></g><g><path fill="#FF5050" d="M150 70c0 1.1-1 2.1-2.1 2.1s-2.1-1-2.1-2.1 1-2.1 2.1-2.1 2.1 1 2.1 2.1z" /></g></symbol><symbol viewBox="0 0 150 72.2" id="tripee_logo_dark"><g fill="#444"><path d="M49.2 38.7c-.8 0-1.4-.4-1.4-1.5v-2.8h3.3v-2.7h-3.3v-2.8h-3.1v2.8H43v2.7h1.8v3.2c0 2.4 1.2 4 3.8 4 1.6 0 2.5-.4 3.4-1.1l-1.1-2.4c-.5.3-1.1.6-1.7.6zM56.2 32.8v-1.1h-3v9.7h3.1v-5.2c0-1.2.7-1.7 1.8-1.7.6 0 1.1.1 1.5.3l.3-3.1c-.2-.1-.6-.1-1.1-.1-1.2-.2-2.1.3-2.6 1.2zM61.1 31.7h3.1v9.7h-3.1zM62.6 26.9c-1 0-1.8.8-1.8 1.9 0 1 .8 1.8 1.8 1.8s1.8-.8 1.8-1.8c.1-1.1-.7-1.9-1.8-1.9zM72.1 31.4c-1.3 0-2.2.6-2.8 1.3v-1h-3v13.6h3.1v-4.9c.6.7 1.4 1.2 2.7 1.2 2.6 0 4.5-2.2 4.5-5.1 0-2.8-2-5.1-4.5-5.1zm-2.7 5.1c0-1.1 1-2.1 2.1-2.1s2.1 1 2.1 2.1-1 2.1-2.1 2.1-2.1-.9-2.1-2.1z" /></g><g fill="#444"><path d="M96.1 36.5c0 .3 0 .8-.1 1h-6.6c.3 1.1 1 1.6 2.1 1.6.7 0 1.5-.3 2.1-.8l2 1.9c-1 1-2.5 1.6-4.3 1.6-3 0-5.1-2-5.1-5 0-3.1 2-5.2 5-5.2 2.9-.2 4.9 1.9 4.9 4.9zm-6.6-1H93c-.2-1-.9-1.5-1.7-1.5-1 .1-1.6.6-1.8 1.5zM107 36.5c0 .3 0 .8-.1 1h-6.6c.3 1.1 1 1.6 2.1 1.6.7 0 1.5-.3 2.1-.8l2 1.9c-1 1-2.5 1.6-4.3 1.6-3 0-5.1-2-5.1-5 0-3.1 2-5.2 5-5.2 3-.2 4.9 1.9 4.9 4.9zm-6.6-1h3.5c-.2-1-.9-1.5-1.7-1.5-1 .1-1.5.6-1.8 1.5z" /></g><path fill="#444" d="M83.6 36.5c0 1.1-1 2.1-2.1 2.1s-2.1-1-2.1-2.1 1-2.1 2.1-2.1 2.1 1 2.1 2.1z" /><path fill="#4AC9E3" d="M110.5 57.3c0 1.1-1 2.1-2.1 2.1s-2.1-1-2.1-2.1 1-2.1 2.1-2.1 2.1 1 2.1 2.1z" /><path fill="#FFCE33" d="M41 7.1c0 1.1-1 2.1-2.1 2.1s-2.1-1-2.1-2.1 1-2.1 2.1-2.1S41 6 41 7.1z" /><path fill="#8EDD65" d="M58.1 8.8c0 1.1-1 2.1-2.1 2.1s-2.1-1-2.1-2.1 1-2.1 2.1-2.1c1.2 0 2.1 1 2.1 2.1z" /><path fill="#FF5050" d="M40.7 2.1c0 1.1-1 2.1-2.1 2.1s-2.1-1-2.1-2.1 1-2.1 2.1-2.1 2.1 1 2.1 2.1z" /><path fill="#FF9A3E" d="M30.6 6.8c0 1.1-1 2.1-2.1 2.1s-2.1-1-2.1-2.1 1-2.1 2.1-2.1 2.1 1 2.1 2.1z" /><path fill="#8B84D7" d="M20.8 14.2c0 1.1-1 2.1-2.1 2.1s-2.1-1-2.1-2.1 1-2.1 2.1-2.1 2.1.9 2.1 2.1z" /><path fill="#FF5050" d="M15.1 21.8c0 1.1-1 2.1-2.1 2.1s-2.1-1-2.1-2.1 1-2.1 2.1-2.1 2.1 1 2.1 2.1z" /><path fill="#FF9A3E" d="M12.4 30.3c0 1.1-1 2.1-2.1 2.1s-2.1-1-2.1-2.1 1-2.1 2.1-2.1 2.1 1 2.1 2.1z" /><path fill="#8EDD65" d="M4.2 33.4c0 1.1-1 2.1-2.1 2.1S0 34.5 0 33.4s1-2.1 2.1-2.1c1.2 0 2.1.9 2.1 2.1z" /><path fill="#FFCE33" d="M29.4 28.7c0 1.1-1 2.1-2.1 2.1s-2.1-1-2.1-2.1 1-2.1 2.1-2.1c1.2 0 2.1 1 2.1 2.1z" /><path fill="#8B84D7" d="M39.8 34.9c0 1.1-1 2.1-2.1 2.1s-2.1-1-2.1-2.1 1-2.1 2.1-2.1 2.1 1 2.1 2.1z" /><path fill="#4AC9E3" d="M25.5 16.4c0 1.1-1 2.1-2.1 2.1s-2.1-1-2.1-2.1 1-2.1 2.1-2.1c1.2 0 2.1 1 2.1 2.1z" /><g><path fill="#8EDD65" d="M12.7 14.1c0 1.1-1 2.1-2.1 2.1s-2.1-1-2.1-2.1 1-2.1 2.1-2.1 2.1 1 2.1 2.1z" /></g><g><path fill="#FF5050" d="M150 70c0 1.1-1 2.1-2.1 2.1s-2.1-1-2.1-2.1 1-2.1 2.1-2.1 2.1 1 2.1 2.1z" /></g></symbol><symbol viewBox="0 0 235.6465 67.8503" id="tripee_logo_plain"><path d="M23.028 43.699c-2.866 0-5.04-1.379-5.04-5.475V27.816h12.147V17.77H17.987V7.4H6.637v10.37H0v10.046h6.636v11.858c0 8.92 4.315 14.614 13.852 14.614 5.73 0 9.284-1.63 12.62-3.951l-3.916-8.85c-1.776 1.051-4.062 2.212-6.164 2.212zM48.577 21.869V17.77h-10.88v35.576h11.351v-19.22c0-4.423 2.466-6.42 6.492-6.42 2.03 0 4.17.437 5.693.942l1.051-11.312a14.783 14.783 0 0 0-3.99-.546c-4.35 0-7.65 1.633-9.717 5.079zM66.688 17.77h11.351v35.576H66.688zM72.31 0c-3.846 0-6.782 2.974-6.782 6.818 0 3.81 2.936 6.744 6.781 6.744 3.808 0 6.781-2.935 6.781-6.744C79.09 2.974 76.117 0 72.31 0zM107.024 16.79c-4.823 0-8.05 2.031-10.19 4.825V17.77H85.882v50.08h11.314V49.974c2.14 2.54 5.259 4.314 9.828 4.314 9.5 0 16.573-8.268 16.573-18.783 0-10.444-7.072-18.715-16.573-18.715zm-9.777 18.706c0-4.137 3.626-7.69 7.797-7.69 4.134 0 7.725 3.553 7.725 7.69 0 4.205-3.59 7.83-7.725 7.83-4.17 0-7.797-3.625-7.797-7.83z" /><g><path d="M195.371 35.568c0 1.163-.072 2.761-.219 3.525h-24.167c.945 3.888 3.707 5.705 7.631 5.705 2.655 0 5.525-1.089 7.779-3.125l7.34 6.833c-3.706 3.708-9.122 5.85-15.7 5.85-11.193 0-18.788-7.448-18.788-18.569 0-11.23 7.45-19.01 18.28-19.01 10.575 0 17.808 7.635 17.844 18.791zm-24.35-3.67h12.975c-.908-3.562-3.126-5.453-6.433-5.453-3.525 0-5.67 1.927-6.541 5.454zM235.647 35.568c0 1.163-.073 2.761-.22 3.525H211.26c.946 3.888 3.708 5.705 7.632 5.705 2.655 0 5.525-1.089 7.779-3.125l7.34 6.833c-3.706 3.708-9.122 5.85-15.7 5.85-11.193 0-18.788-7.448-18.788-18.569 0-11.23 7.45-19.01 18.28-19.01 10.575 0 17.808 7.635 17.845 18.791zm-24.35-3.67h12.974c-.908-3.562-3.126-5.453-6.433-5.453-3.525 0-5.67 1.927-6.542 5.454z" /></g><g><path d="M149.32 35.524c0 4.214-3.598 7.848-7.741 7.848-4.18 0-7.814-3.634-7.814-7.848 0-4.146 3.634-7.706 7.814-7.706 4.143 0 7.741 3.56 7.741 7.706z" /></g></symbol><symbol viewBox="0 0 235.6465 67.8503" preserveAspectRatio="xMinYMin meet" id="tripee_logo_plain_dark"><path d="M23.028 43.699c-2.866 0-5.04-1.379-5.04-5.475V27.816h12.147V17.77H17.987V7.4H6.637v10.37H0v10.046h6.636v11.858c0 8.92 4.315 14.614 13.852 14.614 5.73 0 9.284-1.63 12.62-3.951l-3.916-8.85c-1.776 1.051-4.062 2.212-6.164 2.212zM48.577 21.869V17.77h-10.88v35.576h11.351v-19.22c0-4.423 2.466-6.42 6.492-6.42 2.03 0 4.17.437 5.693.942l1.051-11.312a14.783 14.783 0 0 0-3.99-.546c-4.35 0-7.65 1.633-9.717 5.079zM66.688 17.77h11.351v35.576H66.688zM72.31 0c-3.846 0-6.782 2.974-6.782 6.818 0 3.81 2.936 6.744 6.781 6.744 3.808 0 6.781-2.935 6.781-6.744C79.09 2.974 76.117 0 72.31 0zM107.024 16.79c-4.823 0-8.05 2.031-10.19 4.825V17.77H85.882v50.08h11.314V49.974c2.14 2.54 5.259 4.314 9.828 4.314 9.5 0 16.573-8.268 16.573-18.783 0-10.444-7.072-18.715-16.573-18.715zm-9.777 18.706c0-4.137 3.626-7.69 7.797-7.69 4.134 0 7.725 3.553 7.725 7.69 0 4.205-3.59 7.83-7.725 7.83-4.17 0-7.797-3.625-7.797-7.83zM195.371 35.568c0 1.163-.072 2.761-.219 3.525h-24.167c.945 3.888 3.707 5.705 7.631 5.705 2.655 0 5.525-1.089 7.779-3.125l7.34 6.833c-3.706 3.708-9.122 5.85-15.7 5.85-11.193 0-18.788-7.448-18.788-18.569 0-11.23 7.45-19.01 18.28-19.01 10.575 0 17.808 7.635 17.844 18.791zm-24.35-3.67h12.975c-.908-3.562-3.126-5.453-6.433-5.453-3.525 0-5.67 1.927-6.541 5.454zM235.647 35.568c0 1.163-.073 2.761-.22 3.525H211.26c.946 3.888 3.708 5.705 7.632 5.705 2.655 0 5.525-1.089 7.779-3.125l7.34 6.833c-3.706 3.708-9.122 5.85-15.7 5.85-11.193 0-18.788-7.448-18.788-18.569 0-11.23 7.45-19.01 18.28-19.01 10.575 0 17.808 7.635 17.845 18.791zm-24.35-3.67h12.974c-.908-3.562-3.126-5.453-6.433-5.453-3.525 0-5.67 1.927-6.542 5.454zM149.32 35.524c0 4.214-3.598 7.848-7.741 7.848-4.18 0-7.814-3.634-7.814-7.848 0-4.146 3.634-7.706 7.814-7.706 4.143 0 7.741 3.56 7.741 7.706z" /></symbol></defs><use id="icon-arrow-left-usage" xlink:href="#icon-arrow-left" class="sprite-symbol-usage" /><use id="icon-arrow-right-usage" xlink:href="#icon-arrow-right" class="sprite-symbol-usage" /><use id="icon-close-usage" xlink:href="#icon-close" class="sprite-symbol-usage" /><use id="icon-comment-usage" xlink:href="#icon-comment" class="sprite-symbol-usage" /><use id="icon-facebook-usage" xlink:href="#icon-facebook" class="sprite-symbol-usage" /><use id="icon-menu-usage" xlink:href="#icon-menu" class="sprite-symbol-usage" /><use id="icon-pin-usage" xlink:href="#icon-pin" class="sprite-symbol-usage" /><use id="icon-rss-usage" xlink:href="#icon-rss" class="sprite-symbol-usage" /><use id="icon-search-usage" xlink:href="#icon-search" class="sprite-symbol-usage" /><use id="icon-star-filled-usage" xlink:href="#icon-star-filled" class="sprite-symbol-usage" /><use id="icon-star-usage" xlink:href="#icon-star" class="sprite-symbol-usage" /><use id="icon-thumb-down-usage" xlink:href="#icon-thumb-down" class="sprite-symbol-usage" /><use id="icon-thumb-up-usage" xlink:href="#icon-thumb-up" class="sprite-symbol-usage" /><use id="icon-tickets-usage" xlink:href="#icon-tickets" class="sprite-symbol-usage" /><use id="icon-twitter-usage" xlink:href="#icon-twitter" class="sprite-symbol-usage" /><use id="tripee_logo-usage" xlink:href="#tripee_logo" class="sprite-symbol-usage" /><use id="tripee_logo_dark-usage" xlink:href="#tripee_logo_dark" class="sprite-symbol-usage" /><use id="tripee_logo_plain-usage" xlink:href="#tripee_logo_plain" class="sprite-symbol-usage" /><use id="tripee_logo_plain_dark-usage" xlink:href="#tripee_logo_plain_dark" class="sprite-symbol-usage" /></svg>