<?xml version="1.0" encoding="utf-8"?>
<!-- Generator: Adobe Illustrator 16.0.0, SVG Export Plug-In . SVG Version: 6.00 Build 0)  -->
<!DOCTYPE svg PUBLIC "-//W3C//DTD SVG 1.1//EN" "http://www.w3.org/Graphics/SVG/1.1/DTD/svg11.dtd">
<svg version="1.1" id="Layer_1" xmlns="http://www.w3.org/2000/svg" xmlns:xlink="http://www.w3.org/1999/xlink" x="0px" y="0px"
	 width="100px" height="100px" viewBox="0 0 100 100" enable-background="new 0 0 100 100" xml:space="preserve">
<g>
	<path d="M-62.925-87.389h-6.44c-3.049,0-5.53,2.481-5.53,5.53v20.59c0,3.049,2.481,5.53,5.53,5.53h6.44
		c3.049,0,5.53-2.481,5.53-5.53v-20.59C-57.395-84.908-59.876-87.389-62.925-87.389z M-60.895-61.269c0,1.12-0.911,2.03-2.03,2.03
		h-6.44c-1.12,0-2.03-0.911-2.03-2.03v-20.59c0-1.12,0.911-2.03,2.03-2.03h6.44c1.12,0,2.03,0.911,2.03,2.03V-61.269z"/>
	<path d="M-85.875-87.23h-19.04c-3.297,0-5.98,2.683-5.98,5.98v0.207c0,3.297,2.683,5.98,5.98,5.98h19.04
		c3.297,0,5.98-2.683,5.98-5.98v-0.207C-79.896-84.547-82.578-87.23-85.875-87.23z M-83.396-81.043c0,1.368-1.112,2.48-2.48,2.48
		h-19.04c-1.368,0-2.48-1.112-2.48-2.48v-0.207c0-1.368,1.112-2.48,2.48-2.48h19.04c1.368,0,2.48,1.112,2.48,2.48V-81.043z"/>
	<path d="M-22.062-58.98c0-0.966-0.784-1.75-1.75-1.75s-1.75,0.784-1.75,1.75v6.683h-24.375c1.263-1.576,2.023-3.571,2.023-5.743
		v-27.982c0-5.077-4.13-9.207-9.207-9.207h-50.901c-5.077,0-9.207,4.13-9.207,9.207v27.982c0,5.077,4.13,9.207,9.207,9.207h1.857
		h3.541c-0.067-0.317-0.104-0.644-0.104-0.98c0-0.928,0.278-1.787,0.739-2.52c0.842-1.335,2.319-2.23,4.011-2.23
		s3.169,0.896,4.011,2.23c0.461,0.732,0.739,1.592,0.739,2.52c0,0.336-0.038,0.664-0.104,0.98h3.541h2.628h3.541
		c-0.067-0.317-0.104-0.644-0.104-0.98c0-0.928,0.278-1.787,0.739-2.52c0.842-1.335,2.319-2.23,4.011-2.23s3.169,0.896,4.011,2.23
		c0.461,0.732,0.739,1.592,0.739,2.52c0,0.336-0.038,0.664-0.104,0.98h3.541h6.459c0.115,0.023,0.233,0.036,0.354,0.036h30.417
		v2.317c0,0.966,0.784,1.75,1.75,1.75s1.75-0.784,1.75-1.75v-2.317h6.083c0.68,0,1.263-0.393,1.553-0.959
		c0.226-0.294,0.364-0.658,0.364-1.057V-58.98z M-71.126-52.333c-1.068-3.32-4.183-5.73-7.853-5.73s-6.785,2.411-7.853,5.73h-3.294
		c-1.068-3.32-4.183-5.73-7.853-5.73s-6.785,2.411-7.853,5.73h-2.19c-3.147,0-5.707-2.56-5.707-5.707v-27.982
		c0-3.147,2.56-5.707,5.707-5.707h50.901c3.146,0,5.707,2.56,5.707,5.707v27.982c0,3.147-2.56,5.707-5.707,5.707H-71.126z"/>
	<circle cx="-97.962" cy="-49.679" r="3.167"/>
	<circle cx="-78.962" cy="-49.679" r="3.167"/>
	<circle cx="-67.979" cy="-71.313" r="1.8"/>
	<path d="M-38.146-43.063h-77.667c-0.966,0-1.75,0.784-1.75,1.75s0.784,1.75,1.75,1.75h77.667c0.966,0,1.75-0.784,1.75-1.75
		S-37.179-43.063-38.146-43.063z"/>
	<path d="M-27.146-43.063h-5c-0.966,0-1.75,0.784-1.75,1.75s0.784,1.75,1.75,1.75h5c0.966,0,1.75-0.784,1.75-1.75
		S-26.179-43.063-27.146-43.063z"/>
</g>
<g>
	<path d="M33.357-93.296h-1.145c-3.715,0-6.625,2.198-6.625,5.003v3.688c-1.187-0.07-4.16-0.172-9.844,0.038
		c-2.7,0.103-4.466-0.226-5.258-0.968C9.617-86.35,9.5-88.154,9.437-90.429c-0.039-1.385,0.537-1.563,0.814-1.649
		c1.062-0.329,2.599,0.266,3.058,0.776c-0.202,0.218-0.682,0.532-1.085,0.695c-0.895,0.355-1.336,1.367-0.985,2.265
		c0.353,0.899,1.366,1.342,2.268,0.992c0.43-0.168,2.604-1.102,3.208-2.971c0.304-0.935,0.156-1.938-0.415-2.826
		c-1.253-1.949-4.63-3.032-7.082-2.275c-2.156,0.666-3.351,2.521-3.28,5.09c0.086,3.101,0.299,5.61,2.154,7.349
		c1.413,1.324,3.51,1.933,6.724,1.933c0.34,0,0.692-0.007,1.058-0.02c6.037-0.223,8.9-0.084,9.714-0.028v3.379
		c0,2.806,2.91,5.003,6.625,5.003h1.145c0.967,0,1.75-0.784,1.75-1.75v-17.081C35.107-92.513,34.324-93.296,33.357-93.296z
		 M31.607-76.248c-1.536-0.166-2.52-0.939-2.52-1.471v-10.575c0-0.532,0.983-1.305,2.52-1.471V-76.248z"/>
	<path d="M78.72-72.715h1.146c3.715,0,6.624-2.198,6.624-5.003v-3.624l6.86,0.08c0.008,0,0.015,0,0.021,0
		c0.957,0,1.738-0.77,1.75-1.729c0.011-0.967-0.764-1.759-1.73-1.771l-6.901-0.081v-3.45c0-2.805-2.909-5.003-6.624-5.003H78.72
		c-0.967,0-1.75,0.784-1.75,1.75v17.081C76.97-73.499,77.753-72.715,78.72-72.715z M80.47-89.764
		c1.537,0.166,2.521,0.939,2.521,1.471v10.575c0,0.532-0.983,1.305-2.521,1.471V-89.764z"/>
	<path d="M46.358-89.728c-0.679-0.2-1.376-0.301-2.071-0.301c-4.033,0-7.314,3.281-7.314,7.314c0,4.033,3.281,7.314,7.314,7.314
		c0.698,0,1.396-0.102,2.074-0.303c0.742-0.22,1.252-0.903,1.252-1.678v-10.667C47.613-88.825,47.102-89.509,46.358-89.728z
		 M44.113-78.905c-2.022-0.091-3.641-1.766-3.641-3.811s1.618-3.719,3.641-3.81V-78.905z"/>
	<path d="M67.696-90.029c-0.698,0-1.396,0.102-2.073,0.302c-0.743,0.22-1.254,0.903-1.254,1.678v10.667
		c0,0.775,0.511,1.458,1.254,1.678c0.678,0.201,1.375,0.302,2.073,0.302c4.032,0,7.313-3.281,7.313-7.314
		C75.009-86.748,71.728-90.029,67.696-90.029z M67.869-78.905v-7.621c2.023,0.091,3.641,1.766,3.641,3.811
		S69.892-78.996,67.869-78.905z"/>
	<path d="M60.797-95.629h-5.714c-3.142,0-5.697,2.555-5.697,5.696v14.929c0,3.141,2.556,5.696,5.697,5.696h5.714
		c0.966,0,1.75-0.784,1.75-1.75v-22.821C62.547-94.846,61.763-95.629,60.797-95.629z M59.047-72.808h-3.964
		c-1.211,0-2.197-0.985-2.197-2.196v-14.929c0-1.211,0.986-2.196,2.197-2.196h3.964V-72.808z"/>
	<path d="M33.357-59.117h-1.145c-3.715,0-6.625,2.198-6.625,5.003v3.687c-1.186-0.07-4.159-0.172-9.844,0.038
		c-2.694,0.101-4.466-0.226-5.257-0.968C9.617-52.17,9.5-53.975,9.437-56.249c-0.039-1.385,0.537-1.563,0.814-1.649
		c1.062-0.328,2.598,0.266,3.058,0.776c-0.202,0.218-0.682,0.532-1.085,0.695c-0.895,0.355-1.336,1.367-0.984,2.265
		c0.352,0.9,1.366,1.344,2.267,0.992c0.43-0.168,2.604-1.102,3.209-2.971c0.303-0.935,0.155-1.938-0.416-2.826
		c-1.253-1.949-4.63-3.035-7.082-2.275c-2.156,0.666-3.351,2.521-3.28,5.09c0.086,3.101,0.299,5.61,2.154,7.349
		c1.412,1.323,3.509,1.932,6.722,1.932c0.34,0,0.693-0.007,1.059-0.02c6.037-0.224,8.899-0.084,9.714-0.029v3.38
		c0,2.806,2.91,5.003,6.625,5.003h1.145c0.967,0,1.75-0.784,1.75-1.75v-17.081C35.107-58.333,34.324-59.117,33.357-59.117z
		 M31.607-42.068c-1.536-0.166-2.52-0.939-2.52-1.471v-10.575c0-0.532,0.983-1.305,2.52-1.471V-42.068z"/>
	<path d="M46.358-55.548c-0.679-0.2-1.376-0.301-2.071-0.301c-4.033,0-7.314,3.281-7.314,7.314s3.281,7.314,7.314,7.314
		c0.697,0,1.395-0.102,2.072-0.302c0.744-0.22,1.254-0.903,1.254-1.678V-53.87C47.613-54.646,47.102-55.329,46.358-55.548z
		 M44.113-44.726c-2.022-0.091-3.641-1.765-3.641-3.81s1.618-3.719,3.641-3.81V-44.726z"/>
	<path d="M67.696-55.85c-0.698,0-1.396,0.102-2.073,0.302c-0.743,0.22-1.254,0.903-1.254,1.678v10.667
		c0,0.776,0.512,1.459,1.256,1.679c0.678,0.2,1.375,0.301,2.071,0.301c4.032,0,7.313-3.281,7.313-7.314S71.728-55.85,67.696-55.85z
		 M67.869-44.726v-7.62c2.023,0.091,3.641,1.765,3.641,3.81S69.892-44.816,67.869-44.726z"/>
	<path d="M60.797-61.45h-5.714c-3.142,0-5.697,2.556-5.697,5.697v14.929c0,3.141,2.556,5.696,5.697,5.696h5.714
		c0.966,0,1.75-0.784,1.75-1.75V-59.7C62.547-60.667,61.763-61.45,60.797-61.45z M59.047-38.628h-3.964
		c-1.211,0-2.197-0.985-2.197-2.196v-14.929c0-1.211,0.986-2.197,2.197-2.197h3.964V-38.628z"/>
	<path d="M93.373-50.684c-0.002,0-0.003,0-0.004,0l-6.878,0.013v-3.443c0-2.805-2.909-5.003-6.624-5.003H78.72
		c-0.967,0-1.75,0.784-1.75,1.75v17.081c0,0.966,0.783,1.75,1.75,1.75h1.146c3.715,0,6.624-2.198,6.624-5.003v-3.631l6.885-0.013
		c0.966-0.002,1.749-0.787,1.747-1.753C95.121-49.902,94.337-50.684,93.373-50.684z M82.991-43.539c0,0.532-0.983,1.305-2.521,1.471
		v-13.517c1.537,0.166,2.521,0.939,2.521,1.471V-43.539z"/>
</g>
<g>
	<path d="M212.092-110.176c-0.368-0.894-1.393-1.319-2.285-0.95c-14.081,5.809-28.165,11.609-42.251,17.41
		c-0.894,0.368-1.32,1.391-0.951,2.285c0.277,0.675,0.93,1.084,1.618,1.084c0.222,0,0.448-0.043,0.666-0.133
		c14.085-5.801,28.171-11.602,42.253-17.411C212.035-108.259,212.46-109.283,212.092-110.176z"/>
	<path d="M154.745-86.546c-0.368-0.894-1.39-1.318-2.285-0.951l-26.193,10.792c-0.895,0.368-1.32,1.392-0.951,2.285
		c0.277,0.675,0.93,1.083,1.618,1.083c0.222,0,0.448-0.042,0.666-0.132l26.194-10.792C154.687-84.629,155.113-85.653,154.745-86.546
		z"/>
	<path d="M159.784-82.941h6.537v9.608c0,0.966,0.784,1.75,1.75,1.75c0.967,0,1.75-0.784,1.75-1.75v-11.038
		c0-0.108-0.013-0.214-0.031-0.317c0-0.001,0-0.002,0-0.003c0-0.966-0.783-1.75-1.75-1.75h-6.506v-9.641h6.537
		c0.966,0,1.75-0.783,1.75-1.75s-0.784-1.75-1.75-1.75h-8.287c-0.966,0-1.75,0.783-1.75,1.75v13.141
		C158.034-83.725,158.818-82.941,159.784-82.941z"/>
	<path d="M192.761-69.237h-49.364c-3.221,0-5.841,2.62-5.841,5.841v18.25c0,3.75,6.678,17.612,10.677,17.612h41.628
		c4.111,0,8.569-13.043,8.74-16.808c0.242-5.313,0.012-18.526,0.002-19.055C198.603-66.617,195.981-69.237,192.761-69.237z
		 M195.104-44.5c-0.166,3.656-3.896,12.244-5.495,13.467h-41.153c-1.934-1.205-7.4-11.061-7.4-14.112v-18.25
		c0-1.291,1.05-2.341,2.341-2.341h49.364c1.291,0,2.342,1.05,2.342,2.372C195.105-63.229,195.341-49.704,195.104-44.5z"/>
	<path d="M150.556-44.846h3.982c2.904,0,5.268-2.363,5.268-5.267v-4.814c0-2.904-2.363-5.268-5.268-5.268h-3.982
		c-2.904,0-5.268,2.363-5.268,5.268v4.814C145.288-47.209,147.651-44.846,150.556-44.846z M148.788-54.927
		c0-0.975,0.793-1.768,1.768-1.768h3.982c0.975,0,1.768,0.793,1.768,1.768v4.814c0,0.974-0.793,1.767-1.768,1.767h-3.982
		c-0.975,0-1.768-0.793-1.768-1.767V-54.927z"/>
	<path d="M165.937-44.846h3.982c2.904,0,5.268-2.363,5.268-5.267v-4.814c0-2.904-2.363-5.268-5.268-5.268h-3.982
		c-2.903,0-5.266,2.363-5.266,5.268v4.814C160.671-47.209,163.033-44.846,165.937-44.846z M164.171-54.927
		c0-0.975,0.792-1.768,1.766-1.768h3.982c0.975,0,1.768,0.793,1.768,1.768v4.814c0,0.974-0.793,1.767-1.768,1.767h-3.982
		c-0.974,0-1.766-0.793-1.766-1.767V-54.927z"/>
	<path d="M185.386-60.195h-3.983c-2.903,0-5.267,2.363-5.267,5.268v4.814c0,2.903,2.363,5.267,5.267,5.267h3.983
		c2.904,0,5.267-2.363,5.267-5.267v-4.814C190.652-57.832,188.29-60.195,185.386-60.195z M187.152-50.113
		c0,0.974-0.792,1.767-1.767,1.767h-3.983c-0.974,0-1.767-0.793-1.767-1.767v-4.814c0-0.975,0.793-1.768,1.767-1.768h3.983
		c0.975,0,1.767,0.793,1.767,1.768V-50.113z"/>
	<path d="M188.479-42.124l-41.009-0.098c-0.001,0-0.002,0-0.004,0c-0.965,0-1.748,0.781-1.75,1.746
		c-0.002,0.966,0.779,1.752,1.746,1.754l41.009,0.098c0.001,0,0.003,0,0.004,0c0.965,0,1.747-0.781,1.75-1.747
		S189.445-42.122,188.479-42.124z"/>
</g>
<g>
	<path d="M316.401-71.413l-4.972-3.249c-0.58-0.378-1.247-0.57-1.915-0.57c-0.571,0-1.145,0.14-1.666,0.422
		c-1.129,0.611-1.834,1.793-1.834,3.078v1.499h-11.57v-11.571h1.498c1.285,0,2.467-0.704,3.078-1.834s0.555-2.504-0.148-3.58
		l-3.247-4.972c-0.646-0.989-1.748-1.586-2.931-1.586c-1.182,0-2.283,0.597-2.93,1.586l-3.248,4.972
		c-0.701,1.076-0.758,2.45-0.146,3.58s1.793,1.834,3.078,1.834h1.496v11.571h-11.568v-1.499c0-1.285-0.705-2.467-1.834-3.078
		c-0.521-0.282-1.095-0.422-1.666-0.422c-0.668,0-1.335,0.191-1.914,0.57l-4.973,3.249c-0.99,0.646-1.586,1.749-1.586,2.931
		s0.596,2.284,1.586,2.93l4.973,3.247c0.58,0.378,1.246,0.569,1.914,0.569c0.572,0,1.145-0.14,1.666-0.422
		c1.129-0.612,1.834-1.793,1.834-3.078v-1.497h11.568v11.568h-1.496c-1.285,0-2.467,0.704-3.078,1.834
		c-0.611,1.129-0.555,2.504,0.146,3.58l3.248,4.973c0.646,0.99,1.748,1.586,2.93,1.586c1.183,0,2.285-0.597,2.931-1.586l3.248-4.973
		c0.702-1.076,0.759-2.45,0.147-3.58s-1.793-1.834-3.078-1.834h-1.498v-11.568h11.57v1.497c0,1.285,0.705,2.466,1.834,3.078
		c0.521,0.282,1.095,0.422,1.666,0.422c0.668,0,1.334-0.191,1.914-0.569l4.973-3.247c0.989-0.646,1.586-1.749,1.586-2.93
		S317.392-70.767,316.401-71.413z M292.694-90.276l3.248,4.972h-6.494L292.694-90.276z M275.876-65.236l-4.973-3.247l4.973-3.249
		V-65.236z M292.694-46.692l-3.246-4.973h6.494L292.694-46.692z M309.515-65.236v-6.495l4.973,3.249L309.515-65.236z"/>
	<path d="M288.9-97.144c0.966,0,1.75-0.784,1.75-1.75v-5.381l4.937,6.445c0.338,0.441,0.855,0.686,1.39,0.686
		c0.188,0,0.377-0.03,0.562-0.093c0.71-0.241,1.188-0.907,1.188-1.657v-10.544c0-0.966-0.783-1.75-1.75-1.75
		c-0.966,0-1.75,0.784-1.75,1.75v5.381l-4.936-6.445c-0.455-0.595-1.24-0.833-1.951-0.593c-0.711,0.241-1.188,0.907-1.188,1.657
		v10.544C287.15-97.928,287.935-97.144,288.9-97.144z"/>
	<path d="M332.812-66.997c0.967,0,1.75-0.784,1.75-1.75s-0.783-1.75-1.75-1.75h-7.229v-1.76h7.229c0.967,0,1.75-0.784,1.75-1.75
		s-0.783-1.75-1.75-1.75h-8.979c-0.966,0-1.75,0.784-1.75,1.75c0,0.091,0.013,0.178,0.026,0.265
		c-0.014,0.087-0.026,0.174-0.026,0.265v10.499c0,0.966,0.784,1.75,1.75,1.75h8.979c0.967,0,1.75-0.784,1.75-1.75
		s-0.783-1.75-1.75-1.75h-7.229v-2.269H332.812z"/>
	<path d="M297.919-33.715c-1.284-0.741-2.768-0.814-3.96-0.872c-0.25-0.013-0.495-0.024-0.731-0.042l-0.133-0.01
		c-0.801-0.061-2.013-0.153-2.387-0.58c-0.106-0.121-0.16-0.331-0.129-0.508c0.008-0.047,0.029-0.13,0.076-0.157
		c1.628-0.903,4.642-0.387,6.443-0.079c0.953,0.159,1.857-0.477,2.021-1.43s-0.478-1.857-1.43-2.021
		c-2.401-0.411-6.031-1.033-8.733,0.47c-0.965,0.536-1.63,1.491-1.825,2.619c-0.212,1.222,0.143,2.499,0.947,3.415
		c1.315,1.498,3.383,1.656,4.751,1.76l0.127,0.01c0.268,0.021,0.547,0.035,0.832,0.049c0.899,0.044,1.83,0.09,2.365,0.388
		c0.067,0.126,0.021,0.589-0.222,0.917c-0.396,0.537-1.437,0.77-2.929,0.652l-0.195-0.015c-0.459-0.035-1.853-0.139-2.197-0.376
		c-0.715-0.649-1.821-0.598-2.472,0.119c-0.649,0.715-0.597,1.822,0.118,2.472c1.058,0.96,2.699,1.157,4.289,1.276l0.186,0.014
		c0.338,0.026,0.666,0.04,0.981,0.04c2.312,0,4.003-0.705,5.034-2.103c0.775-1.049,1.1-2.453,0.847-3.664
		C299.384-32.379,298.789-33.212,297.919-33.715z"/>
	<path d="M262.987-75.41c-0.93-0.258-1.895,0.287-2.153,1.219l-1.481,5.345l-2.112-5.504c-0.276-0.722-0.98-1.146-1.713-1.113
		c-0.73-0.031-1.435,0.393-1.711,1.113l-2.112,5.504l-1.481-5.344c-0.258-0.932-1.224-1.479-2.153-1.219
		c-0.932,0.258-1.478,1.223-1.22,2.154l2.899,10.46c0.201,0.728,0.848,1.245,1.602,1.281c0.029,0.001,0.057,0.002,0.085,0.002
		c0.722,0,1.372-0.444,1.634-1.123l2.459-6.407l2.459,6.407c0.26,0.679,0.912,1.123,1.633,1.123c0.027,0,0.057,0,0.084-0.002
		c0.755-0.036,1.4-0.553,1.604-1.28l2.899-10.46C264.466-74.187,263.919-75.151,262.987-75.41z"/>
</g>
<g>
	<path d="M395.151-68.43c5.87,0,11.1-3.514,13.324-8.953c0.267-0.653,0.116-1.401-0.382-1.9l-16.486-16.486
		c-0.027-0.026-0.061-0.041-0.089-0.065v-2.316c0-0.966-0.784-1.75-1.75-1.75s-1.75,0.784-1.75,1.75v2.829
		c-4.464,2.539-7.265,7.26-7.265,12.495C380.754-74.888,387.213-68.43,395.151-68.43z M390-92.427l14.751,14.751
		c-1.886,3.524-5.54,5.746-9.6,5.746c-6.009,0-10.897-4.888-10.897-10.896C384.254-86.886,386.476-90.541,390-92.427z"/>
	<path d="M424.35-68.43c7.938,0,14.396-6.458,14.396-14.396c0-5.559-3.154-10.54-8.107-12.941v-13.27c0-0.966-0.783-1.75-1.75-1.75
		s-1.75,0.784-1.75,1.75v14.024l-15.73,15.731c-0.499,0.499-0.65,1.247-0.383,1.899C413.249-71.944,418.479-68.43,424.35-68.43z
		 M429.5-92.427c3.524,1.885,5.746,5.541,5.746,9.6c0,6.008-4.889,10.896-10.896,10.896c-4.06,0-7.715-2.221-9.6-5.746L429.5-92.427
		z"/>
	<path d="M389.769-103.587c0.966,0,1.75-0.784,1.75-1.75v-3.701c0-0.966-0.784-1.75-1.75-1.75s-1.75,0.784-1.75,1.75v3.701
		C388.019-104.371,388.803-103.587,389.769-103.587z"/>
	<path d="M434.133-60.892h-24.301h-0.164h-24.301c-1.933,0-3.5,1.567-3.5,3.5v6.705c0,1.243,0.66,2.393,1.732,3.021
		c0.155,0.091,15.715,9.313,19.412,19.29c0.508,1.368,1.811,2.278,3.27,2.284c1.412,0.005,2.51,0.008,3.387,0.01
		c0.025,0,0.057,0,0.082,0s0.057,0,0.082,0c0.877-0.002,1.975-0.005,3.387-0.01c1.459-0.005,2.762-0.916,3.27-2.284
		c3.697-9.978,19.257-19.199,19.412-19.29c1.072-0.628,1.732-1.778,1.732-3.021v-6.705
		C437.633-59.325,436.065-60.892,434.133-60.892z M434.133-55.475h-8.051c-0.966,0-1.75,0.784-1.75,1.75s0.784,1.75,1.75,1.75h8.051
		v1.288c0,0-16.74,9.797-20.927,21.095c-1.448,0.005-2.57,0.008-3.456,0.01c-0.886-0.002-2.008-0.005-3.456-0.01
		c-4.187-11.298-20.927-21.095-20.927-21.095v-1.288h29.09c0.967,0,1.75-0.784,1.75-1.75s-0.783-1.75-1.75-1.75h-29.09v-1.917
		h24.301h0.164h24.301V-55.475z"/>
	<path d="M418.358-49.306c0.235,0.106,0.481,0.157,0.724,0.157c0.664,0,1.301-0.381,1.594-1.026l1.875-4.125
		c0.4-0.88,0.011-1.917-0.869-2.317c-0.879-0.399-1.917-0.011-2.317,0.869l-1.875,4.125
		C417.09-50.743,417.479-49.706,418.358-49.306z"/>
</g>
<g>
	<path d="M-72.882,70.654c-0.599-1.086-1.163-2.112-1.489-3.195c-1.379-4.584-1.374-9.615-1.25-14.377
		c0.072-2.784,0.389-5.729,0.723-8.848c0.703-6.556,1.431-13.334-0.058-19.429c-1.239-5.076-5.622-8.487-10.905-8.487
		c-0.83,0-1.669,0.087-2.493,0.26c-9.93,2.073-19.206,11.083-21.579,20.959c-3.573,14.869,3.656,31.006,8.317,39.348
		c2.648,5.986,8.331,15.928,16.84,15.928c1.359,0,2.74-0.261,4.104-0.775c5.888-2.221,10.246-8.963,9.921-15.351
		C-70.872,74.309-71.94,72.367-72.882,70.654z M-81.908,88.763c-0.968,0.364-1.934,0.55-2.869,0.55
		c-6.804,0-11.827-9.731-13.671-13.915c-0.022-0.051-0.047-0.101-0.074-0.149c-1.778-3.175-3.961-7.552-5.717-12.546
		c0.299-0.338,8.855-9.987,15.748-13.589c3.028,1.27,5.922,3.186,5.953,3.207c0.806,0.535,1.892,0.317,2.426-0.486
		c0.536-0.804,0.319-1.891-0.485-2.426c-0.149-0.1-3.705-2.459-7.348-3.846c-0.444-0.169-0.938-0.151-1.368,0.052
		c-6.065,2.856-13.167,10.04-16.149,13.235c-0.187-0.658-0.361-1.323-0.526-1.994c0.079-0.119,0.156-0.241,0.206-0.383
		c1.119-3.209,11.043-10.304,17.036-14.022c0.515-0.319,0.827-0.882,0.827-1.487V29.976c0-0.966-0.783-1.75-1.75-1.75
		c-0.966,0-1.75,0.784-1.75,1.75v10.02c-3.194,2.022-11.438,7.448-15.515,12.048c-0.662-4.517-0.679-9.183,0.403-13.688
		c2.044-8.505,10.341-16.565,18.891-18.351c0.59-0.124,1.188-0.186,1.778-0.186c3.64,0,6.655,2.338,7.505,5.817
		c1.344,5.5,0.649,11.969-0.021,18.226c-0.343,3.19-0.666,6.205-0.742,9.13c-0.131,5.045-0.131,10.396,1.397,15.476
		c0.433,1.438,1.114,2.678,1.774,3.875c0.871,1.582,1.623,2.948,1.702,4.522C-73.999,81.738-77.436,87.076-81.908,88.763z"/>
	<path d="M-80.204,42.987c-2.188-1.862-4.301-2.974-4.39-3.021c-0.857-0.448-1.913-0.116-2.361,0.741
		c-0.447,0.857-0.115,1.914,0.741,2.361c0.019,0.01,1.85,0.973,3.741,2.583c0.329,0.28,0.732,0.417,1.133,0.417
		c0.495,0,0.987-0.209,1.334-0.616C-79.379,44.718-79.468,43.614-80.204,42.987z"/>
	<path d="M-96.924,27.807c-4.922,2.285-7.963,9.238-8.706,14.732c-0.129,0.958,0.542,1.839,1.5,1.969
		c0.08,0.011,0.159,0.016,0.237,0.016c0.862,0,1.613-0.637,1.731-1.516c0.733-5.42,3.618-10.591,6.711-12.026
		c0.877-0.408,1.257-1.448,0.851-2.325C-95.008,27.779-96.051,27.4-96.924,27.807z"/>
	<path d="M-79.918,72.965c0.535-0.806,0.316-1.892-0.488-2.427c-0.805-0.533-1.892-0.315-2.427,0.489
		c-0.014,0.021-1.52,2.211-4.224,3.662c-2.343,1.1-4.732,1.486-4.778,1.494c-0.954,0.147-1.608,1.041-1.461,1.996
		c0.134,0.864,0.879,1.483,1.728,1.483c0.089,0,0.179-0.007,0.27-0.021c0.117-0.019,2.904-0.458,5.813-1.826
		C-81.888,75.889-79.997,73.082-79.918,72.965z"/>
	<path d="M-78.695,77.489c-0.778-0.573-1.873-0.409-2.447,0.368c-0.013,0.017-1.256,1.647-3.363,2.623
		c-1.77,0.676-3.509,0.783-3.531,0.784c-0.963,0.053-1.703,0.876-1.652,1.839c0.049,0.934,0.822,1.659,1.746,1.659
		c0.031,0,0.063-0.001,0.094-0.003c0.094-0.005,2.328-0.131,4.657-1.035c0.031-0.012,0.063-0.025,0.093-0.039
		c2.985-1.36,4.701-3.652,4.772-3.749C-77.752,79.159-77.917,78.063-78.695,77.489z"/>
	<path d="M-27.691,37.537c-2.372-9.876-11.649-18.887-21.578-20.959c-0.825-0.172-1.664-0.26-2.493-0.26
		c-5.283,0-9.666,3.411-10.905,8.487c-1.489,6.095-0.762,12.874-0.059,19.429c0.335,3.119,0.651,6.064,0.724,8.848
		c0.123,4.762,0.129,9.793-1.25,14.376c-0.326,1.084-0.892,2.11-1.489,3.196c-0.943,1.713-2.012,3.654-2.132,6.031
		c-0.324,6.389,4.033,13.131,9.921,15.352c1.364,0.515,2.745,0.775,4.105,0.775c0,0,0,0,0.001,0c8.507,0,14.189-9.941,16.838-15.928
		C-31.347,68.543-24.118,52.406-27.691,37.537z M-39.102,75.248c-0.027,0.049-0.053,0.099-0.075,0.149
		c-1.844,4.185-6.866,13.916-13.67,13.915c-0.937,0-1.902-0.186-2.87-0.55c-4.472-1.687-7.908-7.024-7.661-11.899
		c0.08-1.573,0.832-2.939,1.703-4.521c0.659-1.197,1.341-2.437,1.774-3.875c1.414-4.701,1.517-9.632,1.421-14.34
		c0.232-0.035,0.462-0.114,0.674-0.246c0.057-0.035,5.295-3.307,8.678-4.766c6.893,3.604,15.444,13.249,15.743,13.587
		C-35.142,67.696-37.325,72.073-39.102,75.248z M-32.162,58.85c-2.982-3.195-10.085-10.379-16.149-13.235
		c-0.43-0.203-0.924-0.221-1.369-0.052c-2.782,1.06-7.027,3.553-8.961,4.725c-0.06-0.863-0.133-1.739-0.217-2.624
		c2.56-2.365,8.022-4.36,10.18-5.087c6.01,3.749,15.729,10.722,16.837,13.896c0.049,0.142,0.126,0.264,0.205,0.383
		C-31.801,57.526-31.976,58.191-32.162,58.85z M-30.69,52.043c-4.077-4.6-12.32-10.026-15.516-12.048v-10.02
		c0-0.966-0.783-1.75-1.75-1.75c-0.966,0-1.75,0.784-1.75,1.75v9.251c-1.9,0.635-6.317,2.238-9.568,4.371
		c-0.662-6.174-1.318-12.539,0.007-17.963c0.849-3.479,3.865-5.817,7.505-5.817c0.59,0,1.188,0.063,1.778,0.186
		c8.549,1.785,16.847,9.845,18.89,18.351C-30.011,42.86-30.029,47.526-30.69,52.043z"/>
	<path d="M-34.526,34.44c-0.439-0.86-1.492-1.2-2.355-0.762c-0.86,0.44-1.201,1.494-0.762,2.355c1.098,2.148,1.852,4.56,2.181,6.977
		c0.119,0.877,0.87,1.514,1.731,1.514c0.078,0,0.158-0.005,0.238-0.016c0.958-0.13,1.628-1.012,1.498-1.97
		C-32.381,39.695-33.234,36.971-34.526,34.44z"/>
	<path d="M-45.756,76.188c-1.049-0.184-2.122-0.466-3.189-0.84c-0.911-0.317-1.91,0.161-2.229,1.073s0.161,1.911,1.073,2.23
		c1.247,0.436,2.506,0.768,3.742,0.983c0.103,0.019,0.204,0.027,0.304,0.027c0.835,0,1.573-0.6,1.722-1.449
		C-44.167,77.262-44.804,76.355-45.756,76.188z"/>
	<path d="M-49.587,81.265c-0.018-0.001-1.76-0.106-3.531-0.784c-2.105-0.975-3.355-2.613-3.363-2.623
		c-0.574-0.777-1.669-0.941-2.447-0.368c-0.777,0.574-0.942,1.67-0.368,2.447c0.071,0.097,1.786,2.389,4.772,3.749
		c0.03,0.014,0.061,0.027,0.092,0.039c2.33,0.904,4.564,1.03,4.658,1.035c0.031,0.002,0.063,0.003,0.093,0.003
		c0.923,0,1.693-0.723,1.744-1.655C-47.885,82.145-48.625,81.32-49.587,81.265z"/>
</g>
<g>
	<path d="M31.81,30.987l22.715,4.006l-6.578,37.064c-0.17,0.952,0.465,1.86,1.417,2.028c0.104,0.019,0.206,0.027,0.308,0.027
		c0.832,0,1.57-0.596,1.721-1.444l6.58-37.068l23.697,4.178c0.101,0.018,0.202,0.026,0.303,0.026c0.357,0,0.708-0.109,1.004-0.316
		c0.381-0.266,0.64-0.672,0.721-1.13c2.59-14.694-7.255-28.757-21.948-31.352c-0.002,0-0.004-0.001-0.006-0.001
		c-0.038-0.007-0.078-0.009-0.116-0.016c-1.526-0.262-3.077-0.399-4.613-0.399c-13.141,0-24.338,9.407-26.623,22.369
		c-0.08,0.457,0.023,0.927,0.29,1.308C30.947,30.647,31.353,30.906,31.81,30.987z M80.49,36.017l-7.297-1.287
		c1.102-7.921,0.074-15.158-2.536-20.274C77.391,19.247,81.363,27.398,80.49,36.017z M62.373,10.806
		c5.666,2.199,8.859,12.205,7.373,23.316l-11.162-1.968L62.373,10.806z M58.881,10.444l-3.745,21.102l-5.393-0.951l-4.795-0.846
		C47.214,19.395,53.025,11.361,58.881,10.444z M50.97,10.88c-4.283,3.944-7.793,10.487-9.467,18.263l-7.299-1.287
		C36.328,19.458,42.828,13.038,50.97,10.88z"/>
	<path d="M89.412,88.518c-0.006-1.434-0.027-8.387-0.014-13.552c0.001-0.672-0.382-1.285-0.986-1.579
		c-0.604-0.293-1.323-0.214-1.85,0.203c-5.655,4.475-15.185,5.144-20.361,5.144c-6.018,0-11.227-0.864-13.721-1.722
		c-9.885-3.396-18.159-5.994-27.141-5.994c-4.813,0-9.541,0.744-14.456,2.273c-0.73,0.227-1.229,0.902-1.23,1.667L9.625,88.786
		c-0.001,0.464,0.183,0.911,0.511,1.24c0.328,0.328,0.774,0.513,1.239,0.513h76.287c0.008,0,0.014,0,0.021,0
		c0.966,0,1.75-0.783,1.75-1.75C89.432,88.697,89.425,88.606,89.412,88.518z M13.128,87.039l0.022-10.771
		c4.134-1.176,8.134-1.75,12.188-1.75c8.457,0,16.112,2.406,26.004,5.805c3.379,1.161,9.211,1.911,14.857,1.911
		c4.865,0,13.305-0.572,19.693-4.04c-0.002,3.352,0.007,6.824,0.013,8.846H13.128z"/>
	<path d="M11.431,54.854h22.918c0.901,0,1.656-0.686,1.742-1.582c0.039-0.423,0.063-0.85,0.063-1.281
		c0-7.315-5.95-13.266-13.265-13.266S9.625,44.675,9.625,51.99c0,0.43,0.024,0.855,0.063,1.275
		C9.772,54.166,10.527,54.854,11.431,54.854z M22.89,42.225c5.17,0,9.416,4.04,9.744,9.129H13.146
		C13.474,46.265,17.719,42.225,22.89,42.225z"/>
	<path d="M57.845,56.37c-0.966,0-1.75,0.783-1.75,1.75c0,0.966,0.784,1.75,1.75,1.75h18.271c0.966,0,1.75-0.784,1.75-1.75
		c0-0.967-0.784-1.75-1.75-1.75H57.845z"/>
	<path d="M11.375,59.87c0.007,0,0.014,0,0.021,0c11.472-0.13,23.335-0.136,35.261-0.015c0.006,0,0.012,0,0.018,0
		c0.958,0,1.74-0.771,1.75-1.732c0.01-0.967-0.767-1.758-1.732-1.768c-11.951-0.121-23.84-0.115-35.336,0.015
		c-0.966,0.011-1.741,0.804-1.73,1.771C9.636,59.1,10.417,59.87,11.375,59.87z"/>
	<path d="M11.375,65.628h34.06c0.967,0,1.75-0.784,1.75-1.75s-0.783-1.75-1.75-1.75h-34.06c-0.966,0-1.75,0.784-1.75,1.75
		S10.409,65.628,11.375,65.628z"/>
</g>
<path d="M170.703,10.554c-22.063,0-40.011,17.949-40.011,40.011c0,22.063,17.948,40.012,40.011,40.012s40.012-17.949,40.012-40.012
	C210.715,28.502,192.766,10.554,170.703,10.554z M190.786,47.399h16.282c0.091,1.044,0.146,2.099,0.146,3.165
	c0,1.067-0.056,2.121-0.146,3.165h-16.282c0.163-1.034,0.271-2.086,0.271-3.165S190.948,48.434,190.786,47.399z M206.594,43.899
	h-16.406c-0.09,0-0.177,0.014-0.264,0.026c-2.046-5.903-6.726-10.572-12.638-12.602c0.05-0.161,0.084-0.329,0.084-0.506V14.675
	C192.165,17.417,203.852,29.104,206.594,43.899z M170.703,67.419c-9.293,0-16.854-7.561-16.854-16.854
	c0-9.293,7.562-16.854,16.854-16.854c9.294,0,16.854,7.561,16.854,16.854C187.558,59.858,179.997,67.419,170.703,67.419z
	 M173.87,14.2v16.283c-1.035-0.163-2.087-0.272-3.167-0.272c-1.078,0-2.13,0.109-3.163,0.271V14.199
	c1.043-0.09,2.097-0.146,3.163-0.146C171.771,14.054,172.825,14.109,173.87,14.2z M164.04,14.674v16.145
	c0,0.177,0.034,0.344,0.083,0.505c-5.913,2.028-10.594,6.699-12.641,12.603c-0.086-0.013-0.173-0.026-0.264-0.026h-16.406
	C137.555,29.103,149.243,17.416,164.04,14.674z M134.192,50.564c0-1.066,0.056-2.121,0.146-3.165h16.282
	c-0.162,1.034-0.271,2.086-0.271,3.165s0.109,2.131,0.271,3.165h-16.282C134.248,52.686,134.192,51.632,134.192,50.564z
	 M134.813,57.229h16.406c0.091,0,0.177-0.014,0.264-0.026c2.036,5.877,6.685,10.529,12.559,12.573c0,0.004-0.001,0.007-0.001,0.011
	v16.669C149.242,83.715,137.555,72.026,134.813,57.229z M167.54,86.931V70.647c1.033,0.163,2.085,0.271,3.163,0.271
	c1.08,0,2.132-0.109,3.167-0.272V86.93c-1.045,0.091-2.1,0.146-3.167,0.146C169.637,87.076,168.583,87.021,167.54,86.931z
	 M177.37,86.455V69.787c0-0.004-0.002-0.008-0.002-0.012c5.873-2.044,10.521-6.696,12.556-12.572
	c0.087,0.013,0.174,0.026,0.264,0.026h16.406C203.853,72.025,192.166,83.713,177.37,86.455z"/>
<g>
	<path d="M284.44,48.312c1.082,0.177,2.201,0.33,3.424,0.467c0.065,0.007,0.131,0.011,0.196,0.011c0.88,0,1.637-0.661,1.737-1.555
		c0.107-0.96-0.584-1.826-1.545-1.934c-1.162-0.13-2.224-0.275-3.246-0.443c-0.955-0.156-1.854,0.491-2.01,1.444
		C282.841,47.255,283.487,48.155,284.44,48.312z"/>
	<path d="M311.065,49.628c1.368-2.942,2.083-6.157,2.083-9.431c0-12.423-10.2-22.531-22.739-22.531S267.67,27.774,267.67,40.197
		c0,3.303,0.729,6.547,2.124,9.513c-15.672,2.61-24.941,7.799-24.941,14.057c0,10.195,23.608,15.695,45.821,15.695
		s45.821-5.5,45.821-15.695C336.495,57.428,327.044,52.207,311.065,49.628z M290.674,75.963c-24.94,0-42.321-6.428-42.321-12.195
		c0-3.601,7.639-8.57,24.41-10.975c0.585-0.084,1.088-0.457,1.338-0.993c0.25-0.535,0.213-1.16-0.099-1.662
		c-1.853-2.986-2.832-6.424-2.832-9.94c0-10.494,8.631-19.031,19.239-19.031s19.239,8.537,19.239,19.031
		c0,1.138-0.112,2.265-0.313,3.374c-0.055,0.021-0.11,0.037-0.164,0.064c-5.066,2.62-11.31,2.425-16.762,2.037
		c-0.965-0.065-1.801,0.657-1.87,1.621c-0.069,0.964,0.657,1.801,1.621,1.87c1.82,0.129,3.724,0.238,5.658,0.238
		c3.393,0,6.877-0.344,10.173-1.479c-0.271,0.606-0.581,1.197-0.918,1.773c-5.555,1.682-17.506,0.872-22.006,0.364
		c-0.955-0.103-1.826,0.583-1.934,1.543c-0.109,0.96,0.582,1.827,1.543,1.935c1.028,0.116,6.428,0.691,12.196,0.691
		c4.319,0,8.843-0.324,11.897-1.402c16.625,2.41,24.225,7.334,24.225,10.941C332.995,69.535,315.614,75.963,290.674,75.963z"/>
</g>
<g>
	<path d="M432.679,48.751c-0.989,0-1.986,0.099-2.978,0.292c-3.043-4.723-7.894-7.939-13.342-8.951
		c-3.232-6.511-9.935-11.007-17.684-11.007c-10.891,0-19.75,8.86-19.75,19.75c0,4.93,1.828,9.433,4.825,12.896
		c-1.557,1.952-2.493,4.419-2.493,7.104c0,6.295,5.122,11.417,11.417,11.417c3.22,0,6.24-1.347,8.385-3.673
		c3.393,2.379,7.455,3.673,11.617,3.673c3.804,0,7.472-1.056,10.687-3.066c2.698,1.985,5.958,3.066,9.315,3.066
		c8.685,0,15.75-7.065,15.75-15.75S441.363,48.751,432.679,48.751z M382.426,48.834c0-8.96,7.29-16.25,16.25-16.25
		c5.607,0,10.561,2.856,13.482,7.189c-10.074,0.254-18.304,7.771-19.548,17.644c-2.328,0.013-4.491,0.729-6.293,1.941
		C383.896,56.521,382.426,52.849,382.426,48.834z M432.679,76.751c-2.961,0-5.827-1.083-8.068-3.051
		c-0.329-0.288-0.741-0.435-1.154-0.435c-0.357,0-0.716,0.109-1.021,0.329c-2.871,2.065-6.245,3.156-9.758,3.156
		c-3.941,0-7.775-1.403-10.794-3.952c-0.381-0.322-0.881-0.467-1.38-0.395c-0.495,0.071-0.936,0.352-1.211,0.77
		c-1.474,2.24-3.947,3.577-6.617,3.577c-4.365,0-7.917-3.552-7.917-7.917c0-1.736,0.568-3.34,1.521-4.646
		c0.709-0.973,1.628-1.779,2.696-2.348c1.105-0.587,2.363-0.923,3.7-0.923c0.38,0,0.791,0.036,1.258,0.112
		c0.495,0.076,1.001-0.057,1.388-0.375c0.388-0.318,0.62-0.787,0.64-1.288c0.339-9.037,7.682-16.116,16.717-16.116
		c0.422,0,0.841,0.02,1.258,0.051c1.335,0.102,2.637,0.365,3.886,0.77c3.982,1.291,7.413,4.045,9.509,7.82
		c0.395,0.711,1.222,1.057,2.008,0.835c1.111-0.315,2.235-0.475,3.342-0.475c6.755,0,12.25,5.495,12.25,12.25
		S439.434,76.751,432.679,76.751z"/>
	<path d="M416.01,32.251c0.448,0,0.896-0.171,1.237-0.513l5.667-5.667c0.684-0.683,0.684-1.792,0-2.475
		c-0.684-0.684-1.791-0.684-2.475,0l-5.667,5.667c-0.684,0.683-0.684,1.792,0,2.475C415.114,32.08,415.562,32.251,416.01,32.251z"/>
	<path d="M407.493,26.92c0.211,0.084,0.43,0.124,0.645,0.124c0.696,0,1.355-0.418,1.627-1.104l1.705-4.292
		c0.357-0.898-0.082-1.916-0.98-2.272c-0.896-0.355-1.916,0.083-2.271,0.98l-1.705,4.292
		C406.155,25.545,406.595,26.563,407.493,26.92z"/>
	<path d="M399.188,25.189c0.01,0,0.021,0,0.03,0c0.966-0.016,1.737-0.813,1.72-1.779l-0.046-2.809
		c-0.017-0.967-0.851-1.769-1.779-1.72c-0.966,0.016-1.737,0.813-1.72,1.779l0.046,2.809
		C397.456,24.425,398.235,25.189,399.188,25.189z"/>
</g>
</svg>
