<svg xmlns="http://www.w3.org/2000/svg" width="512" height="512" viewBox="0 0 128 128"><g><path d="M118.5,79.942H102.077v-7.25a4.756,4.756,0,0,0-4.75-4.75h-18a4.756,4.756,0,0,0-4.75,4.75v7.25H65.75V43.3A4.756,4.756,0,0,0,61,38.554H56.9V13.906a4.744,4.744,0,0,0-1.75-9.156H15.346A4.744,4.744,0,0,0,13.6,13.907V38.554H9.5A4.756,4.756,0,0,0,4.75,43.3V112.5a4.756,4.756,0,0,0,4.75,4.75h4.263a6.242,6.242,0,0,0,12.474,0H44.263a6.233,6.233,0,0,0,10.378,4.421,4.721,4.721,0,0,0,3.513,1.582H118.5a4.756,4.756,0,0,0,4.75-4.75V84.692A4.756,4.756,0,0,0,118.5,79.942Zm-40.923,3.5v13.4h-2.5v-13.4Zm-4,19.4v-2.5h5.5v2.5Zm7.5,3.475a1.745,1.745,0,0,0,1.5-1.725v-6a1.746,1.746,0,0,0-1.5-1.725V83.442h14.5V96.871a1.746,1.746,0,0,0-1.5,1.725v6a1.745,1.745,0,0,0,1.5,1.725V119.75h-14.5Zm16.5-3.475v-2.5h5.5v2.5Zm4-6h-2.5v-13.4h2.5Zm-23.5-24.154a1.252,1.252,0,0,1,1.25-1.25h18a1.251,1.251,0,0,1,1.25,1.25v7.25h-20.5ZM17.1,14.25H53.4v15.3H17.1Zm-1.751-6H55.154a1.25,1.25,0,0,1,0,2.5H15.346a1.25,1.25,0,0,1,0-2.5Zm1.751,24.8H53.4v5.5H17.1Zm-7.6,9H61a1.251,1.251,0,0,1,1.25,1.25v19.25H46V61.3a1.749,1.749,0,0,0-1.75-1.75h-18A1.749,1.749,0,0,0,24.5,61.3v1.25H8.25V43.3A1.251,1.251,0,0,1,9.5,42.054Zm18.5,21H42.5v2.5H28ZM8.25,112.5V66.054H24.5V67.3a1.75,1.75,0,0,0,1.75,1.75h18A1.75,1.75,0,0,0,46,67.3v-1.25H62.25V112.5a1.252,1.252,0,0,1-1.25,1.25H9.5A1.252,1.252,0,0,1,8.25,112.5ZM20,119.75a2.744,2.744,0,0,1-2.725-2.5h5.45A2.744,2.744,0,0,1,20,119.75Zm30.5,0a2.744,2.744,0,0,1-2.725-2.5h5.45A2.744,2.744,0,0,1,50.5,119.75Zm6.4-1.25v-1.253H61a4.756,4.756,0,0,0,4.75-4.75V83.442h5.827V96.871a1.746,1.746,0,0,0-1.5,1.725v6a1.745,1.745,0,0,0,1.5,1.725V119.75H58.154A1.252,1.252,0,0,1,56.9,118.5Zm18.173,1.25v-13.4h2.5v13.4Zm24,0v-13.4h2.5v13.4Zm20.673-1.25a1.252,1.252,0,0,1-1.25,1.25H105.077V106.321a1.745,1.745,0,0,0,1.5-1.725v-6a1.746,1.746,0,0,0-1.5-1.725V83.442H118.5a1.252,1.252,0,0,1,1.25,1.25Z"/><path d="M12.5,94.75a1.75,1.75,0,0,0-1.75,1.75v5.625a1.75,1.75,0,0,0,3.5,0V96.5A1.75,1.75,0,0,0,12.5,94.75Z"/><path d="M15.347,54.054H55.154a1.75,1.75,0,0,0,0-3.5H15.347a1.75,1.75,0,1,0,0,3.5Z"/></g></svg>
