<svg xmlns="http://www.w3.org/2000/svg" xmlns:xlink="http://www.w3.org/1999/xlink" preserveAspectRatio="xMidYMid" width="27.06" height="22" viewBox="0 0 27.06 22">
  <path d="M27.069,2.604 C26.072,3.046 25.003,3.345 23.879,3.479 C25.026,2.792 25.906,1.703 26.321,0.407 C25.248,1.042 24.058,1.505 22.793,1.755 C21.779,0.675 20.336,0.000 18.738,0.000 C15.671,0.000 13.183,2.488 13.183,5.554 C13.183,5.989 13.232,6.413 13.327,6.819 C8.711,6.588 4.618,4.376 1.878,1.015 C1.399,1.836 1.127,2.791 1.127,3.808 C1.127,5.735 2.107,7.435 3.597,8.431 C2.687,8.402 1.831,8.151 1.081,7.735 C1.081,7.759 1.081,7.781 1.081,7.805 C1.081,10.495 2.997,12.740 5.536,13.252 C5.071,13.378 4.580,13.446 4.073,13.446 C3.714,13.446 3.367,13.411 3.027,13.346 C3.734,15.553 5.785,17.159 8.215,17.205 C6.315,18.694 3.919,19.582 1.316,19.582 C0.868,19.582 0.426,19.555 -0.009,19.504 C2.450,21.080 5.369,22.000 8.506,22.000 C18.723,22.000 24.311,13.536 24.311,6.195 C24.311,5.955 24.305,5.715 24.294,5.476 C25.380,4.692 26.321,3.715 27.065,2.601 L27.069,2.604 Z"/>
</svg>
