<svg version="1.1" id="Layer_1" xmlns="http://www.w3.org/2000/svg" xmlns:xlink="http://www.w3.org/1999/xlink" x="0px" y="0px"
	 viewBox="-560.3701 262.4485 31.9707 29" enable-background="new -560.3701 262.4485 31.9707 29" xml:space="preserve">
<g id="XMLID_315_">
	<path id="XMLID_343_" d="M-529.3691,272.4485h-10.2256l1.6357-5.7251l0.0381-3.2749l-1-1h-6l-1,1v2.8379l-1.7207,5.1621h-2.2793h-1
		h-9.4492v20h10.4492v-1h16.5518l0.9697-0.7573l4-16L-529.3691,272.4485z M-558.3701,289.4485v-16h6.4492v16H-558.3701z
		 M-549.9209,288.4485v-15h3l0.9482-0.6836l2-6l0.0518-0.3164v-2h4v1.8599l-1.9619,6.8652l0.9619,1.2749h10.2705l-0.4916,1.9663
		h-1.774v2h1.274l-0.5,2h-1.8082v2h1.3082l-0.5,2h-1.8834v2h1.3834l-0.5084,2.0337H-549.9209z"/>
</g>
</svg>
