<?xml version="1.0" encoding="utf-8"?>
<svg version="1.1" id="Layer_1" xmlns="http://www.w3.org/2000/svg" xmlns:xlink="http://www.w3.org/1999/xlink" x="0px" y="0px"
	 viewBox="0 0 96 96" style="enable-background:new 0 0 96 96;" xml:space="preserve">
<g id="XMLID_47_">
	<path id="XMLID_95_" d="M81.3,58.9h-3.8c-0.5,0-1,0.1-1.5,0.3V16.4c0-2.5-2-4.5-4.5-4.5H57.6c-0.7-4.7-4.8-8.2-9.6-8.2
		s-8.9,3.6-9.6,8.2H24.5c-2.5,0-4.5,2-4.5,4.5v42.8c-0.5-0.2-1-0.3-1.5-0.3h-3.8c-2.5,0-4.5,2-4.5,4.5v2v14.5c0,2.5,2,4.5,4.5,4.5
		h3.8c0.5,0,1-0.1,1.5-0.3v3.8c0,2.5,2,4.5,4.5,4.5h47c2.5,0,4.5-2,4.5-4.5v-3.8c0.5,0.2,1,0.3,1.5,0.3h3.8c2.5,0,4.5-2,4.5-4.5
		V65.4v-2C85.8,60.9,83.8,58.9,81.3,58.9z M77.5,61.9h3.8c0.8,0,1.5,0.7,1.5,1.5v2c0,0.8-0.7,1.5-1.5,1.5h-3.8
		c-0.8,0-1.5-0.7-1.5-1.5v-2C76,62.6,76.7,61.9,77.5,61.9z M48,6.6c3.2,0,5.9,2.2,6.6,5.2H41.4C42.1,8.9,44.8,6.6,48,6.6z
		 M71.5,14.9c0.2,0,0.4,0,0.5,0.1c0,0,0,0,0,0c0.2,0.1,0.3,0.2,0.4,0.3c0,0,0,0,0,0c0.1,0.1,0.2,0.2,0.3,0.4c0,0,0,0,0,0.1
		c0.1,0.1,0.1,0.3,0.1,0.5c0,0,0,0,0,0.1L67,43l0,0.3c0,0.8-0.7,1.5-1.5,1.5H62v-5.5c0-0.8-0.7-1.5-1.5-1.5S59,38.5,59,39.3v5.5H37
		v-5.5c0-0.8-0.7-1.5-1.5-1.5S34,38.5,34,39.3v5.5h-3.5c-0.8,0-1.5-0.7-1.5-1.5l-6-27c0,0,0,0,0-0.1c0-0.2,0.1-0.3,0.1-0.5
		c0,0,0,0,0-0.1c0.1-0.1,0.2-0.3,0.3-0.4c0,0,0,0,0,0c0.1-0.1,0.3-0.2,0.4-0.3c0,0,0,0,0,0c0.2-0.1,0.3-0.1,0.5-0.1H71.5z
		 M13.2,63.4c0-0.8,0.7-1.5,1.5-1.5h3.8c0.8,0,1.5,0.7,1.5,1.5v2c0,0.8-0.7,1.5-1.5,1.5h-3.8c-0.8,0-1.5-0.7-1.5-1.5V63.4z
		 M18.5,81.4h-3.8c-0.8,0-1.5-0.7-1.5-1.5V69.6c0.5,0.2,1,0.3,1.5,0.3h3.8c0.5,0,1-0.1,1.5-0.3v10.2C20,80.7,19.3,81.4,18.5,81.4z
		 M73,87.9c0,0.8-0.7,1.5-1.5,1.5h-47c-0.8,0-1.5-0.7-1.5-1.5v-8V65.4v-2V29.9l3,13.6c0.1,2.4,2.1,4.3,4.5,4.3H34v5.5
		c0,0.8,0.7,1.5,1.5,1.5s1.5-0.7,1.5-1.5v-5.5h22v5.5c0,0.8,0.7,1.5,1.5,1.5s1.5-0.7,1.5-1.5v-5.5h3.5c2.4,0,4.4-1.9,4.5-4.3L73,30
		v33.4v2v14.5V87.9z M81.3,81.4h-3.8c-0.8,0-1.5-0.7-1.5-1.5V69.6c0.5,0.2,1,0.3,1.5,0.3h3.8c0.5,0,1-0.1,1.5-0.3v10.2
		C82.8,80.7,82.1,81.4,81.3,81.4z"/>
	<path id="XMLID_48_" d="M66.5,58.9h-37c-1.4,0-2.5,1.1-2.5,2.5v6v14.5c0,1.4,1.1,2.5,2.5,2.5h37c1.4,0,2.5-1.1,2.5-2.5V67.4v-6
		C69,60,67.9,58.9,66.5,58.9z M30,61.9h36v5H30V61.9z M30,81.4V69.9h4v3.4c0,0.8,0.7,1.5,1.5,1.5s1.5-0.7,1.5-1.5v-3.4h29v11.5H30z"
		/>
</g>
</svg>
