<svg version="1.1" id="Layer_1" xmlns="http://www.w3.org/2000/svg" xmlns:xlink="http://www.w3.org/1999/xlink" x="0px" y="0px"
	 viewBox="0 0 31.3965 29.9223" enable-background="new 0 0 31.3965 29.9223" xml:space="preserve">
<g id="XMLID_253_">
	<path id="XMLID_254_" d="M24.5029,29.9223l-8.8047-4.6294l-8.8047,4.6294l-1.4512-1.0542l1.6816-9.8052L0,12.1196l0.5547-1.7061
		l9.8447-1.4616L14.8018,0h1.793l4.4033,8.9519l9.8438,1.4459l0.5547,1.7139l-7.124,6.9473l1.6816,9.8071L24.5029,29.9223z
		 M15.2324,23h0.9316l7.4766,4.07l-1.4277-8.2567L22.5,17.9628l6.0488-5.8786l-8.3584-1.2057l-0.7529-0.543l-3.7393-7.5725
		L11.96,10.3387l-0.7529,0.5479l-8.3594,1.2146l6.0488,5.8961l0.2871,0.8853L7.7559,27.07L15.2324,23z"/>
</g>
</svg>
