<svg id="Layer_1" data-name="Layer 1" xmlns="http://www.w3.org/2000/svg" width="613.6359" height="295.2626" viewBox="0 0 613.6359 295.2626"><defs><style>.cls-1{fill:#fff;}.cls-2{fill:#4ac9e3;}.cls-3{fill:#ffce33;}</style></defs><title>trip-kraine</title><path class="cls-1" d="M201.3635,158.5042c-3.1879,0-5.6072-1.534-5.6072-6.09V140.8349H209.27V129.66H195.7563V118.1235h-12.627V129.66h-7.3827v11.175h7.3827v13.192c0,9.9236,4.7992,16.2568,15.4092,16.2568a22.5742,22.5742,0,0,0,14.04-4.3952l-4.3573-9.8447C206.2448,157.2132,203.7023,158.5042,201.3635,158.5042Z"/><path class="cls-1" d="M229.7857,134.2192V129.66h-12.103v39.5759H230.31V147.8547c0-4.9207,2.7428-7.1413,7.2217-7.1413a21.3178,21.3178,0,0,1,6.3332,1.0479l1.1694-12.5843a16.447,16.447,0,0,0-4.4378-.6077C235.756,128.5693,232.0851,130.3858,229.7857,134.2192Z"/><rect class="cls-1" x="249.9334" y="129.6599" width="12.627" height="39.5759"/><path class="cls-1" d="M256.1861,109.8916a7.5437,7.5437,0,1,0,7.5437,7.5847A7.4407,7.4407,0,0,0,256.1861,109.8916Z"/><path class="cls-1" d="M294.8045,128.5693a13.5225,13.5225,0,0,0-11.336,5.3675V129.66H271.285V185.371h12.5859V165.4845a13.5466,13.5466,0,0,0,10.9336,4.7992c10.5691,0,18.4363-9.1976,18.4363-20.895C313.2408,137.77,305.3736,128.5693,294.8045,128.5693Zm-10.8761,20.81a8.6338,8.6338,0,1,1,8.6736,8.7114A8.795,8.795,0,0,1,283.9284,149.3789Z"/><path class="cls-1" d="M393.0857,149.4593a26.89,26.89,0,0,1-.2436,3.9208H365.9567c1.0517,4.3256,4.1248,6.3469,8.49,6.3469a13.1922,13.1922,0,0,0,8.653-3.4764l8.1657,7.6012c-4.1232,4.1248-10.1475,6.5082-17.4655,6.5082-12.4519,0-20.9007-8.2859-20.9007-20.6571,0-12.493,8.2875-21.1475,20.3361-21.1475C384.999,128.5554,393.0446,137.0486,393.0857,149.4593Zm-27.0879-4.082h14.4336c-1.0106-3.9635-3.4779-6.0671-7.1567-6.0671C369.354,139.31,366.9673,141.4533,365.9978,145.3773Z"/><path class="cls-1" d="M437.8893,149.4593a26.89,26.89,0,0,1-.2436,3.9208H410.76c1.0518,4.3256,4.1248,6.3469,8.49,6.3469a13.1922,13.1922,0,0,0,8.653-3.4764l8.1657,7.6012c-4.1232,4.1248-10.1475,6.5082-17.4655,6.5082-12.4519,0-20.9007-8.2859-20.9007-20.6571,0-12.493,8.2875-21.1475,20.3361-21.1475C429.8026,128.5554,437.8482,137.0486,437.8893,149.4593Zm-27.0879-4.082H425.235c-1.0106-3.9635-3.4779-6.0671-7.1567-6.0671C414.1576,139.31,411.7709,141.4533,410.8014,145.3773Z"/><path class="cls-1" d="M341.8562,149.41a8.6525,8.6525,0,1,1-8.6118-8.5723A8.8583,8.8583,0,0,1,341.8562,149.41Z"/><path class="cls-2" d="M451.9618,234.3394a8.6525,8.6525,0,1,1-8.6118-8.5722A8.8583,8.8583,0,0,1,451.9618,234.3394Z"/><path class="cls-3" d="M167.818,29.0429a8.6525,8.6525,0,1,1-17.3042,0,8.6525,8.6525,0,0,1,17.3042,0Z"/><path class="cls-3" d="M237.818,36.0429a8.6525,8.6525,0,1,1-17.3042,0,8.6525,8.6525,0,0,1,17.3042,0Z"/><path class="cls-2" d="M166.4089,8.5723a8.6525,8.6525,0,1,1-17.3042,0,8.6525,8.6525,0,0,1,17.3042,0Z"/><path class="cls-3" d="M125.18,27.9267a8.6525,8.6525,0,1,1-17.3042,0,8.6525,8.6525,0,0,1,17.3042,0Z"/><path class="cls-3" d="M84.9164,57.8939a8.6525,8.6525,0,1,1-8.6117-8.5722A8.8583,8.8583,0,0,1,84.9164,57.8939Z"/><path class="cls-2" d="M61.7867,89.3617a8.6525,8.6525,0,1,1-8.6118-8.5723A8.8583,8.8583,0,0,1,61.7867,89.3617Z"/><path class="cls-2" d="M50.793,124.0952a8.8583,8.8583,0,0,1-8.6118,8.73,8.6513,8.6513,0,1,1,0-17.3025A8.7708,8.7708,0,0,1,50.793,124.0952Z"/><path class="cls-3" d="M17.3042,136.4907a8.8583,8.8583,0,0,1-8.6118,8.73,8.6513,8.6513,0,1,1,0-17.3025A8.7708,8.7708,0,0,1,17.3042,136.4907Z"/><path class="cls-3" d="M120.3919,117.3978a8.6525,8.6525,0,1,1-8.6118-8.5723A8.8583,8.8583,0,0,1,120.3919,117.3978Z"/><path class="cls-2" d="M162.8551,142.9339a8.6525,8.6525,0,1,1-8.6118-8.5723A8.8583,8.8583,0,0,1,162.8551,142.9339Z"/><path class="cls-2" d="M104.4678,67.2317a8.6525,8.6525,0,1,1-8.6118-8.5723A8.8583,8.8583,0,0,1,104.4678,67.2317Z"/><path class="cls-2" d="M51.9708,57.694a8.8583,8.8583,0,0,1-8.6118,8.73,8.6514,8.6514,0,1,1,0-17.3026A8.7709,8.7709,0,0,1,51.9708,57.694Z"/><path class="cls-3" d="M613.6359,286.5324a8.6525,8.6525,0,1,1-8.6118-8.5723A8.8583,8.8583,0,0,1,613.6359,286.5324Z"/></svg>