<?xml version="1.0" encoding="utf-8"?>
<!-- Generator: Adobe Illustrator 19.0.0, SVG Export Plug-In . SVG Version: 6.00 Build 0)  -->
<svg version="1.1" id="Layer_1" xmlns="http://www.w3.org/2000/svg" xmlns:xlink="http://www.w3.org/1999/xlink" x="0px" y="0px"
	 viewBox="0 0 150 72.2" enable-background="new 0 0 150 72.2" xml:space="preserve">
<g id="XMLID_52_">
	<g id="XMLID_1951_">
		<path id="XMLID_1969_" fill="#444444" d="M49.2,38.7c-0.8,0-1.4-0.4-1.4-1.5v-2.8h3.3v-2.7h-3.3v-2.8h-3.1v2.8H43v2.7h1.8v3.2
			c0,2.4,1.2,4,3.8,4c1.6,0,2.5-0.4,3.4-1.1l-1.1-2.4C50.4,38.4,49.8,38.7,49.2,38.7z"/>
		<path id="XMLID_1966_" fill="#444444" d="M56.2,32.8v-1.1h-3v9.7h3.1v-5.2c0-1.2,0.7-1.7,1.8-1.7c0.6,0,1.1,0.1,1.5,0.3l0.3-3.1
			c-0.2-0.1-0.6-0.1-1.1-0.1C57.6,31.4,56.7,31.9,56.2,32.8z"/>
		<rect id="XMLID_1963_" x="61.1" y="31.7" fill="#444444" width="3.1" height="9.7"/>
		<path id="XMLID_1956_" fill="#444444" d="M62.6,26.9c-1,0-1.8,0.8-1.8,1.9c0,1,0.8,1.8,1.8,1.8c1,0,1.8-0.8,1.8-1.8
			C64.5,27.7,63.7,26.9,62.6,26.9z"/>
		<path id="XMLID_1952_" fill="#444444" d="M72.1,31.4c-1.3,0-2.2,0.6-2.8,1.3v-1h-3v13.6h3.1v-4.9c0.6,0.7,1.4,1.2,2.7,1.2
			c2.6,0,4.5-2.2,4.5-5.1C76.6,33.7,74.6,31.4,72.1,31.4z M69.4,36.5c0-1.1,1-2.1,2.1-2.1c1.1,0,2.1,1,2.1,2.1c0,1.1-1,2.1-2.1,2.1
			C70.4,38.6,69.4,37.7,69.4,36.5z"/>
	</g>
	<g id="XMLID_1204_">
		<path id="XMLID_1948_" fill="#444444" d="M96.1,36.5c0,0.3,0,0.8-0.1,1h-6.6c0.3,1.1,1,1.6,2.1,1.6c0.7,0,1.5-0.3,2.1-0.8l2,1.9
			c-1,1-2.5,1.6-4.3,1.6c-3,0-5.1-2-5.1-5c0-3.1,2-5.2,5-5.2C94.1,31.4,96.1,33.5,96.1,36.5z M89.5,35.5H93c-0.2-1-0.9-1.5-1.7-1.5
			C90.3,34.1,89.7,34.6,89.5,35.5z"/>
		<path id="XMLID_1205_" fill="#444444" d="M107,36.5c0,0.3,0,0.8-0.1,1h-6.6c0.3,1.1,1,1.6,2.1,1.6c0.7,0,1.5-0.3,2.1-0.8l2,1.9
			c-1,1-2.5,1.6-4.3,1.6c-3,0-5.1-2-5.1-5c0-3.1,2-5.2,5-5.2C105.1,31.4,107,33.5,107,36.5z M100.4,35.5h3.5c-0.2-1-0.9-1.5-1.7-1.5
			C101.2,34.1,100.7,34.6,100.4,35.5z"/>
	</g>
	<g id="XMLID_675_">
		<path id="XMLID_679_" fill="#444444" d="M83.6,36.5c0,1.1-1,2.1-2.1,2.1c-1.1,0-2.1-1-2.1-2.1c0-1.1,1-2.1,2.1-2.1
			C82.6,34.4,83.6,35.4,83.6,36.5z"/>
	</g>
</g>
<g id="XMLID_2152_">
	<path id="XMLID_2153_" fill="#4AC9E3" d="M110.5,57.3c0,1.1-1,2.1-2.1,2.1c-1.1,0-2.1-1-2.1-2.1c0-1.1,1-2.1,2.1-2.1
		C109.5,55.2,110.5,56.2,110.5,57.3z"/>
</g>
<g id="XMLID_2149_">
	<path id="XMLID_2150_" fill="#FFCE33" d="M41,7.1c0,1.1-1,2.1-2.1,2.1c-1.1,0-2.1-1-2.1-2.1c0-1.1,1-2.1,2.1-2.1C40,5,41,6,41,7.1z
		"/>
</g>
<g id="XMLID_61_">
	<path id="XMLID_62_" fill="#8EDD65" d="M58.1,8.8c0,1.1-1,2.1-2.1,2.1c-1.1,0-2.1-1-2.1-2.1c0-1.1,1-2.1,2.1-2.1
		C57.2,6.7,58.1,7.7,58.1,8.8z"/>
</g>
<g id="XMLID_2146_">
	<path id="XMLID_2147_" fill="#FF5050" d="M40.7,2.1c0,1.1-1,2.1-2.1,2.1c-1.1,0-2.1-1-2.1-2.1c0-1.1,1-2.1,2.1-2.1
		C39.7,0,40.7,1,40.7,2.1z"/>
</g>
<g id="XMLID_2143_">
	<path id="XMLID_2144_" fill="#FF9A3E" d="M30.6,6.8c0,1.1-1,2.1-2.1,2.1c-1.1,0-2.1-1-2.1-2.1c0-1.1,1-2.1,2.1-2.1
		C29.6,4.7,30.6,5.7,30.6,6.8z"/>
</g>
<g id="XMLID_2140_">
	<path id="XMLID_2141_" fill="#8B84D7" d="M20.8,14.2c0,1.1-1,2.1-2.1,2.1c-1.1,0-2.1-1-2.1-2.1c0-1.1,1-2.1,2.1-2.1
		C19.8,12.1,20.8,13,20.8,14.2z"/>
</g>
<g id="XMLID_2137_">
	<path id="XMLID_2138_" fill="#FF5050" d="M15.1,21.8c0,1.1-1,2.1-2.1,2.1c-1.1,0-2.1-1-2.1-2.1c0-1.1,1-2.1,2.1-2.1
		C14.1,19.7,15.1,20.7,15.1,21.8z"/>
</g>
<g id="XMLID_2134_">
	<path id="XMLID_2135_" fill="#FF9A3E" d="M12.4,30.3c0,1.1-1,2.1-2.1,2.1c-1.1,0-2.1-1-2.1-2.1c0-1.1,1-2.1,2.1-2.1
		C11.4,28.2,12.4,29.2,12.4,30.3z"/>
</g>
<g id="XMLID_2131_">
	<path id="XMLID_2132_" fill="#8EDD65" d="M4.2,33.4c0,1.1-1,2.1-2.1,2.1c-1.1,0-2.1-1-2.1-2.1c0-1.1,1-2.1,2.1-2.1
		C3.3,31.3,4.2,32.2,4.2,33.4z"/>
</g>
<g id="XMLID_2128_">
	<path id="XMLID_2129_" fill="#FFCE33" d="M29.4,28.7c0,1.1-1,2.1-2.1,2.1c-1.1,0-2.1-1-2.1-2.1c0-1.1,1-2.1,2.1-2.1
		C28.5,26.6,29.4,27.6,29.4,28.7z"/>
</g>
<g id="XMLID_2125_">
	<path id="XMLID_2126_" fill="#8B84D7" d="M39.8,34.9c0,1.1-1,2.1-2.1,2.1c-1.1,0-2.1-1-2.1-2.1c0-1.1,1-2.1,2.1-2.1
		C38.8,32.8,39.8,33.8,39.8,34.9z"/>
</g>
<g id="XMLID_2122_">
	<path id="XMLID_2123_" fill="#4AC9E3" d="M25.5,16.4c0,1.1-1,2.1-2.1,2.1c-1.1,0-2.1-1-2.1-2.1c0-1.1,1-2.1,2.1-2.1
		C24.6,14.3,25.5,15.3,25.5,16.4z"/>
</g>
<g id="XMLID_2119_">
	<path id="XMLID_2120_" fill="#8EDD65" d="M12.7,14.1c0,1.1-1,2.1-2.1,2.1c-1.1,0-2.1-1-2.1-2.1c0-1.1,1-2.1,2.1-2.1
		C11.7,12,12.7,13,12.7,14.1z"/>
</g>
<g id="XMLID_2116_">
	<path id="XMLID_2117_" fill="#FF5050" d="M150,70c0,1.1-1,2.1-2.1,2.1c-1.1,0-2.1-1-2.1-2.1c0-1.1,1-2.1,2.1-2.1
		C149,67.9,150,68.9,150,70z"/>
</g>
</svg>
