<?xml version="1.0" encoding="utf-8"?>
<!-- Generator: Adobe Illustrator 19.0.0, SVG Export Plug-In . SVG Version: 6.00 Build 0)  -->
<svg version="1.1" id="Layer_1" xmlns="http://www.w3.org/2000/svg" xmlns:xlink="http://www.w3.org/1999/xlink" x="0px" y="0px"
	 viewBox="0 0 235.6465 67.8503" style="enable-background:new 0 0 235.6465 67.8503;" xml:space="preserve" fill="#ffffff">
<g id="XMLID_523_">
	<g id="XMLID_569_">
		<path id="XMLID_1989_" d="M23.0277,43.699c-2.8658,0-5.0405-1.379-5.0405-5.4746V27.8157h12.148V17.7701h-12.148V7.3998H6.6365
			v10.3703H0v10.0456h6.6365v11.8586c0,8.9205,4.3141,14.6136,13.8517,14.6136c5.73,0,9.2838-1.63,12.6205-3.9509l-3.917-8.8497
			C27.4156,42.5385,25.1301,43.699,23.0277,43.699z"/>
		<path id="XMLID_1986_" d="M48.5771,21.8687v-4.0986H37.6974v35.5758h11.3507v-19.22c0-4.4234,2.4656-6.4195,6.4918-6.4195
			c2.0301,0,4.1694,0.437,5.6931,0.942l1.0512-11.3123c-0.8696-0.254-2.321-0.5463-3.9893-0.5463
			C53.9439,16.7898,50.6441,18.4227,48.5771,21.8687z"/>
		<rect id="XMLID_631_" x="66.6883" y="17.7701" width="11.3507" height="35.5758"/>
		<path id="XMLID_624_" d="M72.3091,0c-3.8446,0-6.7812,2.9735-6.7812,6.8181c0,3.8091,2.9366,6.7442,6.7812,6.7442
			c3.80759,0,6.7811-2.9351,6.7811-6.7442C79.0902,2.9735,76.1167,0,72.3091,0z"/>
		<path id="XMLID_570_" d="M107.0241,16.7898c-4.82349,0-8.0509,2.0315-10.1903,4.8249v-3.8446h-10.952v50.0801h11.3138V49.9738
			c2.1408,2.5394,5.259,4.3141,9.8285,4.3141c9.5007,0,16.5728-8.268,16.5728-18.783
			C123.5969,25.0607,116.5248,16.7898,107.0241,16.7898z M97.2472,35.496c0-4.1369,3.6261-7.6892,7.797-7.6892
			c4.134,0,7.7246,3.5523,7.7246,7.6892c0,4.2048-3.5906,7.8309-7.7246,7.8309C100.8733,43.3269,97.2472,39.7008,97.2472,35.496z"/>
	</g>
	<g id="XMLID_528_">
		<path id="XMLID_564_" d="M195.3714,35.5683c0,1.163-0.07249,2.761-0.2189,3.5245h-24.168
			c0.9454,3.8884,3.7079,5.7054,7.63181,5.7054c2.65439,0,5.5249-1.089,7.77831-3.125l7.34039,6.8329
			c-3.70639,3.7079-9.1218,5.8504-15.7002,5.8504c-11.19321,0-18.7881-7.4484-18.7881-18.5692
			c0-11.2302,7.44991-19.01,18.28059-19.01C188.1021,16.7773,195.3345,24.4121,195.3714,35.5683z M171.0215,31.8989h12.9747
			c-0.90851-3.5629-3.1264-5.4538-6.4334-5.4538C174.03839,26.4451,171.89301,28.3715,171.0215,31.8989z"/>
		<path id="XMLID_533_" d="M235.6465,35.5683c0,1.163-0.07251,2.761-0.21901,3.5245h-24.168
			c0.94551,3.8884,3.7079,5.7054,7.63191,5.7054c2.65439,0,5.5248-1.089,7.77829-3.125l7.3403,6.8329
			c-3.70639,3.7079-9.1218,5.8504-15.7001,5.8504c-11.19328,0-18.78809-7.4484-18.78809-18.5692
			c0-11.2302,7.4498-19.01,18.28059-19.01C228.3772,16.7773,235.6095,24.4121,235.6465,35.5683z M211.29649,31.8989h12.9747
			c-0.9084-3.5629-3.1264-5.4538-6.4333-5.4538C214.3134,26.4451,212.168,28.3715,211.29649,31.8989z"/>
	</g>
	<g id="XMLID_524_">
		<path id="XMLID_525_" d="M149.31999,35.524c0,4.2139-3.59839,7.8478-7.74139,7.8478c-4.1799,0-7.8138-3.6339-7.8138-7.8478
			c0-4.1459,3.6339-7.7059,7.8138-7.7059C145.7216,27.8181,149.31999,31.3781,149.31999,35.524z"/>
	</g>
</g>
</svg>
