<?xml version="1.0" encoding="utf-8"?>
<!-- Generator: Adobe Illustrator 19.0.0, SVG Export Plug-In . SVG Version: 6.00 Build 0)  -->
<svg version="1.1" id="Layer_1" xmlns="http://www.w3.org/2000/svg" xmlns:xlink="http://www.w3.org/1999/xlink" x="0px" y="0px"
	 viewBox="0 0 150 150" enable-background="new 0 0 150 150" xml:space="preserve">
<g id="XMLID_3442_">
	<path id="XMLID_3447_" fill="#231F20" d="M102.5,84.6h-3.2c-0.4,0-0.9,0.1-1.2,0.2V49.3c0-2.1-1.7-3.7-3.7-3.7H82.8
		c-0.6-3.9-3.9-6.8-8-6.8c-4,0-7.4,3-8,6.8H55.3c-2.1,0-3.7,1.7-3.7,3.7v35.6c-0.4-0.1-0.8-0.2-1.2-0.2h-3.2c-2.1,0-3.7,1.7-3.7,3.7
		V90v12c0,2.1,1.7,3.7,3.7,3.7h3.2c0.4,0,0.9-0.1,1.2-0.2v3.1c0,2.1,1.7,3.7,3.7,3.7h39c2.1,0,3.7-1.7,3.7-3.7v-3.1
		c0.4,0.1,0.8,0.2,1.2,0.2h3.2c2.1,0,3.7-1.7,3.7-3.7V90v-1.7C106.2,86.3,104.5,84.6,102.5,84.6z M99.3,87.1h3.2
		c0.7,0,1.2,0.6,1.2,1.2V90c0,0.7-0.6,1.2-1.2,1.2h-3.2c-0.7,0-1.2-0.6-1.2-1.2v-1.7C98.1,87.7,98.6,87.1,99.3,87.1z M74.8,41.2
		c2.7,0,4.9,1.9,5.5,4.4H69.4C69.9,43.1,72.2,41.2,74.8,41.2z M94.3,48c0.2,0,0.3,0,0.4,0.1c0,0,0,0,0,0c0.1,0.1,0.2,0.1,0.3,0.2
		c0,0,0,0,0,0c0.1,0.1,0.2,0.2,0.2,0.3c0,0,0,0,0,0.1c0.1,0.1,0.1,0.2,0.1,0.4c0,0,0,0,0,0.1l-4.9,22.2l0,0.3c0,0.7-0.6,1.2-1.2,1.2
		h-2.9v-4.6c0-0.7-0.6-1.2-1.2-1.2c-0.7,0-1.2,0.6-1.2,1.2v4.6H65.7v-4.6c0-0.7-0.6-1.2-1.2-1.2s-1.2,0.6-1.2,1.2v4.6h-2.9
		c-0.7,0-1.2-0.6-1.2-1.2l-5-22.5c0,0,0,0,0-0.1c0-0.1,0.1-0.3,0.1-0.4c0,0,0,0,0-0.1c0.1-0.1,0.1-0.2,0.2-0.3c0,0,0,0,0,0
		c0.1-0.1,0.2-0.2,0.3-0.2c0,0,0,0,0,0c0.1-0.1,0.3-0.1,0.4-0.1H94.3z M45.9,88.4c0-0.7,0.6-1.2,1.2-1.2h3.2c0.7,0,1.2,0.6,1.2,1.2
		V90c0,0.7-0.6,1.2-1.2,1.2h-3.2c-0.7,0-1.2-0.6-1.2-1.2V88.4z M50.3,103.3h-3.2c-0.7,0-1.2-0.6-1.2-1.2v-8.5
		c0.4,0.1,0.8,0.2,1.2,0.2h3.2c0.4,0,0.9-0.1,1.2-0.2v8.5C51.6,102.7,51,103.3,50.3,103.3z M95.6,108.7c0,0.7-0.6,1.2-1.2,1.2h-39
		c-0.7,0-1.2-0.6-1.2-1.2V102V90v-1.7V60.5l2.5,11.3c0.1,2,1.7,3.6,3.7,3.6h2.9v4.6c0,0.7,0.6,1.2,1.2,1.2s1.2-0.6,1.2-1.2v-4.6H84
		v4.6c0,0.7,0.6,1.2,1.2,1.2c0.7,0,1.2-0.6,1.2-1.2v-4.6h2.9c2,0,3.7-1.6,3.7-3.6l2.5-11.2v27.8V90v12V108.7z M102.5,103.3h-3.2
		c-0.7,0-1.2-0.6-1.2-1.2v-8.5c0.4,0.1,0.8,0.2,1.2,0.2h3.2c0.4,0,0.9-0.1,1.2-0.2v8.5C103.7,102.7,103.2,103.3,102.5,103.3z"/>
	<path id="XMLID_3443_" fill="#231F20" d="M90.2,84.6H59.5c-1.1,0-2.1,0.9-2.1,2.1v5v12c0,1.1,0.9,2.1,2.1,2.1h30.7
		c1.1,0,2.1-0.9,2.1-2.1v-12v-5C92.3,85.6,91.3,84.6,90.2,84.6z M59.9,87.1h29.9v4.1H59.9V87.1z M59.9,103.3v-9.5h3.3v2.9
		c0,0.7,0.6,1.2,1.2,1.2s1.2-0.6,1.2-1.2v-2.9h24.1v9.5H59.9z"/>
</g>
</svg>
