<?xml version="1.0" encoding="utf-8"?>
<!-- Generator: Adobe Illustrator 19.0.0, SVG Export Plug-In . SVG Version: 6.00 Build 0)  -->
<svg version="1.1" id="Layer_1" xmlns="http://www.w3.org/2000/svg" xmlns:xlink="http://www.w3.org/1999/xlink" x="0px" y="0px"
	 viewBox="0 0 150 150" enable-background="new 0 0 150 150" xml:space="preserve">
<g id="XMLID_3401_">
	<path id="XMLID_3415_" fill="#231F20" d="M79.4,51.4c0.8-1,1.3-2.3,1.3-3.8c0-3.3-2.6-5.9-5.9-5.9c-3.3,0-5.9,2.6-5.9,5.9
		c0,1.4,0.5,2.7,1.3,3.8C56,53.6,45,65.9,45,80.8c0,16.4,13.4,29.8,29.8,29.8s29.8-13.4,29.8-29.8C104.6,65.9,93.7,53.6,79.4,51.4z
		 M74.8,44.2c2,0,3.4,1.5,3.4,3.4c0,1.9-1.5,3.4-3.4,3.4c-2,0-3.4-1.5-3.4-3.4C71.4,45.6,72.9,44.2,74.8,44.2z M76,108.1v-4.3h-2.3
		v4.3c-14.1-0.6-25.5-12-26.1-26.1h4.3v-2.3h-4.3c0.6-14.1,12-25.5,26.1-26.1v4.3H76v-4.3c14.1,0.6,25.5,12,26.1,26.1h-4.3v2.3h4.3
		C101.5,96.1,90.1,107.5,76,108.1z"/>
	<line id="XMLID_3417_" fill="#231F20" x1="79.2" y1="83" x2="79.2" y2="83"/>
	<path id="XMLID_3420_" fill="#231F20" d="M79.7,80.3c0-0.1,0-0.3-0.1-0.4l0,0c-0.2-0.9-0.6-1.8-1.3-2.5c-0.9-0.9-2.1-1.4-3.5-1.5
		c0,0,0,0-0.1,0c-1.3,0-2.5,0.5-3.4,1.4c-0.7,0.7-1.2,1.5-1.4,2.5l0,0c0,0.1-0.1,0.3-0.1,0.5c0,0,0,0,0,0c0,0.2,0,0.3,0,0.5
		c0,0.2,0,0.4,0,0.6c0,0,0,0.1,0,0.1c0,0.1,0,0.3,0.1,0.4c0,0,0,0.1,0,0.1c0,0.2,0.1,0.3,0.1,0.5c0,0,0,0,0,0.1
		c0.1,0.2,0.1,0.4,0.2,0.6c0.8,1.6,2.4,2.7,4.3,2.7c0,0,0,0,0.1,0c1.3,0,2.5-0.5,3.5-1.4c0.2-0.2,0.4-0.4,0.6-0.7
		c0.1-0.2,0.3-0.4,0.4-0.7c0.1-0.2,0.1-0.3,0.2-0.5c0.1-0.2,0.1-0.4,0.2-0.6c0-0.1,0-0.2,0.1-0.3c0-0.3,0.1-0.5,0.1-0.8
		C79.7,80.7,79.7,80.5,79.7,80.3C79.7,80.3,79.7,80.3,79.7,80.3z M76.5,82.5c-0.5,0.4-1.1,0.7-1.7,0.7h0c-1.4,0-2.4-1.1-2.4-2.5
		c0-0.7,0.3-1.3,0.7-1.7c0.4-0.4,1.1-0.7,1.7-0.7c0,0,0,0,0,0c0.7,0,1.3,0.3,1.7,0.7c0.4,0.4,0.7,1.1,0.7,1.7
		C77.2,81.5,77,82.1,76.5,82.5z"/>
	<line id="XMLID_3421_" fill="#231F20" x1="70.4" y1="83" x2="70.4" y2="83"/>
	<path id="XMLID_3424_" fill="#231F20" d="M80.5,74.2C78.4,68.5,75,62.1,75,62.1s-3.5,6.3-5.8,12c-1.7,1.4-2.8,3.5-3,5.9
		c0,0.2,0,0.4,0,0.6c-0.1,5.5,7,18.9,7.3,19.5l1.1,2l1.1-2c0.3-0.6,7.7-13.8,7.7-19.3c0-0.2,0-0.4,0-0.6
		C83.3,77.8,82.2,75.7,80.5,74.2z M75,67.6c0.7,1.6,1.5,3.2,2.1,4.9c-0.7-0.2-1.4-0.3-2.2-0.3c0,0-0.1,0-0.1,0
		c-0.7,0-1.4,0.1-2.1,0.3C73.4,70.8,74.2,69.1,75,67.6z M80.9,81.4c0,0.1,0,0.2,0,0.2c0,0.2,0,0.3-0.1,0.5c0,0.1,0,0.2-0.1,0.3
		c0,0.1-0.1,0.3-0.1,0.4c0,0.1-0.1,0.3-0.1,0.4c0,0.1-0.1,0.2-0.1,0.4c-0.3,1-0.6,2-1.1,3.1c-1.3,3.4-3.3,7.3-4.7,10.1
		c-1.4-2.7-3.2-6.7-4.4-10.1c-0.4-1.1-0.7-2.2-1-3.1c0-0.1-0.1-0.2-0.1-0.4c0-0.1-0.1-0.3-0.1-0.4c0-0.1-0.1-0.3-0.1-0.4
		c0-0.1,0-0.2-0.1-0.3c0-0.2,0-0.3-0.1-0.5c0-0.1,0-0.2,0-0.3c0-0.2,0-0.4,0-0.6c0-0.1,0-0.2,0-0.4c0-0.2,0-0.4,0.1-0.7
		c0-0.1,0-0.1,0-0.2c0-0.2,0.1-0.3,0.1-0.5c0-0.1,0-0.1,0.1-0.2c0-0.1,0.1-0.3,0.2-0.4c0-0.1,0-0.1,0.1-0.2c0.1-0.2,0.2-0.3,0.2-0.5
		c0,0,0,0,0-0.1c0.4-0.8,1.1-1.4,1.8-1.9c1-0.7,2.2-1.1,3.5-1.1c0,0,0.1,0,0.1,0c1.3,0,2.5,0.4,3.5,1.1c0.2,0.1,0.4,0.3,0.5,0.4l0,0
		c0.5,0.4,0.9,1,1.2,1.5c0,0,0,0,0,0.1c0.1,0.2,0.2,0.3,0.2,0.5c0,0.1,0,0.1,0.1,0.2c0.1,0.1,0.1,0.3,0.2,0.4c0,0.1,0,0.1,0.1,0.2
		c0,0.1,0.1,0.3,0.1,0.5c0,0.1,0,0.1,0,0.2c0,0.2,0.1,0.4,0.1,0.7l0,0c0,0.1,0,0.2,0,0.4C80.9,80.9,80.9,81.2,80.9,81.4z"/>
</g>
</svg>
