<svg version="1.1" xmlns="http://www.w3.org/2000/svg" xmlns:xlink="http://www.w3.org/1999/xlink" x="0px" y="0px" viewBox="0 0 48 48" enable-background="new 0 0 48 48" xml:space="preserve" fill="#222222">
	<path d="M10.565,10.565c7.4081-7.4081,19.462-7.4081,26.8701,0s7.4081,19.462,0,26.8701s-19.462,7.4081-26.8701,0 S3.1569,17.9731,10.565,10.565 M7.0294,7.0294c-9.3726,9.3726-9.3726,24.5685,0,33.9411s24.5685,9.3726,33.9411,0 s9.3726-24.5685,0-33.9411S16.402-2.3431,7.0294,7.0294L7.0294,7.0294z"/>
	<rect x="13.1322" y="17.8394" transform="matrix(0.7071 0.7071 -0.7071 0.7071 20.5465 -8.5106)" width="14.8286" height="5.4143"/>
	<rect x="13.1322" y="24.4963" transform="matrix(-0.7071 0.7071 -0.7071 -0.7071 54.3109 31.9107)" width="14.8286" height="5.4143"/>
	<rect x="20.0392" y="24.7463" transform="matrix(-0.7071 -0.7071 0.7071 -0.7071 27.4535 66.2786)" width="14.8286" height="5.4143"/>
	<rect x="20.0392" y="18.0894" transform="matrix(0.7071 -0.7071 0.7071 0.7071 -6.6644 25.5037)" width="14.8286" height="5.4143"/>
</svg>
