<svg version="1.1" id="Layer_1" xmlns="http://www.w3.org/2000/svg" xmlns:xlink="http://www.w3.org/1999/xlink" x="0px" y="0px"
	 viewBox="0 0 39 31.2231" enable-background="new 0 0 39 31.2231" xml:space="preserve">
<g id="XMLID_1_">
	<path id="XMLID_23_" d="M15.251,8h8l1-1V1l-1-1h-8h-8l-1,1v6l1,1H15.251z M22.251,6h-6V2h6V6z M8.251,2h6v4h-6V2z"/>
	<path id="XMLID_27_" d="M38.2051,18.2466l-9.1826-1.9277L26.248,9.6177L25.3242,9H5.751L4.7881,9.7295l-1.8667,6.6401
		L0.625,17.2983L0,18.2251v8.5039l1,1h2.8719c0.457,1.9966,2.2408,3.4941,4.3756,3.4941c2.1381,0,3.9246-1.4975,4.3823-3.4941
		h12.7919c0.4569,1.9966,2.2404,3.4941,4.3752,3.4941c2.1381,0,3.925-1.4975,4.3828-3.4941H38l1-1v-7.5039L38.2051,18.2466z
		 M8.2476,29.2231c-1.3765,0-2.4966-1.1182-2.4966-2.4932c0-1.3809,1.1201-2.5039,2.4966-2.5039
		c1.3804,0,2.5034,1.123,2.5034,2.5039C10.751,28.105,9.6279,29.2231,8.2476,29.2231z M29.7969,29.2231
		c-1.376,0-2.4961-1.1182-2.4961-2.4932c0-1.3809,1.1201-2.5039,2.4961-2.5039c1.3809,0,2.5039,1.123,2.5039,2.5039
		C32.3008,28.105,31.1777,29.2231,29.7969,29.2231z M37,25.729h-2.8203c-0.4576-2.0016-2.2446-3.5029-4.3829-3.5029
		c-2.1349,0-3.9185,1.5013-4.3753,3.5029H12.6299c-0.4575-2.0016-2.2441-3.5029-4.3824-3.5029
		c-2.1349,0-3.9188,1.5013-4.3757,3.5029H2v-6.8291l2.126-0.8604l0.5879-0.6562L6.5088,11h18.1475l2.7207,6.5718l0.7188,0.5957
		L37,20.0366V25.729z"/>
</g>
</svg>
