<svg version="1.1" xmlns="http://www.w3.org/2000/svg" xmlns:xlink="http://www.w3.org/1999/xlink" x="0px" y="0px" viewBox="0 0 48 48" enable-background="new 0 0 48 48" xml:space="preserve" fill="#222222">
	<path d="M24,5c10.4766,0,19,8.5234,19,19s-8.5234,19-19,19S5,34.4766,5,24S13.5234,5,24,5 M24,0C10.7452,0,0,10.7452,0,24 s10.7452,24,24,24s24-10.7452,24-24S37.2548,0,24,0L24,0z"/>
	<rect x="21.2928" y="11.7017" width="5.4143" height="14.8286"/>
	<rect x="11.8785" y="21.1161" width="14.8286" height="5.4143"/>
	<rect x="21.2928" y="21.4697" width="5.4143" height="14.8286"/>
	<rect x="21.2929" y="21.4696" width="14.8286" height="5.4143"/>
</svg>
