<svg version="1.1" xmlns="http://www.w3.org/2000/svg" xmlns:xlink="http://www.w3.org/1999/xlink" x="0px" y="0px"
	 viewBox="0 0 20 19" enable-background="new 0 0 20 19" xml:space="preserve" fill="#231F20">
<g>
	<path fill="none" d="M2,8v9h16V8H2z M7,15H5v-2h2V15z M7,12H5v-2h2V12z M11,15H9v-2h2V15z M11,12H9v-2h2V12z M15,15 h-2v-2h2V15z M15,12h-2v-2h2V12z"/>
	<polygon fill="none" points="18,6 18,4 15,4 15,5 13,5 13,4 7,4 7,5 5,5 5,4 2,4 2,6 	"/>
	<path d="M19,2h-4V0h-2v2H7V0H5v2H1L0,3v15l1,1h18l1-1V3L19,2z M5,4v1h2V4h6v1h2V4h3v2H2V4H5z M2,17 V8h16v9H2z"/>
	<rect x="5" y="10" width="2" height="2"/>
	<rect x="9" y="10" width="2" height="2"/>
	<rect x="13" y="10" width="2" height="2"/>
	<rect x="5" y="13" width="2" height="2"/>
	<rect x="9" y="13" width="2" height="2"/>
	<rect x="13" y="13" width="2" height="2"/>
</g>
</svg>
