<svg version="1.1" id="Layer_1" xmlns="http://www.w3.org/2000/svg" xmlns:xlink="http://www.w3.org/1999/xlink" x="0px" y="0px"
	 viewBox="-560.3701 263.4485 31.9707 28" enable-background="new -560.3701 263.4485 31.9707 28" xml:space="preserve">
<g id="XMLID_315_">
	<path id="XMLID_343_" d="M-528.3994,280.2058l-4-16l-0.9697-0.7573h-16.5518l0,0h-10.4492v20h10.4492v-1h2.2793l1.7207,5.1621
		v2.8379l1,1h6l1-1l-0.0381-3.2749l-1.6357-5.7251h10.2256L-528.3994,280.2058z M-534.1504,265.4485l0.5084,2.0337h-1.3834v2h1.8834
		l0.5,2h-1.3082v2h1.8082l0.5,2h-1.274v2h1.774l0.4916,1.9663h-10.2705l-0.9619,1.2749l1.9619,6.8652v1.8599h-4v-2l-0.0518-0.3164
		l-2-6l-0.9482-0.6836h-3v-15H-534.1504z"/>
</g>
<path d="M-549.9209,283.4485"/>
</svg>
