<svg version="1.1" id="Layer_1" xmlns="http://www.w3.org/2000/svg" xmlns:xlink="http://www.w3.org/1999/xlink" x="0px" y="0px"
	 viewBox="0 0 24.0127 33.8403" enable-background="new 0 0 24.0127 33.8403" xml:space="preserve">
<g id="XMLID_28_">
	<path id="XMLID_47_" d="M23.0127,9.8276H21.834C21.834,4.4087,17.4253,0,12.0063,0S2.1787,4.4087,2.1787,9.8276H1l-1,1v22.0127l1,1
		h22.0127l1-1V10.8276L23.0127,9.8276z M12.0063,2c4.3164,0,7.8276,3.5112,7.8276,7.8276H4.1787C4.1787,5.5112,7.6899,2,12.0063,2z
		 M22.0127,31.8403H2V11.8276h20.0127V31.8403z"/>
	<path id="XMLID_51_" d="M8.5298,26.6812l0.9766,1.2144h5l0.9766-1.2144l-1.0649-4.855c0.6914-0.6528,1.0884-1.5562,1.0884-2.5278
		c0-1.9297-1.5703-3.5-3.5-3.5s-3.5,1.5703-3.5,3.5c0,0.9717,0.397,1.875,1.0884,2.5278L8.5298,26.6812z M12.0063,17.7983
		c0.8271,0,1.5,0.6729,1.5,1.5c0,0.52-0.27,0.9961-0.7227,1.2734l-0.4541,1.0669l0.9336,4.2568h-2.5137l0.9336-4.2568
		l-0.4541-1.0669c-0.4526-0.2773-0.7227-0.7534-0.7227-1.2734C10.5063,18.4712,11.1792,17.7983,12.0063,17.7983z"/>
</g>
</svg>
