<svg version="1.1" id="Layer_1" xmlns="http://www.w3.org/2000/svg" xmlns:xlink="http://www.w3.org/1999/xlink" x="0px" y="0px"
	 viewBox="0 0 34.3784 32.6084" enable-background="new 0 0 34.3784 32.6084" xml:space="preserve">
<g id="XMLID_58_">
	<path id="XMLID_74_" d="M34.3784,10.5215l-0.4189-1.2754L17.6836,0h-0.9883L0.4194,9.2461L0,10.5215l2.4404,5.4814l0.9365,0.2999
		v15.3056l1,1h9.8237h6h9.8242l1-1v-15.313l0.9131-0.2924L34.3784,10.5215z M2.1958,10.5371l14.9937-8.5176l14.9937,8.5176
		l-1.6162,3.6289L17.6973,6.5762h-1.0156L3.8115,14.166L2.1958,10.5371z M15.2007,30.6084v-6h4v6H15.2007z M29.0249,30.6084h-7.8242
		v-7l-1-1h-6l-1,1v7H5.377V15.5967H5.3224l11.867-6.998l11.867,6.998h-0.0316V30.6084z"/>
</g>
</svg>
