<svg version="1.1" id="Layer_1" xmlns="http://www.w3.org/2000/svg" xmlns:xlink="http://www.w3.org/1999/xlink" x="0px" y="0px"
	 viewBox="0 0 34 35" enable-background="new 0 0 34 35" xml:space="preserve">
<g id="XMLID_80_">
	<path id="XMLID_95_" d="M18,3.0507V0h-2v3.0507C7.0922,3.5727,0,10.9635,0,20h2c0-1.6543,1.3457-3,3-3s3,1.3457,3,3h2
		c0-1.6543,1.3457-3,3-3s3,1.3457,3,3v10c0,2.7568,2.2432,5,5,5s5-2.2432,5-5h-2c0,1.6543-1.3457,3-3,3s-3-1.3457-3-3V20
		c0-1.6543,1.3457-3,3-3s3,1.3457,3,3h2c0-1.6543,1.3457-3,3-3s3,1.3457,3,3h2C34,10.9635,26.9078,3.5727,18,3.0507z M29,15
		c-1.6338,0-3.0869,0.7881-4,2.0029C24.0869,15.7881,22.6338,15,21,15s-3.0869,0.7881-4,2.0029C16.0869,15.7881,14.6338,15,13,15
		s-3.0869,0.7881-4,2.0029C8.0869,15.7881,6.6338,15,5,15c-0.8433,0-1.6382,0.21-2.3354,0.5801C4.5557,9.459,10.2666,5,17,5
		s12.4443,4.459,14.3359,10.5801C30.6377,15.21,29.8428,15,29,15z"/>
</g>
</svg>
