<svg version="1.1" id="Layer_1" xmlns="http://www.w3.org/2000/svg" xmlns:xlink="http://www.w3.org/1999/xlink" x="0px" y="0px"
	 viewBox="0 0 33.9995 32.7612" enable-background="new 0 0 33.9995 32.7612" xml:space="preserve">
<g id="XMLID_15_">
	<path id="XMLID_33_" d="M32.9995,0H14.4053l-1,1v3H1L0,5v20.9653l1,1h2.9995L4,32.0024l1.6509,0.7588l6.7563-5.7959h18.5923l1-1
		V14.3379h1l1-1V1L32.9995,0z M29.9995,24.9653H12.0371l-0.6509,0.2412L6,29.8271l-0.0005-3.8618l-1-1H2V6h11.4053v7.3379l1,1h3
		v2.9419l1.6514,0.7588l4.3135-3.7007h6.6294V24.9653z M31.9995,12.3379H23l-0.6514,0.2412l-2.9434,2.5254v-1.7666l-1-1h-3V2
		h16.5942V12.3379z"/>
</g>
</svg>
