<svg version="1.1" id="Layer_1" xmlns="http://www.w3.org/2000/svg" xmlns:xlink="http://www.w3.org/1999/xlink" x="0px" y="0px"
	 viewBox="0 0 26.5967 34.1455" enable-background="new 0 0 26.5967 34.1455" xml:space="preserve">
<g id="XMLID_51_">
	<path id="XMLID_55_" d="M24.0332,5.3447l-5.3654-0.564l-0.1176-1.1181L15.1514,0L2.5635,1.3232L0,5.6123L2.5762,30.125
		l3.1461-0.3306l-0.2525,2.4019l18.5508,1.9492l2.5762-24.5122L24.0332,5.3447z M7.668,30.417l0.0879-0.8364l13.3711-1.4053
		L18.8816,6.8144l3.9485,0.4151l1.708,2.8579l-2.2974,21.8608L7.668,30.417z M14.3662,2.0938l2.2651,2.4409l2.2974,21.8604
		L4.3564,27.9268L2.0586,6.0664L3.7671,3.208L14.3662,2.0938z"/>
	<path id="XMLID_63_" d="M7.6094,8.9404C8.145,9.374,8.7988,9.6045,9.4785,9.6045c0.105,0,0.2109-0.0054,0.3169-0.0166
		c0.7915-0.0835,1.5034-0.4697,2.0039-1.0879c0.501-0.6187,0.731-1.395,0.6479-2.1865c-0.0835-0.7915-0.4697-1.5029-1.0884-2.0039
		c-0.6187-0.5005-1.394-0.7334-2.186-0.6475C8.3813,3.7456,7.6694,4.1318,7.1689,4.75C6.668,5.3687,6.438,6.145,6.521,6.9365
		C6.6045,7.728,6.9907,8.4395,7.6094,8.9404z M8.7231,6.0088c0.1646-0.2031,0.3984-0.3301,0.6587-0.3574
		C9.4165,5.6475,9.4517,5.646,9.4858,5.646c0.2236,0,0.4385,0.0757,0.6147,0.2183c0.2031,0.1646,0.3301,0.3984,0.3574,0.6582
		c0.0273,0.2603-0.0483,0.5156-0.2129,0.7188S9.8467,7.5713,9.5864,7.5986c-0.543,0.061-1.0195-0.3345-1.0762-0.8711
		C8.4829,6.4673,8.5586,6.2119,8.7231,6.0088z"/>
</g>
</svg>
