<?xml version="1.0" encoding="utf-8"?>
<!-- Generator: Adobe Illustrator 19.0.0, SVG Export Plug-In . SVG Version: 6.00 Build 0)  -->
<svg version="1.1" id="Layer_1" xmlns="http://www.w3.org/2000/svg" xmlns:xlink="http://www.w3.org/1999/xlink" x="0px" y="0px"
	 viewBox="0 0 150 150" enable-background="new 0 0 150 150" xml:space="preserve">
<g id="XMLID_3400_">
	<path id="XMLID_3407_" fill="#231F20" d="M90.8,73.9V52.6h3.9v-2.5h-15c0.6-0.9,0.9-1.9,0.9-3.1c0-3.1-2.4-5.6-5.6-5.6
		c-3.1,0-5.6,2.5-5.6,5.6c0,1.1,0.3,2.2,0.9,3.1h-15v2.5h3.9v21.3c0,6.4,3.8,11.9,9.4,14.4v6.4c-5.1,2.3-8.8,7.3-9.3,13.1h-4v2.5
		h39.4v-2.5h-4c-0.5-5.9-4.1-10.8-9.3-13.1v-2H87v2.8h2.5v-8.1H87v2.8h-5.6v-2C86.9,85.8,90.8,80.3,90.8,73.9z M75,43.9
		c1.8,0,3.1,1.3,3.1,3.1c0,1.7-1.3,3.1-3.1,3.1c-1.8,0-3.1-1.3-3.1-3.1C71.9,45.2,73.2,43.9,75,43.9z M88.2,107.8H61.8
		c0.6-6.7,6.3-12,13.2-12C81.9,95.8,87.6,101.1,88.2,107.8z M78.9,89.1v4.7c-1.3-0.3-2.6-0.5-3.9-0.5c-1.4,0-2.7,0.2-3.9,0.5v-4.7
		c1.3,0.3,2.6,0.5,3.9,0.5C76.3,89.7,77.7,89.5,78.9,89.1z M69.4,77c0-0.1,0-0.2,0-0.3c0-3.1,3.4-9.1,5.6-12.5
		c2.2,3.4,5.6,9.4,5.6,12.5c0,0.1,0,0.2,0,0.4c-0.2,2.9-2.6,5.1-5.5,5.1C72,82.2,69.6,80,69.4,77z M76.2,87.1v-2.5
		c3.7-0.6,6.5-3.5,6.8-7.3c0-0.2,0-0.4,0-0.6c0-5.1-6.3-14.5-7-15.5l-1-1.5l-1,1.5c-0.7,1.1-7,10.4-7,15.5c0,0.2,0,0.4,0,0.5
		c0.2,3.8,3.1,6.8,6.8,7.4v2.5c-6.7-0.6-12-6.3-12-13.2V52.6h26.6v21.3C88.3,80.8,83,86.5,76.2,87.1z"/>
</g>
</svg>
