<?xml version="1.0" encoding="utf-8"?>
<!-- Generator: Adobe Illustrator 19.0.0, SVG Export Plug-In . SVG Version: 6.00 Build 0)  -->
<svg version="1.1" id="Layer_1" xmlns="http://www.w3.org/2000/svg" xmlns:xlink="http://www.w3.org/1999/xlink" x="0px" y="0px"
	 viewBox="0 0 150 150" enable-background="new 0 0 150 150" xml:space="preserve">
<g id="XMLID_3456_">
	<path id="XMLID_3461_" fill="#231F20" d="M74.7,94.3c-3.1,0-5.6,2.5-5.6,5.6c0,3.1,2.4,5.5,5.6,5.5c3.1,0,5.6-2.4,5.6-5.5
		C80.3,96.7,77.8,94.3,74.7,94.3z M74.7,102.9c-1.8,0-3.1-1.3-3.1-3.1c0-1.8,1.3-3.1,3.1-3.1c1.8,0,3.1,1.3,3.1,3.1
		C77.8,101.6,76.5,102.9,74.7,102.9z"/>
	<path id="XMLID_3458_" fill="#231F20" d="M89.6,39.9H59.8c-2.1,0-3.7,1.7-3.7,3.7v63.8c0,2.1,1.7,3.7,3.7,3.7h29.9
		c2.1,0,3.7-1.7,3.7-3.7V43.6C93.4,41.6,91.7,39.9,89.6,39.9z M90.9,107.5c0,0.7-0.6,1.2-1.2,1.2H59.8c-0.7,0-1.2-0.6-1.2-1.2V43.6
		c0-0.7,0.6-1.2,1.2-1.2h29.9c0.7,0,1.2,0.6,1.2,1.2V107.5z"/>
	<path id="XMLID_3457_" fill="#231F20" d="M79,45.7h-8.6c-0.7,0-1.2,0.6-1.2,1.2c0,0.7,0.6,1.2,1.2,1.2H79c0.7,0,1.2-0.6,1.2-1.2
		C80.3,46.3,79.7,45.7,79,45.7z"/>
</g>
</svg>
