<?xml version="1.0" encoding="utf-8"?>
<!-- Generator: Adobe Illustrator 19.0.0, SVG Export Plug-In . SVG Version: 6.00 Build 0)  -->
<svg version="1.1" id="Layer_1" xmlns="http://www.w3.org/2000/svg" xmlns:xlink="http://www.w3.org/1999/xlink" x="0px" y="0px"
	 viewBox="0 0 150 150" enable-background="new 0 0 150 150" xml:space="preserve">
<g id="XMLID_3252_">
	<path id="XMLID_3269_" fill="#231F20" d="M97.1,41.6H54c-1.1,0-2.1,0.9-2.1,2.1v64.8c0,1.1,0.9,2.1,2.1,2.1h43.2
		c1.1,0,2.1-0.9,2.1-2.1V43.7C99.2,42.5,98.3,41.6,97.1,41.6z M96.7,108H54.4V44.1h42.3V108z"/>
	<path id="XMLID_3255_" fill="#231F20" d="M63.4,77C63.4,77,63.4,77.1,63.4,77c0.1,0.1,0.2,0.2,0.2,0.3c2.9,3.3,7.2,5.4,12,5.4
		c4.8,0,9-2.1,12-5.4c0.1-0.1,0.1-0.1,0.2-0.2c0,0,0,0,0-0.1c2.4-2.8,3.8-6.4,3.8-10.3c0-3.9-1.4-7.5-3.8-10.3c0,0,0-0.1-0.1-0.1
		c-0.1-0.1-0.1-0.1-0.2-0.2c-2.9-3.3-7.2-5.4-11.9-5.4c-4.8,0-9,2.1-12,5.4c-0.1,0.1-0.1,0.1-0.2,0.2c0,0,0,0,0,0.1
		c-2.4,2.8-3.8,6.4-3.8,10.3C59.6,70.6,61,74.2,63.4,77z M64.6,58.8c0.7,0.5,1.4,0.9,2.2,1.2c-0.5,2-0.9,4.3-0.9,6.7
		c0,2.4,0.3,4.7,0.9,6.7c-0.8,0.4-1.5,0.8-2.2,1.2c-1.6-2.2-2.6-5-2.6-7.9C62,63.7,63,61,64.6,58.8z M82.7,66.7c0,2-0.3,4-0.7,5.8
		c-1.6-0.5-3.4-0.8-5.1-0.9v-9.7c1.8-0.1,3.5-0.4,5.1-0.9C82.4,62.7,82.7,64.6,82.7,66.7z M68.5,66.7c0-2,0.3-4,0.7-5.8
		c1.6,0.5,3.4,0.8,5.1,0.9v9.7c-1.8,0.1-3.5,0.4-5.1,0.9C68.7,70.7,68.5,68.7,68.5,66.7z M74.3,59.4c-1.5-0.1-3-0.4-4.4-0.8
		c1.1-2.6,2.6-4.5,4.4-5.2V59.4z M74.3,74v6c-1.8-0.6-3.3-2.5-4.4-5.2C71.3,74.4,72.8,74.1,74.3,74z M69.1,78.5
		c-1-0.6-1.9-1.2-2.8-2c0.4-0.3,0.9-0.5,1.3-0.7C68,76.8,68.5,77.7,69.1,78.5z M76.8,80v-6c1.5,0.1,3,0.4,4.4,0.8
		C80.1,77.4,78.6,79.3,76.8,80z M83.5,75.7c0.5,0.2,0.9,0.5,1.3,0.7c-0.8,0.8-1.8,1.5-2.8,2C82.6,77.7,83.1,76.8,83.5,75.7z
		 M76.8,59.4v-6c1.8,0.6,3.3,2.5,4.4,5.2C79.8,59,78.3,59.3,76.8,59.4z M82.1,54.8c1,0.6,1.9,1.2,2.8,2c-0.4,0.3-0.9,0.5-1.3,0.7
		C83.1,56.6,82.6,55.7,82.1,54.8z M67.6,57.6c-0.5-0.2-0.9-0.5-1.3-0.7c0.8-0.8,1.8-1.5,2.8-2C68.5,55.7,68,56.6,67.6,57.6z
		 M86.5,74.6c-0.7-0.5-1.4-0.9-2.2-1.2c0.5-2,0.9-4.3,0.9-6.7c0-2.4-0.3-4.7-0.9-6.7c0.8-0.4,1.5-0.8,2.2-1.2c1.6,2.2,2.6,5,2.6,7.9
		C89.1,69.6,88.1,72.4,86.5,74.6z"/>
	<path id="XMLID_3254_" fill="#231F20" d="M60.8,95.4h29.5c0.7,0,1.2-0.6,1.2-1.2c0-0.7-0.6-1.2-1.2-1.2H60.8
		c-0.7,0-1.2,0.6-1.2,1.2C59.6,94.8,60.1,95.4,60.8,95.4z"/>
	<path id="XMLID_3253_" fill="#231F20" d="M85.3,97.9H65.8c-0.7,0-1.2,0.6-1.2,1.2s0.6,1.2,1.2,1.2h19.6c0.7,0,1.2-0.6,1.2-1.2
		S86,97.9,85.3,97.9z"/>
</g>
</svg>
