<?xml version="1.0" encoding="utf-8"?>
<!-- Generator: Adobe Illustrator 19.0.0, SVG Export Plug-In . SVG Version: 6.00 Build 0)  -->
<svg version="1.1" id="Layer_1" xmlns="http://www.w3.org/2000/svg" xmlns:xlink="http://www.w3.org/1999/xlink" x="0px" y="0px"
	 viewBox="0 0 150 150" enable-background="new 0 0 150 150" xml:space="preserve">
<g id="XMLID_3441_">
	<path id="XMLID_3480_" fill="#231F20" d="M57.1,112.2c-0.1,0-0.1,0-0.2,0c-0.4-0.1-0.7-0.3-0.9-0.7l-4.8-9.1L48,99.2l-9.1-4.5
		c-0.4-0.2-0.6-0.5-0.7-0.9c-0.1-0.4,0.1-0.8,0.3-1.1l2.9-2.9c0.3-0.3,0.7-0.4,1.1-0.3l10.9,2c2.5-3,13-15.7,17-20.6L43.1,58.3
		c-0.4-0.2-0.7-0.5-0.7-1c-0.1-0.4,0.1-0.8,0.4-1.1l7-5.9c0.3-0.2,0.6-0.3,1-0.3l10.4,1.8L85,56l15.9-13.1c0,0,0.1-0.1,0.1-0.1
		c0.5-0.4,5.3-3.4,7.8-0.9c2.4,2.4-0.6,7.4-1.3,8.4c0,0-0.1,0.1-0.1,0.1L95.3,64.9l7.1,36.4c0.1,0.4,0,0.8-0.3,1l-5.3,6.3
		c-0.3,0.3-0.7,0.5-1.1,0.4c-0.4,0-0.8-0.3-1-0.7L80,79.6C65,91.4,60.2,95.2,58.6,96.4l2.4,11.8c0.1,0.4,0,0.8-0.3,1.1l-2.6,2.6
		C57.8,112.1,57.5,112.2,57.1,112.2z M41.6,93.2l7.7,3.8c0.1,0.1,0.2,0.1,0.3,0.2l3.5,3.5c0.1,0.1,0.2,0.2,0.2,0.3l4.1,7.8l0.9-0.9
		L56,96.1c-0.1-0.5,0.1-1,0.5-1.3c0.8-0.6,14.3-11.2,23.1-18.2c0.3-0.2,0.7-0.3,1-0.2c0.4,0.1,0.7,0.3,0.8,0.6l14.6,28.5l3.7-4.4
		l-7.1-36c-0.2-0.4-0.2-1,0.1-1.4l12.5-14.9c1.2-2,2.2-4.6,1.6-5.2c-0.7-0.7-3.2,0.2-4.6,1.2L86.1,58.3c-0.3,0.2-0.6,0.3-1,0.3
		l-24.8-4.4L51,52.6l-5.1,4.2L73,69.3c0.4,0.2,0.6,0.5,0.7,0.9c0.1,0.4,0,0.8-0.3,1.1c-5,6-18,21.7-18.5,22.3
		c-0.3,0.4-0.8,0.6-1.2,0.5l-10.9-2L41.6,93.2z"/>
</g>
</svg>
