<?xml version="1.0" encoding="utf-8"?>
<!-- Generator: Adobe Illustrator 19.0.0, SVG Export Plug-In . SVG Version: 6.00 Build 0)  -->
<svg version="1.1" id="Layer_1" xmlns="http://www.w3.org/2000/svg" xmlns:xlink="http://www.w3.org/1999/xlink" x="0px" y="0px"
	 viewBox="0 0 150 150" enable-background="new 0 0 150 150" xml:space="preserve">
<g id="XMLID_2631_">
	<path id="XMLID_2632_" fill="#231F20" d="M109.4,65.6c-7.9-1.7-15.9-3-26.3-0.4c-2.6,0.7-5.4,1.3-7.9,1.2c-1.4,0-2.7-0.4-4.1-0.7
		L71,65.6c-8.3-1.9-17.7-3.4-29.6-0.6c-0.6,0.1-1.1,0.8-1,1.4l0.7,4.5c0.1,0.6,0.6,1,1.2,1.1c0.6,0,0.6,0.2,0.6,0.3
		c0.5,11.3,4.7,16.2,14.1,16.2c0,0,0,0,0,0c11,0,16.4-10.8,17.1-14.7c0.2-1.1,0.5-1.2,1.3-1.2c0.8,0,0.9,0.2,1.3,1.1
		c0,0.1,0.1,0.3,0.1,0.4c4.1,10.4,6.8,13.5,16.4,14.4c0.8,0.1,1.5,0.1,2.1,0.1c9.8,0,11-6.7,11.9-11.8c0.2-1.3,0.4-2.5,0.8-3.5
		c0.2-0.8,0.3-0.8,0.7-0.8c0.6,0,1.1-0.5,1.2-1.1l0.6-4.5C110.5,66.3,110.1,65.7,109.4,65.6z M107.5,70.2c-1.2,0.4-1.7,1.4-2,2.4
		c-0.4,1.2-0.6,2.5-0.8,3.8c-0.9,5.4-1.8,10.4-11.3,9.6c-8.1-0.7-10.2-2.6-14.3-12.8c0-0.1-0.1-0.2-0.1-0.3c-0.3-0.9-1-2.8-3.5-2.8
		c0,0-0.1,0-0.1,0c-1.5,0-3.2,0.4-3.7,3.2C71,76.8,66.4,86,57,86c0,0,0,0,0,0c-8.1,0-11.2-3.7-11.6-13.8c-0.1-1.3-0.8-2.2-2-2.6
		L43,67.2c10.9-2.3,19.6-0.9,27.4,0.9l0.2,0.1c1.4,0.3,2.9,0.7,4.5,0.7c2.8,0.1,5.7-0.6,8.6-1.3c9.4-2.4,16.8-1.3,24.1,0.2
		L107.5,70.2z"/>
</g>
</svg>
