<?xml version="1.0" encoding="utf-8"?>
<!-- Generator: Adobe Illustrator 19.0.0, SVG Export Plug-In . SVG Version: 6.00 Build 0)  -->
<svg version="1.1" id="Layer_1" xmlns="http://www.w3.org/2000/svg" xmlns:xlink="http://www.w3.org/1999/xlink" x="0px" y="0px"
	 viewBox="0 0 150 150" enable-background="new 0 0 150 150" xml:space="preserve">
<g id="XMLID_3335_">
	<path id="XMLID_3342_" fill="#231F20" d="M101.8,57.9c3.8,0,6.7-2.9,6.7-6.7c0-3.8-3-6.7-6.7-6.7s-6.7,3-6.7,6.7
		C95.1,55,98,57.9,101.8,57.9z M101.8,47c2.4,0,4.2,1.8,4.2,4.3c0,2.4-1.8,4.2-4.2,4.2c-2.4,0-4.2-1.8-4.2-4.2
		C97.6,48.8,99.4,47,101.8,47z"/>
	<path id="XMLID_3336_" fill="#231F20" d="M107.3,107.3h-7.9L77,50.6l3.1-7.9c0.3-0.6-0.1-1.4-0.7-1.6c-0.6-0.3-1.4,0.1-1.6,0.7
		l-2.1,5.5l-2.1-5.5c-0.3-0.6-1-1-1.6-0.7c-0.6,0.3-1,1-0.7,1.6l3.1,7.9l-22.4,56.8H44c-0.7,0-1.2,0.6-1.2,1.2s0.6,1.2,1.2,1.2h63.2
		c0.7,0,1.2-0.6,1.2-1.2S108,107.3,107.3,107.3z M66.7,76.6h17.9l1.6,4.1H65.1L66.7,76.6z M83.6,74.1H67.7l8-20.2L83.6,74.1z
		 M64.1,83.2h23.1l9.5,24.2H83.8V96.1c0-3.1-2.5-5.6-5.6-5.6h-5.1c-3.1,0-5.6,2.5-5.6,5.6v11.2H54.6L64.1,83.2z M81.3,107.3H70V96.1
		c0-1.7,1.4-3.1,3.1-3.1h5.1c1.7,0,3.1,1.4,3.1,3.1V107.3z"/>
</g>
</svg>
