<?xml version="1.0" encoding="utf-8"?>
<!-- Generator: Adobe Illustrator 19.0.0, SVG Export Plug-In . SVG Version: 6.00 Build 0)  -->
<svg version="1.1" id="Layer_1" xmlns="http://www.w3.org/2000/svg" xmlns:xlink="http://www.w3.org/1999/xlink" x="0px" y="0px"
	 viewBox="0 0 150 150" enable-background="new 0 0 150 150" xml:space="preserve">
<g id="XMLID_3081_">
	<path id="XMLID_3101_" fill="#231F20" d="M79,74.4h-9l-3.5-3.5h0.8c0.7,0,1.2-0.6,1.2-1.2s-0.6-1.2-1.2-1.2h-3.3l-5.6-5.6
		c-0.5-0.5-1.3-0.5-1.8,0s-0.5,1.3,0,1.8l6,6c0,0,0,0,0,0l3.8,3.8H55.7l-4-4c-0.5-0.5-1.3-0.5-1.8,0c-0.5,0.5-0.5,1.3,0,1.8l3.5,3.5
		L50,79.1c-0.5,0.5-0.5,1.3,0,1.8c0.2,0.2,0.6,0.4,0.9,0.4s0.6-0.1,0.9-0.4l4-4h10.8l-9.8,9.8c-0.5,0.5-0.5,1.3,0,1.8
		c0.2,0.2,0.6,0.4,0.9,0.4s0.6-0.1,0.9-0.4l5.6-5.6h3.3c0.7,0,1.2-0.6,1.2-1.2c0-0.7-0.6-1.2-1.2-1.2h-0.8l3.5-3.5h9
		c0.7,0,1.2-0.6,1.2-1.2C80.3,74.9,79.7,74.4,79,74.4z"/>
	<path id="XMLID_3094_" fill="#231F20" d="M120.2,52H30.6c-1.1,0-2.1,0.9-2.1,2.1v43.2c0,1.1,0.9,2.1,2.1,2.1h89.7
		c1.1,0,2.1-0.9,2.1-2.1V54C122.3,52.9,121.4,52,120.2,52z M119.8,96.8H98.3v-0.1c0-0.7-0.6-1.2-1.2-1.2s-1.2,0.6-1.2,1.2v0.1H31
		V54.5h65.1c0.2,0.3,0.6,0.4,0.9,0.4s0.7-0.2,0.9-0.4h21.8V96.8z"/>
	<path id="XMLID_3093_" fill="#231F20" d="M97,73.5c-0.7,0-1.2,0.6-1.2,1.2v0.8c0,0.7,0.6,1.2,1.2,1.2s1.2-0.6,1.2-1.2v-0.8
		C98.3,74.1,97.7,73.5,97,73.5z"/>
	<path id="XMLID_3092_" fill="#231F20" d="M97,79c-0.7,0-1.2,0.6-1.2,1.2V81c0,0.7,0.6,1.2,1.2,1.2s1.2-0.6,1.2-1.2v-0.8
		C98.3,79.6,97.7,79,97,79z"/>
	<path id="XMLID_3091_" fill="#231F20" d="M97,62.6c-0.7,0-1.2,0.6-1.2,1.2v0.8c0,0.7,0.6,1.2,1.2,1.2s1.2-0.6,1.2-1.2v-0.8
		C98.3,63.1,97.7,62.6,97,62.6z"/>
	<path id="XMLID_3090_" fill="#231F20" d="M97,57.1c-0.7,0-1.2,0.6-1.2,1.2v0.8c0,0.7,0.6,1.2,1.2,1.2s1.2-0.6,1.2-1.2v-0.8
		C98.3,57.6,97.7,57.1,97,57.1z"/>
	<path id="XMLID_3085_" fill="#231F20" d="M97,68c-0.7,0-1.2,0.6-1.2,1.2v0.8c0,0.7,0.6,1.2,1.2,1.2s1.2-0.6,1.2-1.2v-0.8
		C98.3,68.6,97.7,68,97,68z"/>
	<path id="XMLID_3084_" fill="#231F20" d="M97,84.5c-0.7,0-1.2,0.6-1.2,1.2v0.8c0,0.7,0.6,1.2,1.2,1.2s1.2-0.6,1.2-1.2v-0.8
		C98.3,85.1,97.7,84.5,97,84.5z"/>
	<path id="XMLID_3083_" fill="#231F20" d="M97,90c-0.7,0-1.2,0.6-1.2,1.2V92c0,0.7,0.6,1.2,1.2,1.2s1.2-0.6,1.2-1.2v-0.8
		C98.3,90.5,97.7,90,97,90z"/>
	<path id="XMLID_3082_" fill="#231F20" d="M108.9,90.1c0.7,0,1.2-0.6,1.2-1.2V61.5c0-0.7-0.6-1.2-1.2-1.2s-1.2,0.6-1.2,1.2v27.3
		C107.7,89.5,108.2,90.1,108.9,90.1z"/>
</g>
</svg>
