<?xml version="1.0" encoding="utf-8"?>
<!-- Generator: Adobe Illustrator 16.0.0, SVG Export Plug-In . SVG Version: 6.00 Build 0)  -->
<!DOCTYPE svg PUBLIC "-//W3C//DTD SVG 1.1//EN" "http://www.w3.org/Graphics/SVG/1.1/DTD/svg11.dtd">
<svg version="1.1" id="Layer_1" xmlns="http://www.w3.org/2000/svg" xmlns:xlink="http://www.w3.org/1999/xlink" x="0px" y="0px"
	 width="31.586px" height="31.586px" viewBox="0 0 31.586 31.586" enable-background="new 0 0 31.586 31.586" xml:space="preserve">
<path fill="#FFFFFF" d="M18.621,15.793c4.125-4.125,8.25-8.25,12.375-12.375c1.825-1.825-1.003-4.653-2.828-2.828
	c-4.125,4.125-8.25,8.25-12.375,12.375C11.668,8.84,7.543,4.715,3.418,0.59C1.593-1.235-1.235,1.593,0.59,3.418
	c4.125,4.125,8.25,8.25,12.375,12.375c-4.125,4.125-8.25,8.25-12.375,12.375c-1.825,1.825,1.003,4.653,2.828,2.828
	c4.125-4.125,8.25-8.25,12.375-12.375c4.125,4.125,8.25,8.25,12.375,12.375c1.825,1.825,4.653-1.003,2.828-2.828
	C26.871,24.043,22.746,19.918,18.621,15.793z"/>
</svg>
