<svg version="1.1" xmlns="http://www.w3.org/2000/svg" xmlns:xlink="http://www.w3.org/1999/xlink" x="0px" y="0px"
	 viewBox="0 0 51.099 60" enable-background="new 0 0 34 26" xml:space="preserve" fill="#231F20">
	<g>
	<path d="M48.057,37.387h-2.568c-0.356,0-0.694,0.073-1.014,0.187V8.612c0-1.678-1.363-3.042-3.042-3.042h-9.387
		C31.557,2.421,28.834,0,25.549,0c-3.284,0-6.007,2.421-6.496,5.57H9.665c-1.677,0-3.042,1.364-3.042,3.042v28.961
		c-0.318-0.113-0.656-0.187-1.014-0.187H3.042C1.365,37.387,0,38.752,0,40.428v1.345v9.778c0,1.678,1.365,3.042,3.042,3.042h2.567
		c0.357,0,0.695-0.072,1.014-0.187v2.552C6.623,58.636,7.988,60,9.665,60h31.768c1.679,0,3.042-1.364,3.042-3.042v-2.552
		c0.319,0.114,0.657,0.187,1.014,0.187h2.568c1.677,0,3.042-1.364,3.042-3.042v-9.778v-1.345
		C51.099,38.752,49.733,37.387,48.057,37.387 M45.488,39.414h2.568c0.559,0,1.014,0.455,1.014,1.014v1.345
		c0,0.559-0.455,1.014-1.014,1.014h-2.568c-0.559,0-1.014-0.455-1.014-1.014v-1.345C44.475,39.869,44.93,39.414,45.488,39.414
		 M25.549,2.027c2.164,0,3.976,1.518,4.439,3.543h-8.877C21.573,3.545,23.386,2.027,25.549,2.027 M41.433,7.598
		c0.127,0,0.246,0.025,0.357,0.067c0.007,0.004,0.017,0.005,0.023,0.008c0.105,0.043,0.199,0.104,0.284,0.179
		c0.009,0.009,0.02,0.016,0.029,0.023c0.079,0.075,0.144,0.163,0.196,0.26c0.007,0.014,0.015,0.027,0.021,0.041
		c0.047,0.098,0.076,0.203,0.09,0.314c0.002,0.015,0.004,0.03,0.005,0.046l-4.023,18.059l-0.024,0.221
		c0,0.56-0.455,1.014-1.014,1.014h-2.366v-3.717c0-0.561-0.454-1.015-1.014-1.015s-1.014,0.454-1.014,1.015v3.717h-14.87v-3.717
		c0-0.561-0.454-1.015-1.015-1.015c-0.559,0-1.014,0.454-1.014,1.015v3.717h-2.365c-0.56,0-1.014-0.454-1.014-1.014L8.659,8.536
		C8.66,8.521,8.662,8.505,8.664,8.49c0.014-0.111,0.043-0.217,0.09-0.314C8.76,8.162,8.77,8.148,8.776,8.135
		c0.052-0.097,0.117-0.185,0.195-0.26c0.01-0.008,0.021-0.015,0.03-0.023C9.085,7.777,9.18,7.716,9.285,7.673
		C9.292,7.67,9.302,7.669,9.31,7.665c0.11-0.042,0.23-0.067,0.355-0.067H41.433z M2.028,40.428c0-0.559,0.454-1.014,1.014-1.014
		h2.567c0.56,0,1.014,0.455,1.014,1.014v1.345c0,0.559-0.454,1.014-1.014,1.014H3.042c-0.56,0-1.014-0.455-1.014-1.014V40.428z
		 M5.609,52.565H3.042c-0.56,0-1.014-0.455-1.014-1.015v-6.924c0.318,0.113,0.656,0.187,1.014,0.187h2.567
		c0.357,0,0.695-0.073,1.014-0.187v6.924C6.623,52.11,6.169,52.565,5.609,52.565 M42.447,56.958c0,0.56-0.455,1.015-1.015,1.015
		H9.665c-0.56,0-1.014-0.455-1.014-1.015v-5.407v-9.778v-1.345V17.77l2.031,9.169c0.063,1.62,1.401,2.919,3.038,2.919h2.365v3.717
		c0,0.561,0.455,1.015,1.014,1.015c0.561,0,1.015-0.454,1.015-1.015v-3.717h14.87v3.717c0,0.561,0.454,1.015,1.014,1.015
		s1.014-0.454,1.014-1.015v-3.717h2.366c1.636,0,2.976-1.299,3.038-2.919l2.031-9.114v22.604v1.345v9.778V56.958z M48.057,52.565
		h-2.568c-0.559,0-1.014-0.455-1.014-1.015v-6.924c0.319,0.113,0.657,0.187,1.014,0.187h2.568c0.356,0,0.694-0.073,1.014-0.187
		v6.924C49.07,52.11,48.615,52.565,48.057,52.565"/>
	<path d="M38.054,37.387H13.045c-0.932,0-1.689,0.758-1.689,1.689v4.048v9.779c0,0.932,0.758,1.689,1.689,1.689
		h25.009c0.933,0,1.69-0.758,1.69-1.689v-9.779v-4.048C39.744,38.145,38.986,37.387,38.054,37.387 M13.383,39.414h24.333v3.372
		H13.383V39.414z M13.383,52.565v-7.752h2.704v2.325c0,0.559,0.454,1.014,1.014,1.014s1.014-0.455,1.014-1.014v-2.325h19.602v7.752
		H13.383z"/>
</g>
</svg>
