<svg version="1.1" xmlns="http://www.w3.org/2000/svg" xmlns:xlink="http://www.w3.org/1999/xlink" x="0px" y="0px"
	 width="52px" height="60px" viewBox="0 0 52 60" enable-background="new 0 0 52 60" xml:space="preserve">
<rect x="-8668.606" y="-4561.528" fill="none" width="14400" height="9000"/>
<path fill="#49C91F" d="M35.235,7.965l-8.203-0.862l-0.201-1.914L22.017,0L3.632,1.933L0,8.009l3.794,36.106l4.836-0.509
	l-0.391,3.72l26.832,2.819l3.795-36.105L35.235,7.965z M10.437,45.546l0.228-2.154l19.962-2.098l-3.38-32.158l6.785,0.715
	l2.776,4.644l-3.517,33.454L10.437,45.546z M21.231,2.094l3.681,3.966l3.517,33.455L5.574,41.916L2.058,8.463l2.777-4.646
	L21.231,2.094z"/>
<path fill="#49C91F" d="M11.214,12.498c0.713,0.578,1.584,0.885,2.49,0.885c0.141,0,0.281-0.007,0.422-0.022
	c1.055-0.11,2.002-0.625,2.67-1.448c0.666-0.824,0.974-1.858,0.862-2.913c-0.11-1.055-0.625-2.002-1.448-2.669
	c-0.824-0.667-1.86-0.97-2.914-0.862c-1.054,0.11-2.002,0.625-2.668,1.449C9.96,7.74,9.653,8.774,9.765,9.829
	C9.876,10.883,10.39,11.831,11.214,12.498 M12.182,8.175c0.331-0.408,0.801-0.664,1.323-0.719c0.071-0.007,0.141-0.012,0.211-0.012
	c0.449,0,0.881,0.152,1.234,0.439c0.409,0.331,0.664,0.801,0.719,1.324c0.056,0.523-0.097,1.036-0.428,1.445
	c-0.331,0.408-0.801,0.664-1.324,0.719c-0.525,0.053-1.035-0.098-1.445-0.428c-0.408-0.331-0.663-0.801-0.719-1.324
	C11.698,9.097,11.851,8.584,12.182,8.175"/>
</svg>
