<svg version="1.1" xmlns="http://www.w3.org/2000/svg" xmlns:xlink="http://www.w3.org/1999/xlink" x="0px" y="0px"
	 viewBox="0 0 120 96" enable-background="new 0 0 120 96" xml:space="preserve">
    <path fill-rule="evenodd" clip-rule="evenodd" fill="#F7F9FA" d="M0,0h120v96H0V0z"/>
    <path fill-rule="evenodd" clip-rule="evenodd" fill="#ED6262" d="M3,3h114v41H3V3z"/>
    <path fill-rule="evenodd" clip-rule="evenodd" fill="#E3E9ED" d="M60,13c3.3137,0,6,2.6863,6,6s-2.6863,6-6,6s-6-2.6863-6-6 S56.6863,13,60,13z"/>
    <path fill-rule="evenodd" clip-rule="evenodd" fill="#E3E9ED" d="M23,30h74v4H23V30z"/>
    <path fill-rule="evenodd" clip-rule="evenodd" fill="#E3E9ED" d="M28,83h64v4H28V83z"/>
    <path fill-rule="evenodd" clip-rule="evenodd" fill="#E3E9ED" d="M28,73h64v4H28V73z"/>
    <path fill-rule="evenodd" clip-rule="evenodd" fill="#E3E9ED" d="M28,63h64v4H28V63z"/>
    <path fill-rule="evenodd" clip-rule="evenodd" fill="#E3E9ED" d="M28,53h64v4H28V53z"/>
</svg>
