<svg xmlns="http://www.w3.org/2000/svg" viewBox="0 0 92 92"><title>img-profile-v2</title><path d="M50.0686,58H41.9309a24.0275,24.0275,0,0,0-24,24v0.4321a45.9561,45.9561,0,0,0,56.1377,0V82A24.0275,24.0275,0,0,0,50.0686,58Z" transform="translate(0)" fill="#d1dae0"/><path d="M46,0A45.988,45.988,0,0,0,14.08,79.1058,28.0391,28.0391,0,0,1,41.9309,54h8.1377A28.039,28.039,0,0,1,77.9193,79.1062,45.988,45.988,0,0,0,46,0Zm0,48A18,18,0,1,1,64,30,18.0206,18.0206,0,0,1,46,48Z" transform="translate(0)" fill="#d1dae0"/><path d="M46,16A14,14,0,1,0,60,30,14.0157,14.0157,0,0,0,46,16Z" transform="translate(0)" fill="#d1dae0"/><path d="M46,12A18,18,0,1,0,64,30,18.0206,18.0206,0,0,0,46,12Zm0,32A14,14,0,1,1,60,30,14.0157,14.0157,0,0,1,46,44Z" transform="translate(0)" fill="#fff"/><path d="M50.0686,54H41.9309A28.0391,28.0391,0,0,0,14.08,79.1058a46.2367,46.2367,0,0,0,3.8507,3.3262V82a24.0275,24.0275,0,0,1,24-24h8.1377a24.0275,24.0275,0,0,1,24,24v0.4325a46.2245,46.2245,0,0,0,3.8507-3.3261A28.039,28.039,0,0,0,50.0686,54Z" transform="translate(0)" fill="#fff"/></svg>