<svg xmlns="http://www.w3.org/2000/svg" viewBox="0 0 92 92"><title>img-profile-v4</title><circle cx="46" cy="46" r="46" fill="#d1dae0"/><path d="M46,46A12,12,0,1,0,34,34,12.0134,12.0134,0,0,0,46,46Z" fill="none"/><path d="M46,50A16,16,0,1,0,30,34,16.0183,16.0183,0,0,0,46,50Zm0-28A12,12,0,1,1,34,34,12.0134,12.0134,0,0,1,46,22Z" fill="#fff"/><path d="M48,56.0692H44A28.0371,28.0371,0,0,0,16.1715,81.0035a46.1792,46.1792,0,0,0,3.8319,2.943A24.026,24.026,0,0,1,44,60.0692h4a24.0259,24.0259,0,0,1,23.9969,23.877,46.1792,46.1792,0,0,0,3.8319-2.943A28.0371,28.0371,0,0,0,48,56.0692Z" fill="#fff"/></svg>