<svg version="1.1" xmlns="http://www.w3.org/2000/svg" xmlns:xlink="http://www.w3.org/1999/xlink" x="0px" y="0px" viewBox="0 0 489.3456 70.9814" enable-background="new 0 0 489.3456 70.9814" xml:space="preserve" preserveAspectRatio="xMinYMin meet" fill="#444444">
	<path id="XMLID_5_" d="M316.6669,36.748c0,10.8857-7.3193,19.4434-17.1543,19.4434 c-4.9922,0-8.333-2.0264-10.5479-4.917v3.9414h-11.3359V1.1636h11.7119v20.7578c2.2139-2.665,5.4424-4.542,10.1719-4.542 C309.3476,17.3794,316.6669,25.938,316.6669,36.748z M288.8524,36.7852c0,4.8799,3.2285,8.4463,7.8447,8.4463 c4.7295,0,7.8828-3.6416,7.8828-8.4463c0-4.8042-3.1533-8.4448-7.8828-8.4448C292.081,28.3403,288.8524,31.9062,288.8524,36.7852z"/>
	<path id="XMLID_8_" d="M334.7245,55.2158h-11.749V1.1636h11.749V55.2158z"/>
	<path id="XMLID_10_" d="M380.9706,36.7852c0,11.1484-8.4834,19.4062-20.0068,19.4062 c-11.4863,0-19.9697-8.2578-19.9697-19.4062c0-11.1479,8.4834-19.4058,19.9697-19.4058 C372.4872,17.3794,380.9706,25.6372,380.9706,36.7852z M353.0058,36.7852c0,4.9551,3.3789,8.4463,7.958,8.4463 c4.6172,0,7.9951-3.4912,7.9951-8.4463c0-4.9541-3.3779-8.4448-7.9951-8.4448C356.3847,28.3403,353.0058,31.8311,353.0058,36.7852z"/>
	<path id="XMLID_21_" d="M412.6923,22.2217v-3.8286h11.374v33.2944c0,12.0869-7.9199,19.2939-19.9697,19.2939 c-6.1562,0-12.4248-1.5771-16.8164-4.6924l4.167-9.3467c3.6035,2.5527,7.4697,3.7539,11.8232,3.7539 c4.7676,0,9.2725-2.6279,9.2725-8.4834v-2.29c-2.1777,2.7783-5.4053,4.6553-10.1357,4.6553 c-9.8721,0-17.0791-8.1455-17.0791-18.5811c0-10.4346,7.207-18.6177,17.0791-18.6177 C407.2499,17.3794,410.5155,19.3687,412.6923,22.2217z M397.453,35.9971c0,4.4668,3.1523,7.8828,7.7324,7.8828 c4.4287,0,7.5068-3.3408,7.5068-7.8828c0-4.5415-3.0781-7.8823-7.5068-7.8823C400.6054,28.1147,397.453,31.4932,397.453,35.9971z"/>
	<path id="XMLID_24_" d="M445.1269,7.0566c0,3.9414-3.0781,6.9819-7.0195,6.9819 c-3.9785,0-7.0195-3.0405-7.0195-6.9819c0-3.9785,3.041-7.0566,7.0195-7.0566C442.0487,0,445.1269,3.0781,445.1269,7.0566z M444.038,55.2158h-11.749V18.3931h11.749V55.2158z"/>
	<path id="XMLID_27_" d="M477.6347,21.9214V1.1636h11.7109v54.0522h-11.3359v-3.9785 c-2.2148,2.8896-5.5928,4.9541-10.585,4.9541c-9.835,0-17.1172-8.5576-17.1172-19.4434c0-10.8101,7.2822-19.3687,17.1543-19.3687 C472.1542,17.3794,475.4198,19.2563,477.6347,21.9214z M462.3944,36.7852c0,4.8047,3.1533,8.4463,7.8457,8.4463 c4.6162,0,7.8828-3.5664,7.8828-8.4463c0-4.8789-3.2666-8.4448-7.8828-8.4448C465.5478,28.3403,462.3944,31.981,462.3944,36.7852z"/>
	<path id="XMLID_1969_" d="M23.7847,45.2521c-2.9599,0-5.2062-1.4243-5.2062-5.6545V28.8466h12.5473V18.4708	H18.5785V7.7596H6.8547v10.7113H0v10.3758h6.8547V41.095c0,9.2138,4.4559,15.094,14.3071,15.094 c5.9183,0,9.5889-1.6835,13.0353-4.0808l-4.0457-9.1406C28.3168,44.0535,25.9562,45.2521,23.7847,45.2521z"/>
	<path id="XMLID_1966_" d="M50.174,22.7041v-4.2333H38.9366v36.7453h11.7238V35.3643 c0-4.5688,2.5467-6.6305,6.7052-6.6305c2.0968,0,4.3065,0.4514,5.8802,0.9729l1.0858-11.6842 c-0.8982-0.2623-2.3972-0.5642-4.1204-0.5642C55.7172,17.4583,52.3089,19.1449,50.174,22.7041z"/>
	<rect id="XMLID_1963_" x="68.8806" y="18.4708" width="11.7238" height="36.7453"/>
	<path id="XMLID_1956_" d="M74.6861,0.1165c-3.971,0-7.0041,3.0713-7.0041,7.0422 c0,3.9344,3.0331,6.966,7.0041,6.966c3.9329,0,7.0041-3.0316,7.0041-6.966C81.6902,3.1878,78.6189,0.1165,74.6861,0.1165z"/>
	<path id="XMLID_1952_" d="M110.5423,17.4583c-4.982,0-8.3156,2.0983-10.5252,4.9835v-3.971H88.705v51.7264h11.6857 V51.7331c2.2112,2.6229,5.4319,4.4559,10.1516,4.4559c9.8131,0,17.1176-8.5397,17.1176-19.4005 C127.6599,26.0011,120.3554,17.4583,110.5423,17.4583z M100.4441,36.7794c0-4.2729,3.7453-7.942,8.0533-7.942 c4.2699,0,7.9786,3.669,7.9786,7.942c0,4.3431-3.7087,8.0883-7.9786,8.0883C104.1893,44.8678,100.4441,41.1225,100.4441,36.7794z"/>
	<path id="XMLID_1948_" d="M201.7939,36.8541c0,1.2012-0.0749,2.8517-0.2262,3.6403h-24.9625 c0.9766,4.0162,3.8298,5.8929,7.8827,5.8929c2.7417,0,5.7065-1.1248,8.034-3.2277l7.5816,7.0575 c-3.8283,3.8298-9.4217,6.0427-16.2163,6.0427c-11.5612,0-19.4057-7.6932-19.4057-19.1796c0-11.5994,7.6947-19.635,18.8815-19.635 C194.2856,17.4453,201.7557,25.3311,201.7939,36.8541z M176.6434,33.0641h13.4012c-0.9384-3.68-3.2292-5.6331-6.6448-5.6331 C179.7596,27.4309,177.5436,29.4207,176.6434,33.0641z"/>
	<path id="XMLID_1205_" d="M243.3929,36.8541c0,1.2012-0.0749,2.8517-0.2262,3.6403h-24.9625 c0.9766,4.0162,3.8298,5.8929,7.8827,5.8929c2.7417,0,5.7065-1.1248,8.034-3.2277l7.5816,7.0575 c-3.8283,3.8298-9.4217,6.0427-16.2163,6.0427c-11.5612,0-19.4057-7.6932-19.4057-19.1796c0-11.5994,7.6947-19.635,18.8815-19.635 C235.8846,17.4453,243.3547,25.3311,243.3929,36.8541z M218.2425,33.0641h13.4012c-0.9384-3.68-3.2292-5.6331-6.6448-5.6331 C221.3586,27.4309,219.1426,29.4207,218.2425,33.0641z"/>
	<path id="XMLID_679_" d="M154.2286,36.8083c0,4.3525-3.7167,8.1058-7.9958,8.1058 c-4.3173,0-8.0707-3.7534-8.0707-8.1058c0-4.2822,3.7534-7.9591,8.0707-7.9591 C150.5119,28.8492,154.2286,32.5261,154.2286,36.8083z"/>
</svg>