<svg version="1.1" xmlns="http://www.w3.org/2000/svg" xmlns:xlink="http://www.w3.org/1999/xlink" x="0px" y="0px" viewBox="0 0 652.5222 274.1439" enable-background="new 0 0 652.5222 274.1439" xml:space="preserve">
<g>
	<path fill="#444444" d="M479.8435,138.6631c0,10.8857-7.3193,19.4434-17.1543,19.4434
		c-4.9922,0-8.333-2.0264-10.5479-4.917v3.9414h-11.3359v-54.0522h11.7119v20.7578c2.2139-2.665,5.4424-4.542,10.1719-4.542
		C472.5241,119.2944,479.8435,127.853,479.8435,138.6631z M452.029,138.7002c0,4.8799,3.2285,8.4463,7.8447,8.4463
		c4.7295,0,7.8828-3.6416,7.8828-8.4463c0-4.8042-3.1533-8.4448-7.8828-8.4448C455.2575,130.2554,452.029,133.8213,452.029,138.7002
		z"/>
	<path fill="#444444" d="M497.9011,157.1309h-11.749v-54.0522h11.749V157.1309z"/>
	<path fill="#444444" d="M544.1472,138.7002c0,11.1484-8.4834,19.4062-20.0068,19.4062
		c-11.4863,0-19.9697-8.2578-19.9697-19.4062c0-11.1479,8.4834-19.4058,19.9697-19.4058
		C535.6638,119.2944,544.1472,127.5523,544.1472,138.7002z M516.1823,138.7002c0,4.9551,3.3789,8.4463,7.958,8.4463
		c4.6172,0,7.9951-3.4912,7.9951-8.4463c0-4.9541-3.3779-8.4448-7.9951-8.4448
		C519.5612,130.2554,516.1823,133.7461,516.1823,138.7002z"/>
	<path fill="#444444" d="M575.8688,124.1367v-3.8286h11.374v33.2944c0,12.0869-7.9199,19.2939-19.9697,19.2939
		c-6.1562,0-12.4248-1.5771-16.8164-4.6924l4.167-9.3467c3.6035,2.5527,7.4697,3.7539,11.8232,3.7539
		c4.7676,0,9.2725-2.6279,9.2725-8.4834v-2.29c-2.1777,2.7783-5.4053,4.6553-10.1357,4.6553
		c-9.8721,0-17.0791-8.1455-17.0791-18.5811c0-10.4346,7.207-18.6177,17.0791-18.6177
		C570.4265,119.2944,573.6921,121.2837,575.8688,124.1367z M560.6296,137.9121c0,4.4668,3.1523,7.8828,7.7324,7.8828
		c4.4287,0,7.5068-3.3408,7.5068-7.8828c0-4.5415-3.0781-7.8823-7.5068-7.8823
		C563.7819,130.0298,560.6296,133.4082,560.6296,137.9121z"/>
	<path fill="#444444" d="M608.3034,108.9717c0,3.9414-3.0781,6.9819-7.0195,6.9819
		c-3.9785,0-7.0195-3.0405-7.0195-6.9819c0-3.9785,3.041-7.0566,7.0195-7.0566
		C605.2253,101.9151,608.3034,104.9932,608.3034,108.9717z M607.2145,157.1309h-11.749v-36.8228h11.749V157.1309z"/>
	<path fill="#444444" d="M640.8112,123.8364v-20.7578h11.7109v54.0522h-11.3359v-3.9785
		c-2.2148,2.8896-5.5928,4.9541-10.585,4.9541c-9.835,0-17.1172-8.5576-17.1172-19.4434c0-10.8101,7.2822-19.3687,17.1543-19.3687
		C635.3307,119.2944,638.5964,121.1714,640.8112,123.8364z M625.571,138.7002c0,4.8047,3.1533,8.4463,7.8457,8.4463
		c4.6162,0,7.8828-3.5664,7.8828-8.4463c0-4.8789-3.2666-8.4448-7.8828-8.4448C628.7243,130.2554,625.571,133.896,625.571,138.7002z
		"/>
</g>
<g>
	<g>
		<path fill="#444444" d="M186.9609,147.1671c-2.9599,0-5.2062-1.4243-5.2062-5.6545v-10.7509h12.5473v-10.3758
			h-12.5473v-10.7113h-11.7238v10.7113h-6.8547v10.3758h6.8547v12.2484c0,9.2138,4.4559,15.094,14.3071,15.094
			c5.9184,0,9.5889-1.6835,13.0353-4.0808l-4.0457-9.1406C191.4931,145.9685,189.1324,147.1671,186.9609,147.1671z"/>
		<path fill="#444444" d="M213.3502,124.6192v-4.2333h-11.2374v36.7453h11.7238v-19.8518
			c0-4.5688,2.5467-6.6305,6.7052-6.6305c2.0968,0,4.3065,0.4514,5.8802,0.9729l1.0858-11.6842
			c-0.8982-0.2623-2.3972-0.5642-4.1204-0.5642C218.8934,119.3733,215.4852,121.0599,213.3502,124.6192z"/>
		<rect x="232.0568" y="120.3859" fill="#444444" width="11.7238" height="36.7453"/>
		<path fill="#444444" d="M237.8623,102.0316c-3.971,0-7.0041,3.0713-7.0041,7.0422
			c0,3.9344,3.0331,6.966,7.0041,6.966c3.9328,0,7.0041-3.0316,7.0041-6.966C244.8664,105.1028,241.7952,102.0316,237.8623,102.0316
			z"/>
		<path fill="#444444" d="M273.7185,119.3733c-4.982,0-8.3156,2.0983-10.5252,4.9835v-3.971h-11.3121v51.7264
			h11.6857v-18.4641c2.2112,2.6229,5.4319,4.4559,10.1516,4.4559c9.8131,0,17.1176-8.5397,17.1176-19.4005
			C290.8361,127.9161,283.5316,119.3733,273.7185,119.3733z M263.6203,138.6945c0-4.2729,3.7453-7.9419,8.0533-7.9419
			c4.2699,0,7.9785,3.669,7.9785,7.9419c0,4.3431-3.7087,8.0884-7.9785,8.0884
			C267.3656,146.7828,263.6203,143.0376,263.6203,138.6945z"/>
	</g>
	<g>
		<path fill="#444444" d="M364.9701,138.7692c0,1.2012-0.0749,2.8517-0.2262,3.6403h-24.9625
			c0.9766,4.0163,3.8298,5.8929,7.8828,5.8929c2.7417,0,5.7065-1.1248,8.034-3.2277l7.5817,7.0575
			c-3.8283,3.8298-9.4217,6.0427-16.2163,6.0427c-11.5612,0-19.4057-7.6932-19.4057-19.1796c0-11.5994,7.6947-19.635,18.8815-19.635
			C357.4618,119.3604,364.9319,127.2462,364.9701,138.7692z M339.8197,134.9791h13.4012c-0.9384-3.68-3.2292-5.6331-6.6448-5.6331
			C342.9358,129.346,340.7198,131.3358,339.8197,134.9791z"/>
		<path fill="#444444" d="M406.5691,138.7692c0,1.2012-0.0749,2.8517-0.2262,3.6403h-24.9625
			c0.9766,4.0163,3.8298,5.8929,7.8827,5.8929c2.7417,0,5.7065-1.1248,8.034-3.2277l7.5816,7.0575
			c-3.8282,3.8298-9.4217,6.0427-16.2163,6.0427c-11.5612,0-19.4057-7.6932-19.4057-19.1796c0-11.5994,7.6948-19.635,18.8816-19.635
			C399.0608,119.3604,406.5309,127.2462,406.5691,138.7692z M381.4187,134.9791h13.4012c-0.9384-3.68-3.2292-5.6331-6.6448-5.6331
			C384.5348,129.346,382.3188,131.3358,381.4187,134.9791z"/>
	</g>
	<g>
		<path fill="#444444" d="M317.4048,138.7233c0,4.3525-3.7167,8.1059-7.9958,8.1059
			c-4.3173,0-8.0707-3.7534-8.0707-8.1059c0-4.2822,3.7534-7.9591,8.0707-7.9591
			C313.6881,130.7642,317.4048,134.4412,317.4048,138.7233z"/>
	</g>
</g>
<g>
	<path fill="#4AC9E3" d="M419.635,217.5782c0,4.3525-3.7167,8.1059-7.9958,8.1059
		c-4.3173,0-8.0707-3.7534-8.0707-8.1059c0-4.2822,3.7534-7.9591,8.0707-7.9591
		C415.9183,209.6191,419.635,213.2961,419.635,217.5782z"/>
</g>
<g>
	<path fill="#FFCE33" d="M155.8147,26.9656c0,4.3525-3.7167,8.1058-7.9958,8.1058
		c-4.3173,0-8.0707-3.7534-8.0707-8.1058c0-4.2822,3.7534-7.9591,8.0707-7.9591C152.098,19.0064,155.8147,22.6834,155.8147,26.9656z
		"/>
</g>
<g>
	<path fill="#8EDD65" d="M220.8079,33.4649c0,4.3525-3.7167,8.1058-7.9958,8.1058
		c-4.3173,0-8.0707-3.7534-8.0707-8.1058c0-4.2822,3.7534-7.9591,8.0707-7.9591C217.0912,25.5058,220.8079,29.1827,220.8079,33.4649
		z"/>
</g>
<g>
	<path fill="#FF5050" d="M154.5065,7.9591c0,4.3525-3.7167,8.1058-7.9958,8.1058
		c-4.3173,0-8.0707-3.7534-8.0707-8.1058C138.44,3.677,142.1933,0,146.5107,0C150.7897,0,154.5065,3.677,154.5065,7.9591z"/>
</g>
<g>
	<path fill="#FF9A3E" d="M116.2267,25.9292c0,4.3525-3.7167,8.1058-7.9958,8.1058
		c-4.3173,0-8.0707-3.7534-8.0707-8.1058c0-4.2822,3.7534-7.9591,8.0707-7.9591C112.5099,17.9701,116.2267,21.6471,116.2267,25.9292
		z"/>
</g>
<g>
	<path fill="#8B84D7" d="M78.8428,53.753c0,4.3525-3.7167,8.1058-7.9958,8.1058
		c-4.3173,0-8.0707-3.7534-8.0707-8.1058c0-4.2822,3.7534-7.9591,8.0707-7.9591C75.126,45.7939,78.8428,49.4709,78.8428,53.753z"/>
</g>
<g>
	<path fill="#FF5050" d="M57.3674,82.97c0,4.3525-3.7167,8.1058-7.9958,8.1058
		c-4.3173,0-8.0707-3.7534-8.0707-8.1058c0-4.2822,3.7534-7.9591,8.0707-7.9591C53.6507,75.0109,57.3674,78.6879,57.3674,82.97z"/>
</g>
<g>
	<path fill="#FF9A3E" d="M47.16,115.2192c0,4.3525-3.7167,8.1058-7.9958,8.1058
		c-4.3173,0-8.0707-3.7534-8.0707-8.1058c0-4.2822,3.7534-7.9591,8.0707-7.9591C43.4433,107.2601,47.16,110.937,47.16,115.2192z"/>
</g>
<g>
	<path fill="#8EDD65" d="M16.0665,126.7282c0,4.3525-3.7167,8.1059-7.9958,8.1059
		C3.7534,134.834,0,131.0806,0,126.7282c0-4.2822,3.7534-7.9591,8.0707-7.9591C12.3498,118.769,16.0665,122.446,16.0665,126.7282z"
		/>
</g>
<g>
	<path fill="#FFCE33" d="M111.7808,109.0009c0,4.3525-3.7167,8.1058-7.9958,8.1058
		c-4.3173,0-8.0707-3.7534-8.0707-8.1058c0-4.2822,3.7534-7.9591,8.0707-7.9591
		C108.0641,101.0418,111.7808,104.7187,111.7808,109.0009z"/>
</g>
<g>
	<path fill="#8B84D7" d="M151.2068,132.7104c0,4.3525-3.7167,8.1059-7.9958,8.1059
		c-4.3173,0-8.0707-3.7534-8.0707-8.1059c0-4.2822,3.7534-7.9591,8.0707-7.9591
		C147.4901,124.7513,151.2068,128.4283,151.2068,132.7104z"/>
</g>
<g>
	<path fill="#4AC9E3" d="M96.9957,62.4229c0,4.3525-3.7167,8.1058-7.9958,8.1058
		c-4.3173,0-8.0707-3.7534-8.0707-8.1058c0-4.2822,3.7534-7.9591,8.0707-7.9591C93.279,54.4638,96.9957,58.1407,96.9957,62.4229z"/>
</g>
<g>
	<path fill="#8EDD65" d="M48.2536,53.5674c0,4.3525-3.7167,8.1058-7.9958,8.1058
		c-4.3173,0-8.0707-3.7534-8.0707-8.1058c0-4.2822,3.7534-7.9591,8.0707-7.9591C44.5368,45.6083,48.2536,49.2853,48.2536,53.5674z"
		/>
</g>
<g>
	<path fill="#FF5050" d="M569.7454,266.038c0,4.3524-3.7167,8.1058-7.9958,8.1058
		c-4.3173,0-8.0707-3.7534-8.0707-8.1058c0-4.2822,3.7534-7.9591,8.0707-7.9591
		C566.0286,258.0789,569.7454,261.7559,569.7454,266.038z"/>
</g>
</svg>
