<svg version="1.1" xmlns="http://www.w3.org/2000/svg" xmlns:xlink="http://www.w3.org/1999/xlink" x="0px" y="0px"
	 viewBox="0 0 692.7653 274.1439" enable-background="new 0 0 692.7653 274.1439" xml:space="preserve">
<g id="XMLID_2_">
	<path id="XMLID_3_" fill="#444444" d="M466.3308,130.7056h-10.3232v26.4253h-11.749v-26.4253h-6.3438v-10.3975h6.3438v-2.853
		c0-9.9097,5.4434-15.3525,14.0391-15.3525c5.7432,0,9.5342,1.7271,12.4248,3.9038l-5.1055,8.6709
		c-1.7637-0.9009-3.4902-1.6138-5.7432-1.6138c-2.5898,0-3.8662,1.4639-3.8662,4.6543v2.5903h10.3232V130.7056z"/>
	<path id="XMLID_5_" fill="#444444" d="M509.2741,138.7002c0,11.1484-8.4834,19.4062-20.0068,19.4062
		c-11.4863,0-19.9697-8.2578-19.9697-19.4062c0-11.1479,8.4834-19.4058,19.9697-19.4058
		C500.7907,119.2944,509.2741,127.5523,509.2741,138.7002z M481.3093,138.7002c0,4.9551,3.3789,8.4463,7.958,8.4463
		c4.6172,0,7.9951-3.4912,7.9951-8.4463c0-4.9541-3.3779-8.4448-7.9951-8.4448
		C484.6882,130.2554,481.3093,133.7461,481.3093,138.7002z"/>
	<path id="XMLID_15_" fill="#444444" d="M553.6091,138.7002c0,11.1484-8.4834,19.4062-20.0068,19.4062
		c-11.4863,0-19.9697-8.2578-19.9697-19.4062c0-11.1479,8.4834-19.4058,19.9697-19.4058
		C545.1257,119.2944,553.6091,127.5523,553.6091,138.7002z M525.6442,138.7002c0,4.9551,3.3789,8.4463,7.958,8.4463
		c4.6172,0,7.9951-3.4912,7.9951-8.4463c0-4.9541-3.3779-8.4448-7.9951-8.4448
		C529.0231,130.2554,525.6442,133.7461,525.6442,138.7002z"/>
	<path id="XMLID_20_" fill="#444444" d="M585.3688,119.8574l-1.0889,11.7114c-1.5762-0.5254-3.791-0.9761-5.8936-0.9761
		c-4.166,0-6.7188,2.0649-6.7188,6.644v19.894h-11.749v-36.8228h11.2607v4.2412c2.1396-3.5659,5.5557-5.2549,10.0605-5.2549
		C582.9665,119.2944,584.4675,119.5947,585.3688,119.8574z"/>
	<path id="XMLID_22_" fill="#444444" d="M625.9099,141.3652c0,11.5244-7.957,16.7412-17.7549,16.7412
		c-9.834,0-17.792-5.2168-17.792-16.7783v-21.02h11.749v20.0063c0,4.6924,2.5146,6.832,6.043,6.832
		c3.4912,0,6.0439-2.1396,6.0439-6.832v-20.0063h11.7109V141.3652z"/>
	<path id="XMLID_28_" fill="#444444" d="M692.7653,132.9575v24.1733h-11.749v-20.0063c0-4.3545-2.1768-6.7944-5.8555-6.7944
		c-3.2285,0-5.9688,2.2148-5.9688,6.9819v19.8188h-11.749v-20.0063c0-4.3545-2.1768-6.7944-5.8174-6.7944
		c-3.2656,0-5.9688,2.2148-5.9688,6.9819v19.8188h-11.749v-36.8228h11.2607v4.6167c2.3271-3.8662,6.0439-5.6304,10.9609-5.6304
		c4.8428,0,8.9717,2.2148,11.2236,6.1562c2.4775-4.2417,6.6064-6.1562,11.6738-6.1562
		C687.4352,119.2944,692.7653,124.4746,692.7653,132.9575z"/>
</g>
<g id="XMLID_52_">
	<g id="XMLID_1951_">
		<path id="XMLID_1969_" fill="#444444" d="M186.9609,147.1671c-2.9599,0-5.2062-1.4243-5.2062-5.6545v-10.7509h12.5473v-10.3758
			h-12.5473v-10.7113h-11.7238v10.7113h-6.8547v10.3758h6.8547v12.2484c0,9.2138,4.4559,15.094,14.3071,15.094
			c5.9184,0,9.5889-1.6835,13.0353-4.0808l-4.0457-9.1406C191.4931,145.9685,189.1324,147.1671,186.9609,147.1671z"/>
		<path id="XMLID_1966_" fill="#444444" d="M213.3502,124.6192v-4.2333h-11.2374v36.7453h11.7238v-19.8518
			c0-4.5688,2.5467-6.6305,6.7052-6.6305c2.0968,0,4.3065,0.4514,5.8802,0.9729l1.0858-11.6842
			c-0.8982-0.2623-2.3972-0.5642-4.1204-0.5642C218.8934,119.3733,215.4852,121.0599,213.3502,124.6192z"/>
		<rect id="XMLID_1963_" x="232.0568" y="120.3859" fill="#444444" width="11.7238" height="36.7453"/>
		<path id="XMLID_1956_" fill="#444444" d="M237.8623,102.0316c-3.971,0-7.0041,3.0713-7.0041,7.0422
			c0,3.9344,3.0331,6.966,7.0041,6.966c3.9328,0,7.0041-3.0316,7.0041-6.966C244.8664,105.1028,241.7952,102.0316,237.8623,102.0316
			z"/>
		<path id="XMLID_1952_" fill="#444444" d="M273.7185,119.3733c-4.982,0-8.3156,2.0983-10.5252,4.9835v-3.971h-11.3121v51.7264
			h11.6857v-18.4641c2.2112,2.6229,5.4319,4.4559,10.1516,4.4559c9.8131,0,17.1176-8.5397,17.1176-19.4005
			C290.8361,127.9161,283.5316,119.3733,273.7185,119.3733z M263.6203,138.6945c0-4.2729,3.7453-7.9419,8.0533-7.9419
			c4.2699,0,7.9785,3.669,7.9785,7.9419c0,4.3431-3.7087,8.0884-7.9785,8.0884
			C267.3656,146.7828,263.6203,143.0376,263.6203,138.6945z"/>
	</g>
	<g id="XMLID_1204_">
		<path id="XMLID_1948_" fill="#444444" d="M364.9701,138.7692c0,1.2012-0.0749,2.8517-0.2262,3.6403h-24.9625
			c0.9766,4.0163,3.8298,5.8929,7.8828,5.8929c2.7417,0,5.7065-1.1248,8.034-3.2277l7.5817,7.0575
			c-3.8283,3.8298-9.4217,6.0427-16.2163,6.0427c-11.5612,0-19.4057-7.6932-19.4057-19.1796c0-11.5994,7.6947-19.635,18.8815-19.635
			C357.4618,119.3604,364.9319,127.2462,364.9701,138.7692z M339.8197,134.9791h13.4012c-0.9384-3.68-3.2292-5.6331-6.6448-5.6331
			C342.9358,129.346,340.7198,131.3358,339.8197,134.9791z"/>
		<path id="XMLID_1205_" fill="#444444" d="M406.5691,138.7692c0,1.2012-0.0749,2.8517-0.2262,3.6403h-24.9625
			c0.9766,4.0163,3.8298,5.8929,7.8827,5.8929c2.7417,0,5.7065-1.1248,8.034-3.2277l7.5816,7.0575
			c-3.8282,3.8298-9.4217,6.0427-16.2163,6.0427c-11.5612,0-19.4057-7.6932-19.4057-19.1796c0-11.5994,7.6948-19.635,18.8816-19.635
			C399.0608,119.3604,406.5309,127.2462,406.5691,138.7692z M381.4187,134.9791h13.4012c-0.9384-3.68-3.2292-5.6331-6.6448-5.6331
			C384.5348,129.346,382.3188,131.3358,381.4187,134.9791z"/>
	</g>
	<g id="XMLID_675_">
		<path id="XMLID_679_" fill="#444444" d="M317.4048,138.7233c0,4.3525-3.7167,8.1059-7.9958,8.1059
			c-4.3173,0-8.0707-3.7534-8.0707-8.1059c0-4.2822,3.7534-7.9591,8.0707-7.9591
			C313.6881,130.7642,317.4048,134.4412,317.4048,138.7233z"/>
	</g>
</g>
<g id="XMLID_2152_">
	<path id="XMLID_2153_" fill="#4AC9E3" d="M419.635,217.5782c0,4.3525-3.7167,8.1059-7.9958,8.1059
		c-4.3173,0-8.0707-3.7534-8.0707-8.1059c0-4.2822,3.7534-7.9591,8.0707-7.9591
		C415.9183,209.6191,419.635,213.2961,419.635,217.5782z"/>
</g>
<g id="XMLID_2149_">
	<path id="XMLID_2150_" fill="#FFCE33" d="M155.8147,26.9656c0,4.3525-3.7167,8.1058-7.9958,8.1058
		c-4.3173,0-8.0707-3.7534-8.0707-8.1058c0-4.2822,3.7534-7.9591,8.0707-7.9591C152.098,19.0064,155.8147,22.6834,155.8147,26.9656z
		"/>
</g>
<g id="XMLID_61_">
	<path id="XMLID_62_" fill="#8EDD65" d="M220.8079,33.4649c0,4.3525-3.7167,8.1058-7.9958,8.1058
		c-4.3173,0-8.0707-3.7534-8.0707-8.1058c0-4.2822,3.7534-7.9591,8.0707-7.9591C217.0912,25.5058,220.8079,29.1827,220.8079,33.4649
		z"/>
</g>
<g id="XMLID_2146_">
	<path id="XMLID_2147_" fill="#FF5050" d="M154.5065,7.9591c0,4.3525-3.7167,8.1058-7.9958,8.1058
		c-4.3173,0-8.0707-3.7534-8.0707-8.1058C138.44,3.677,142.1933,0,146.5107,0C150.7897,0,154.5065,3.677,154.5065,7.9591z"/>
</g>
<g id="XMLID_2143_">
	<path id="XMLID_2144_" fill="#FF9A3E" d="M116.2267,25.9292c0,4.3525-3.7167,8.1058-7.9958,8.1058
		c-4.3173,0-8.0707-3.7534-8.0707-8.1058c0-4.2822,3.7534-7.9591,8.0707-7.9591C112.5099,17.9701,116.2267,21.6471,116.2267,25.9292
		z"/>
</g>
<g id="XMLID_2140_">
	<path id="XMLID_2141_" fill="#8B84D7" d="M78.8428,53.753c0,4.3525-3.7167,8.1058-7.9958,8.1058
		c-4.3173,0-8.0707-3.7534-8.0707-8.1058c0-4.2822,3.7534-7.9591,8.0707-7.9591C75.126,45.7939,78.8428,49.4709,78.8428,53.753z"/>
</g>
<g id="XMLID_2137_">
	<path id="XMLID_2138_" fill="#FF5050" d="M57.3674,82.97c0,4.3525-3.7167,8.1058-7.9958,8.1058
		c-4.3173,0-8.0707-3.7534-8.0707-8.1058c0-4.2822,3.7534-7.9591,8.0707-7.9591C53.6507,75.0109,57.3674,78.6879,57.3674,82.97z"/>
</g>
<g id="XMLID_2134_">
	<path id="XMLID_2135_" fill="#FF9A3E" d="M47.16,115.2192c0,4.3525-3.7167,8.1058-7.9958,8.1058
		c-4.3173,0-8.0707-3.7534-8.0707-8.1058c0-4.2822,3.7534-7.9591,8.0707-7.9591C43.4433,107.2601,47.16,110.937,47.16,115.2192z"/>
</g>
<g id="XMLID_2131_">
	<path id="XMLID_2132_" fill="#8EDD65" d="M16.0665,126.7282c0,4.3525-3.7167,8.1059-7.9958,8.1059
		C3.7534,134.834,0,131.0806,0,126.7282c0-4.2822,3.7534-7.9591,8.0707-7.9591C12.3498,118.769,16.0665,122.446,16.0665,126.7282z"
		/>
</g>
<g id="XMLID_2128_">
	<path id="XMLID_2129_" fill="#FFCE33" d="M111.7808,109.0009c0,4.3525-3.7167,8.1058-7.9958,8.1058
		c-4.3173,0-8.0707-3.7534-8.0707-8.1058c0-4.2822,3.7534-7.9591,8.0707-7.9591
		C108.0641,101.0418,111.7808,104.7187,111.7808,109.0009z"/>
</g>
<g id="XMLID_2125_">
	<path id="XMLID_2126_" fill="#8B84D7" d="M151.2068,132.7104c0,4.3525-3.7167,8.1059-7.9958,8.1059
		c-4.3173,0-8.0707-3.7534-8.0707-8.1059c0-4.2822,3.7534-7.9591,8.0707-7.9591
		C147.4901,124.7513,151.2068,128.4283,151.2068,132.7104z"/>
</g>
<g id="XMLID_2122_">
	<path id="XMLID_2123_" fill="#4AC9E3" d="M96.9957,62.4229c0,4.3525-3.7167,8.1058-7.9958,8.1058
		c-4.3173,0-8.0707-3.7534-8.0707-8.1058c0-4.2822,3.7534-7.9591,8.0707-7.9591C93.279,54.4638,96.9957,58.1407,96.9957,62.4229z"/>
</g>
<g id="XMLID_2119_">
	<path id="XMLID_2120_" fill="#8EDD65" d="M48.2536,53.5674c0,4.3525-3.7167,8.1058-7.9958,8.1058
		c-4.3173,0-8.0707-3.7534-8.0707-8.1058c0-4.2822,3.7534-7.9591,8.0707-7.9591C44.5368,45.6083,48.2536,49.2853,48.2536,53.5674z"
		/>
</g>
<g id="XMLID_2116_">
	<path id="XMLID_2117_" fill="#FF5050" d="M569.7454,266.038c0,4.3524-3.7167,8.1058-7.9958,8.1058
		c-4.3173,0-8.0707-3.7534-8.0707-8.1058c0-4.2822,3.7534-7.9591,8.0707-7.9591
		C566.0286,258.0789,569.7454,261.7559,569.7454,266.038z"/>
</g>
</svg>
