<svg xmlns="http://www.w3.org/2000/svg" viewBox="0 0 92 92"><title>img-profile-v4</title><circle cx="46" cy="46" r="46" fill="#d1dae0"/><path d="M46 46a12 12 0 1 0-12-12 12.013 12.013 0 0 0 12 12z" fill="none"/><path d="M46 50a16 16 0 1 0-16-16 16.018 16.018 0 0 0 16 16zm0-28a12 12 0 1 1-12 12 12.013 12.013 0 0 1 12-12zM48 56.07h-4a28.037 28.037 0 0 0-27.828 24.934 46.18 46.18 0 0 0 3.831 2.942A24.026 24.026 0 0 1 44 60.07h4a24.026 24.026 0 0 1 23.997 23.877 46.18 46.18 0 0 0 3.832-2.943A28.037 28.037 0 0 0 48 56.07z" fill="#fff"/></svg>