<svg xmlns="http://www.w3.org/2000/svg" viewBox="0 0 652.5222 274.1439"><g fill="#444"><path d="M479.844 138.663c0 10.886-7.32 19.443-17.155 19.443-4.992 0-8.333-2.026-10.548-4.917v3.942h-11.336v-54.052h11.712v20.757c2.214-2.665 5.443-4.542 10.172-4.542 9.835 0 17.154 8.559 17.154 19.37zm-27.815.037c0 4.88 3.228 8.447 7.845 8.447 4.73 0 7.882-3.642 7.882-8.447 0-4.804-3.153-8.445-7.882-8.445-4.617 0-7.845 3.566-7.845 8.445zM497.901 157.13h-11.749V103.08h11.75v54.052zM544.147 138.7c0 11.149-8.483 19.406-20.007 19.406-11.486 0-19.97-8.257-19.97-19.406 0-11.148 8.484-19.406 19.97-19.406 11.524 0 20.007 8.258 20.007 19.406zm-27.965 0c0 4.955 3.38 8.447 7.958 8.447 4.618 0 7.995-3.492 7.995-8.447 0-4.954-3.377-8.445-7.995-8.445-4.579 0-7.958 3.491-7.958 8.445zM575.869 124.137v-3.829h11.374v33.295c0 12.086-7.92 19.293-19.97 19.293-6.156 0-12.425-1.577-16.816-4.692l4.167-9.347c3.603 2.553 7.47 3.754 11.823 3.754 4.768 0 9.272-2.628 9.272-8.483v-2.29c-2.177 2.778-5.405 4.655-10.135 4.655-9.872 0-17.08-8.145-17.08-18.581 0-10.435 7.208-18.618 17.08-18.618 4.843 0 8.108 1.99 10.285 4.843zm-15.24 13.775c0 4.467 3.153 7.883 7.733 7.883 4.429 0 7.507-3.34 7.507-7.883 0-4.541-3.078-7.882-7.507-7.882-4.58 0-7.732 3.378-7.732 7.882zM608.303 108.972c0 3.941-3.078 6.982-7.02 6.982-3.978 0-7.019-3.04-7.019-6.982 0-3.979 3.041-7.057 7.02-7.057 3.941 0 7.02 3.078 7.02 7.057zm-1.088 48.159h-11.75v-36.823h11.75v36.823zM640.811 123.836V103.08h11.711v54.052h-11.336v-3.979c-2.215 2.89-5.593 4.954-10.585 4.954-9.835 0-17.117-8.557-17.117-19.443 0-10.81 7.282-19.369 17.154-19.369 4.693 0 7.958 1.877 10.173 4.542zm-15.24 14.864c0 4.805 3.153 8.447 7.846 8.447 4.616 0 7.882-3.567 7.882-8.447 0-4.879-3.266-8.445-7.882-8.445-4.693 0-7.846 3.641-7.846 8.445z"/></g><g fill="#444"><path d="M186.96 147.167c-2.959 0-5.205-1.424-5.205-5.654v-10.751h12.547v-10.376h-12.547v-10.711H170.03v10.71h-6.855v10.377h6.855v12.248c0 9.214 4.456 15.094 14.307 15.094 5.918 0 9.589-1.683 13.035-4.08l-4.045-9.141c-1.835 1.085-4.196 2.284-6.367 2.284zM213.35 124.62v-4.234h-11.237v36.745h11.724V137.28c0-4.568 2.546-6.63 6.705-6.63 2.097 0 4.306.451 5.88.973l1.086-11.684c-.898-.263-2.397-.565-4.12-.565-4.495 0-7.903 1.687-10.038 5.246zM232.057 120.386h11.724v36.745h-11.724zM237.862 102.032c-3.97 0-7.004 3.07-7.004 7.042 0 3.934 3.033 6.966 7.004 6.966 3.933 0 7.004-3.032 7.004-6.966 0-3.971-3.07-7.042-7.004-7.042zM273.719 119.373c-4.982 0-8.316 2.099-10.526 4.984v-3.971h-11.312v51.726h11.686v-18.464c2.211 2.623 5.432 4.456 10.152 4.456 9.813 0 17.117-8.54 17.117-19.4 0-10.788-7.304-19.33-17.118-19.33zm-10.099 19.322c0-4.273 3.746-7.942 8.054-7.942 4.27 0 7.978 3.669 7.978 7.942 0 4.343-3.709 8.088-7.978 8.088-4.308 0-8.054-3.745-8.054-8.088z"/></g><g fill="#444"><path d="M364.97 138.77c0 1.2-.075 2.85-.226 3.64H339.78c.977 4.016 3.83 5.892 7.883 5.892 2.742 0 5.707-1.124 8.034-3.227l7.582 7.057c-3.828 3.83-9.422 6.043-16.216 6.043-11.562 0-19.406-7.693-19.406-19.18 0-11.6 7.695-19.635 18.881-19.635 10.923 0 18.393 7.886 18.431 19.41zm-25.15-3.79h13.4c-.937-3.68-3.228-5.634-6.644-5.634-3.64 0-5.856 1.99-6.756 5.633zM406.57 138.77c0 1.2-.076 2.85-.227 3.64H381.38c.977 4.016 3.83 5.892 7.883 5.892 2.742 0 5.707-1.124 8.034-3.227l7.582 7.057c-3.829 3.83-9.422 6.043-16.217 6.043-11.56 0-19.405-7.693-19.405-19.18 0-11.6 7.694-19.635 18.881-19.635 10.923 0 18.393 7.886 18.431 19.41zm-25.151-3.79h13.4c-.937-3.68-3.228-5.634-6.644-5.634-3.64 0-5.856 1.99-6.756 5.633z"/></g><path fill="#444" d="M317.405 138.723c0 4.353-3.717 8.106-7.996 8.106-4.317 0-8.07-3.753-8.07-8.106 0-4.282 3.753-7.959 8.07-7.959 4.28 0 7.996 3.677 7.996 7.96z"/><path fill="#4AC9E3" d="M419.635 217.578c0 4.353-3.717 8.106-7.996 8.106-4.317 0-8.07-3.753-8.07-8.106 0-4.282 3.753-7.959 8.07-7.959 4.28 0 7.996 3.677 7.996 7.96z"/><path fill="#FFCE33" d="M155.815 26.966c0 4.352-3.717 8.105-7.996 8.105-4.317 0-8.07-3.753-8.07-8.105 0-4.283 3.753-7.96 8.07-7.96 4.279 0 7.996 3.677 7.996 7.96z"/><path fill="#8EDD65" d="M220.808 33.465c0 4.352-3.717 8.106-7.996 8.106-4.317 0-8.07-3.754-8.07-8.106 0-4.282 3.753-7.96 8.07-7.96 4.28 0 7.996 3.678 7.996 7.96z"/><path fill="#FF5050" d="M154.506 7.96c0 4.352-3.716 8.105-7.995 8.105-4.318 0-8.071-3.753-8.071-8.106 0-4.282 3.753-7.959 8.07-7.959 4.28 0 7.996 3.677 7.996 7.96z"/><path fill="#FF9A3E" d="M116.227 25.93c0 4.352-3.717 8.105-7.996 8.105-4.317 0-8.07-3.753-8.07-8.106 0-4.282 3.753-7.959 8.07-7.959 4.279 0 7.996 3.677 7.996 7.96z"/><path fill="#8B84D7" d="M78.843 53.753c0 4.353-3.717 8.106-7.996 8.106-4.317 0-8.07-3.754-8.07-8.106 0-4.282 3.753-7.96 8.07-7.96 4.279 0 7.996 3.678 7.996 7.96z"/><path fill="#FF5050" d="M57.367 82.97c0 4.353-3.716 8.106-7.995 8.106-4.318 0-8.071-3.754-8.071-8.106 0-4.282 3.753-7.96 8.07-7.96 4.28 0 7.996 3.678 7.996 7.96z"/><path fill="#FF9A3E" d="M47.16 115.22c0 4.352-3.717 8.105-7.996 8.105-4.317 0-8.07-3.753-8.07-8.106 0-4.282 3.753-7.959 8.07-7.959 4.28 0 7.996 3.677 7.996 7.96z"/><path fill="#8EDD65" d="M16.067 126.728c0 4.353-3.717 8.106-7.996 8.106-4.318 0-8.071-3.753-8.071-8.106 0-4.282 3.753-7.959 8.07-7.959 4.28 0 7.997 3.677 7.997 7.96z"/><path fill="#FFCE33" d="M111.78 109c0 4.353-3.716 8.107-7.995 8.107-4.317 0-8.07-3.754-8.07-8.106 0-4.282 3.753-7.96 8.07-7.96 4.28 0 7.996 3.678 7.996 7.96z"/><path fill="#8B84D7" d="M151.207 132.71c0 4.353-3.717 8.106-7.996 8.106-4.317 0-8.07-3.753-8.07-8.106 0-4.282 3.753-7.959 8.07-7.959 4.28 0 7.996 3.677 7.996 7.96z"/><path fill="#4AC9E3" d="M96.996 62.423c0 4.352-3.717 8.106-7.996 8.106-4.317 0-8.07-3.754-8.07-8.106 0-4.282 3.753-7.96 8.07-7.96 4.279 0 7.996 3.678 7.996 7.96z"/><g><path fill="#8EDD65" d="M48.254 53.567c0 4.353-3.717 8.106-7.996 8.106-4.318 0-8.07-3.753-8.07-8.106 0-4.282 3.752-7.959 8.07-7.959 4.279 0 7.996 3.677 7.996 7.96z"/></g><g><path fill="#FF5050" d="M569.745 266.038c0 4.352-3.716 8.106-7.995 8.106-4.318 0-8.071-3.754-8.071-8.106 0-4.282 3.753-7.96 8.07-7.96 4.28 0 7.996 3.678 7.996 7.96z"/></g></svg>