<svg xmlns="http://www.w3.org/2000/svg" viewBox="0 0 150 72.2"><g fill="#444"><path d="M49.2 38.7c-.8 0-1.4-.4-1.4-1.5v-2.8h3.3v-2.7h-3.3v-2.8h-3.1v2.8H43v2.7h1.8v3.2c0 2.4 1.2 4 3.8 4 1.6 0 2.5-.4 3.4-1.1l-1.1-2.4c-.5.3-1.1.6-1.7.6zM56.2 32.8v-1.1h-3v9.7h3.1v-5.2c0-1.2.7-1.7 1.8-1.7.6 0 1.1.1 1.5.3l.3-3.1c-.2-.1-.6-.1-1.1-.1-1.2-.2-2.1.3-2.6 1.2zM61.1 31.7h3.1v9.7h-3.1zM62.6 26.9c-1 0-1.8.8-1.8 1.9 0 1 .8 1.8 1.8 1.8s1.8-.8 1.8-1.8c.1-1.1-.7-1.9-1.8-1.9zM72.1 31.4c-1.3 0-2.2.6-2.8 1.3v-1h-3v13.6h3.1v-4.9c.6.7 1.4 1.2 2.7 1.2 2.6 0 4.5-2.2 4.5-5.1 0-2.8-2-5.1-4.5-5.1zm-2.7 5.1c0-1.1 1-2.1 2.1-2.1s2.1 1 2.1 2.1-1 2.1-2.1 2.1-2.1-.9-2.1-2.1z"/></g><g fill="#444"><path d="M96.1 36.5c0 .3 0 .8-.1 1h-6.6c.3 1.1 1 1.6 2.1 1.6.7 0 1.5-.3 2.1-.8l2 1.9c-1 1-2.5 1.6-4.3 1.6-3 0-5.1-2-5.1-5 0-3.1 2-5.2 5-5.2 2.9-.2 4.9 1.9 4.9 4.9zm-6.6-1H93c-.2-1-.9-1.5-1.7-1.5-1 .1-1.6.6-1.8 1.5zM107 36.5c0 .3 0 .8-.1 1h-6.6c.3 1.1 1 1.6 2.1 1.6.7 0 1.5-.3 2.1-.8l2 1.9c-1 1-2.5 1.6-4.3 1.6-3 0-5.1-2-5.1-5 0-3.1 2-5.2 5-5.2 3-.2 4.9 1.9 4.9 4.9zm-6.6-1h3.5c-.2-1-.9-1.5-1.7-1.5-1 .1-1.5.6-1.8 1.5z"/></g><path fill="#444" d="M83.6 36.5c0 1.1-1 2.1-2.1 2.1s-2.1-1-2.1-2.1 1-2.1 2.1-2.1 2.1 1 2.1 2.1z"/><path fill="#4AC9E3" d="M110.5 57.3c0 1.1-1 2.1-2.1 2.1s-2.1-1-2.1-2.1 1-2.1 2.1-2.1 2.1 1 2.1 2.1z"/><path fill="#FFCE33" d="M41 7.1c0 1.1-1 2.1-2.1 2.1s-2.1-1-2.1-2.1 1-2.1 2.1-2.1S41 6 41 7.1z"/><path fill="#8EDD65" d="M58.1 8.8c0 1.1-1 2.1-2.1 2.1s-2.1-1-2.1-2.1 1-2.1 2.1-2.1c1.2 0 2.1 1 2.1 2.1z"/><path fill="#FF5050" d="M40.7 2.1c0 1.1-1 2.1-2.1 2.1s-2.1-1-2.1-2.1 1-2.1 2.1-2.1 2.1 1 2.1 2.1z"/><path fill="#FF9A3E" d="M30.6 6.8c0 1.1-1 2.1-2.1 2.1s-2.1-1-2.1-2.1 1-2.1 2.1-2.1 2.1 1 2.1 2.1z"/><path fill="#8B84D7" d="M20.8 14.2c0 1.1-1 2.1-2.1 2.1s-2.1-1-2.1-2.1 1-2.1 2.1-2.1 2.1.9 2.1 2.1z"/><path fill="#FF5050" d="M15.1 21.8c0 1.1-1 2.1-2.1 2.1s-2.1-1-2.1-2.1 1-2.1 2.1-2.1 2.1 1 2.1 2.1z"/><path fill="#FF9A3E" d="M12.4 30.3c0 1.1-1 2.1-2.1 2.1s-2.1-1-2.1-2.1 1-2.1 2.1-2.1 2.1 1 2.1 2.1z"/><path fill="#8EDD65" d="M4.2 33.4c0 1.1-1 2.1-2.1 2.1S0 34.5 0 33.4s1-2.1 2.1-2.1c1.2 0 2.1.9 2.1 2.1z"/><path fill="#FFCE33" d="M29.4 28.7c0 1.1-1 2.1-2.1 2.1s-2.1-1-2.1-2.1 1-2.1 2.1-2.1c1.2 0 2.1 1 2.1 2.1z"/><path fill="#8B84D7" d="M39.8 34.9c0 1.1-1 2.1-2.1 2.1s-2.1-1-2.1-2.1 1-2.1 2.1-2.1 2.1 1 2.1 2.1z"/><path fill="#4AC9E3" d="M25.5 16.4c0 1.1-1 2.1-2.1 2.1s-2.1-1-2.1-2.1 1-2.1 2.1-2.1c1.2 0 2.1 1 2.1 2.1z"/><g><path fill="#8EDD65" d="M12.7 14.1c0 1.1-1 2.1-2.1 2.1s-2.1-1-2.1-2.1 1-2.1 2.1-2.1 2.1 1 2.1 2.1z"/></g><g><path fill="#FF5050" d="M150 70c0 1.1-1 2.1-2.1 2.1s-2.1-1-2.1-2.1 1-2.1 2.1-2.1 2.1 1 2.1 2.1z"/></g></svg>